# This file uses centimeters as units for non-parametric coordinates.

mtllib floral5.mtl
g default
v 0.562500 -0.372702 -0.493839
v 0.792625 5.708416 -0.001743
v -0.012497 5.753222 -0.942310
v 0.908806 -0.372702 -0.689623
v 1.354561 5.753222 -0.952671
v 1.028816 5.904298 0.688044
v 1.933876 5.904298 -0.989576
v 0.185272 5.904298 -1.770976
v -0.650246 5.904298 -0.197561
v 0.191856 -0.414553 -1.292422
v 0.005600 4.294832 -2.218951
v 0.338013 4.127866 -2.985835
v 0.418610 -0.377994 -1.143687
v 0.763718 4.335612 -2.173519
v -0.345497 4.549490 -1.903307
v 0.964897 4.548036 -1.858919
v 0.909584 4.216199 -3.132626
v -0.315331 4.219597 -3.166312
v 1.421608 -0.382330 -0.809802
v 2.238113 4.334755 -1.202101
v 2.382278 4.211505 -2.033073
v 1.672531 -0.418879 -0.706946
v 2.979248 4.199629 -1.306627
v 2.007553 4.614022 -0.803255
v 3.265091 4.316044 -1.024410
v 2.911644 4.193247 -2.287541
v 1.737976 4.472618 -2.072998
v 2.136475 -0.371410 -0.129231
v 2.611633 4.392467 0.259564
v 3.227127 4.350172 -0.328544
v 2.280891 -0.406222 0.100572
v 3.280762 4.299055 0.608875
v 2.171654 4.625138 0.454038
v 3.338776 4.402185 1.008332
v 3.808388 4.377623 -0.222264
v 2.714218 4.586241 -0.732988
v 1.654541 -0.384269 0.136841
v 1.751381 3.002173 0.776414
v 2.516685 2.850631 1.118805
v 1.491569 -0.422805 0.353245
v 1.663750 2.843499 1.514659
v 1.422935 3.261614 0.449861
v 1.317474 2.939196 1.716365
v 2.626877 2.797213 1.687758
v 2.717445 3.099555 0.503721
v -0.387726 -0.355290 -0.695110
v -1.585846 4.278338 -0.288338
v -0.948647 4.460438 -0.824350
v -0.258400 -0.344697 -0.454199
v -0.953949 4.408248 0.114528
v -2.075279 4.346966 -0.130976
v -0.948494 4.518393 0.517160
v -0.404121 4.683117 -0.671127
v -1.461037 4.521817 -1.269857
v 0.103653 -0.378488 0.306504
v -0.526665 2.658406 0.705656
v -0.520332 2.713080 0.153471
v 0.274940 -0.349194 0.345752
v -0.067444 2.773968 0.560887
v -0.664368 2.742898 1.009045
v 0.124687 2.903169 0.725537
v -0.221916 2.882343 -0.058725
v -0.957581 2.732613 0.211181
v -2.092690 -0.398210 -2.417301
v -2.338524 5.354323 -2.642634
v -3.084480 5.229345 -3.534342
v -1.763840 -0.393830 -2.598439
v -1.798325 5.332211 -3.534952
v -2.138054 5.635988 -2.011218
v -1.260315 5.516580 -3.577072
v -2.892952 5.295822 -4.320856
v -3.703636 5.408826 -2.852176
v 1.268623 -0.414188 -2.722396
v 1.261558 4.295731 -3.664767
v 1.820976 4.142382 -4.289286
v 1.436577 -0.373172 -2.510298
v 1.966270 4.354659 -3.384814
v 0.824379 4.539515 -3.474776
v 2.054954 4.569696 -3.023250
v 2.408646 4.245686 -4.250207
v 1.255852 4.219454 -4.664864
v 0.335525 -0.384269 1.607077
v 0.432350 3.002173 2.246649
v 1.197655 2.850631 2.589041
v 0.172539 -0.422805 1.823480
v 0.344727 2.843499 2.984896
v 0.103905 3.261614 1.920099
v -0.001549 2.939196 3.186602
v 1.307846 2.797213 3.157996
v 1.398415 3.099555 1.973956
v -2.381210 -0.329871 -0.435462
v -3.488754 2.934671 -0.485702
v -2.770065 3.117531 -0.066260
v -2.550285 -0.386452 -0.227885
v -3.618790 2.879485 0.261233
v -3.820099 3.009871 -0.870188
v -3.984749 2.884475 0.424520
v -2.710213 3.204275 0.518299
v -2.564087 3.319560 -0.692864
vt 0.308748 0.017981
vt 0.397051 0.012957
vt 0.397058 0.022971
vt 0.308743 0.006300
vt 0.397046 0.006281
vt 0.397064 0.032985
vt 0.308761 0.033004
vt 0.419236 0.009011
vt 0.419248 0.028286
vt 0.402212 0.027298
vt 0.402212 0.010000
vt 0.308748 0.017981
vt 0.397051 0.012957
vt 0.397058 0.022971
vt 0.308743 0.006300
vt 0.397046 0.006281
vt 0.397064 0.032985
vt 0.308761 0.033004
vt 0.419236 0.009011
vt 0.419248 0.028286
vt 0.402212 0.027298
vt 0.402212 0.010000
vt 0.308748 0.017981
vt 0.397051 0.012957
vt 0.397058 0.022971
vt 0.308743 0.006300
vt 0.397046 0.006281
vt 0.397064 0.032985
vt 0.308761 0.033004
vt 0.419236 0.009011
vt 0.419248 0.028286
vt 0.402212 0.027298
vt 0.402212 0.010000
vt 0.308748 0.017981
vt 0.397051 0.012957
vt 0.397058 0.022971
vt 0.308743 0.006300
vt 0.397046 0.006281
vt 0.397064 0.032985
vt 0.308761 0.033004
vt 0.419236 0.009011
vt 0.419248 0.028286
vt 0.402212 0.027298
vt 0.402212 0.010000
vt 0.308748 0.017981
vt 0.397051 0.012957
vt 0.397058 0.022971
vt 0.308743 0.006300
vt 0.397046 0.006281
vt 0.397064 0.032985
vt 0.308761 0.033004
vt 0.419236 0.009011
vt 0.419248 0.028286
vt 0.402212 0.027298
vt 0.402212 0.010000
vt 0.308748 0.017981
vt 0.397051 0.012957
vt 0.397058 0.022971
vt 0.308743 0.006300
vt 0.397046 0.006281
vt 0.397064 0.032985
vt 0.308761 0.033004
vt 0.419236 0.009011
vt 0.419248 0.028286
vt 0.402212 0.027298
vt 0.402212 0.010000
vt 0.308748 0.017981
vt 0.397051 0.012957
vt 0.397058 0.022971
vt 0.308743 0.006300
vt 0.397046 0.006281
vt 0.397064 0.032985
vt 0.308761 0.033004
vt 0.419236 0.009011
vt 0.419248 0.028286
vt 0.402212 0.027298
vt 0.402212 0.010000
vt 0.308748 0.017981
vt 0.397051 0.012957
vt 0.397058 0.022971
vt 0.308743 0.006300
vt 0.397046 0.006281
vt 0.397064 0.032985
vt 0.308761 0.033004
vt 0.419236 0.009011
vt 0.419248 0.028286
vt 0.402212 0.027298
vt 0.402212 0.010000
vt 0.308748 0.017981
vt 0.397051 0.012957
vt 0.397058 0.022971
vt 0.308743 0.006300
vt 0.397046 0.006281
vt 0.397064 0.032985
vt 0.308761 0.033004
vt 0.419236 0.009011
vt 0.419248 0.028286
vt 0.402212 0.027298
vt 0.402212 0.010000
vt 0.308748 0.017981
vt 0.397051 0.012957
vt 0.397058 0.022971
vt 0.308743 0.006300
vt 0.397046 0.006281
vt 0.397064 0.032985
vt 0.308761 0.033004
vt 0.419236 0.009011
vt 0.419248 0.028286
vt 0.402212 0.027298
vt 0.402212 0.010000
vt 0.308748 0.017981
vt 0.397051 0.012957
vt 0.397058 0.022971
vt 0.308743 0.006300
vt 0.397046 0.006281
vt 0.397064 0.032985
vt 0.308761 0.033004
vt 0.419236 0.009011
vt 0.419248 0.028286
vt 0.402212 0.027298
vt 0.402212 0.010000
vn -0.772506 -0.024092 0.634550
vn -0.772506 -0.024092 0.634550
vn -0.772506 -0.024092 0.634550
vn 0.870170 -0.038940 0.491210
vn 0.870170 -0.038940 0.491210
vn 0.870170 -0.038940 0.491210
vn 0.870170 -0.038940 0.491210
vn -0.004345 -0.041866 -0.999114
vn -0.004345 -0.041866 -0.999114
vn -0.004345 -0.041866 -0.999114
vn -0.004345 -0.041866 -0.999114
vn -0.391885 0.542574 0.742994
vn 0.741996 0.537776 0.400298
vn 0.344092 0.537309 -0.770000
vn -0.727865 0.566411 -0.386511
vn -0.912689 -0.115003 -0.392140
vn -0.912689 -0.115003 -0.392140
vn -0.912689 -0.115003 -0.392140
vn -0.051926 0.219586 0.974210
vn -0.051926 0.219586 0.974210
vn -0.051926 0.219586 0.974210
vn -0.051926 0.219586 0.974210
vn 0.892111 -0.157216 -0.423581
vn 0.892111 -0.157216 -0.423581
vn 0.892111 -0.157216 -0.423581
vn 0.892111 -0.157216 -0.423581
vn -0.865943 0.478464 -0.145655
vn -0.023685 0.691645 0.721849
vn 0.877684 0.453084 -0.156158
vn 0.027158 0.281380 -0.959212
vn -0.966514 0.148118 -0.209553
vn -0.966514 0.148118 -0.209553
vn -0.966514 0.148118 -0.209553
vn 0.172048 0.081786 0.981688
vn 0.172048 0.081786 0.981688
vn 0.172048 0.081786 0.981688
vn 0.172048 0.081786 0.981688
vn 0.739692 -0.287619 -0.608384
vn 0.739692 -0.287619 -0.608384
vn 0.739692 -0.287619 -0.608384
vn 0.739692 -0.287619 -0.608384
vn -0.734062 0.674264 0.080758
vn 0.271181 0.567388 0.777516
vn 0.921510 0.265262 -0.283647
vn -0.070359 0.404607 -0.911780
vn -0.666690 0.124732 -0.734824
vn -0.666690 0.124732 -0.734824
vn -0.666690 0.124732 -0.734824
vn -0.446310 0.001112 0.894878
vn -0.446310 0.001112 0.894878
vn -0.446310 0.001112 0.894878
vn -0.446310 0.001112 0.894878
vn 0.977679 -0.200239 -0.063620
vn 0.977679 -0.200239 -0.063620
vn 0.977679 -0.200239 -0.063620
vn 0.977679 -0.200239 -0.063620
vn -0.696547 0.632326 -0.339096
vn -0.288925 0.506798 0.812206
vn 0.884528 0.328719 0.330989
vn 0.444452 0.481002 -0.755711
vn 0.446202 0.151383 -0.882036
vn 0.446202 0.151383 -0.882036
vn 0.446202 0.151383 -0.882036
vn -0.993073 0.085315 -0.080794
vn -0.993073 0.085315 -0.080794
vn -0.993073 0.085315 -0.080794
vn -0.993073 0.085315 -0.080794
vn 0.397419 -0.325141 0.858104
vn 0.397419 -0.325141 0.858104
vn 0.397419 -0.325141 0.858104
vn 0.397419 -0.325141 0.858104
vn 0.123810 0.788977 -0.601819
vn -0.714333 0.690091 0.116199
vn 0.062247 0.388860 0.919192
vn 0.829958 0.521970 0.196768
vn -0.610237 -0.090482 -0.787035
vn -0.610237 -0.090482 -0.787035
vn -0.610237 -0.090482 -0.787035
vn -0.488472 -0.170958 0.855668
vn -0.488472 -0.170958 0.855668
vn -0.488472 -0.170958 0.855668
vn -0.488472 -0.170958 0.855668
vn 0.989517 0.143436 0.016794
vn 0.989517 0.143436 0.016794
vn 0.989517 0.143436 0.016794
vn 0.989517 0.143436 0.016794
vn -0.840922 0.367643 -0.397100
vn -0.505730 0.359975 0.783999
vn 0.692333 0.600304 0.400387
vn 0.312625 0.620650 -0.719069
vn -0.978844 -0.198314 -0.050360
vn -0.978844 -0.198314 -0.050360
vn -0.978844 -0.198314 -0.050360
vn 0.324425 -0.026680 0.945535
vn 0.324425 -0.026680 0.945535
vn 0.324425 -0.026680 0.945535
vn 0.324425 -0.026680 0.945535
vn 0.656824 0.123873 -0.743800
vn 0.656824 0.123873 -0.743800
vn 0.656824 0.123873 -0.743800
vn 0.656824 0.123873 -0.743800
vn -0.890854 0.319183 0.323268
vn 0.206016 0.487061 0.848722
vn 0.695969 0.640520 -0.324594
vn -0.386279 0.495600 -0.777926
vn -0.778624 -0.010671 0.627400
vn -0.778624 -0.010671 0.627400
vn -0.778624 -0.010671 0.627400
vn 0.862225 0.090036 0.498460
vn 0.862225 0.090036 0.498460
vn 0.862225 0.090036 0.498460
vn 0.862225 0.090036 0.498460
vn 0.015613 -0.160589 -0.986898
vn 0.015613 -0.160589 -0.986898
vn 0.015613 -0.160589 -0.986898
vn 0.015613 -0.160589 -0.986898
vn -0.445940 0.593699 0.669820
vn 0.690305 0.639623 0.338173
vn 0.313219 0.467915 -0.826407
vn -0.763908 0.455887 -0.456740
vn -0.741336 -0.134429 -0.657533
vn -0.741336 -0.134429 -0.657533
vn -0.741336 -0.134429 -0.657533
vn -0.359144 0.211314 0.909045
vn -0.359144 0.211314 0.909045
vn -0.359144 0.211314 0.909045
vn -0.359144 0.211314 0.909045
vn 0.983465 -0.132398 -0.123559
vn 0.983465 -0.132398 -0.123559
vn 0.983465 -0.132398 -0.123559
vn 0.983465 -0.132398 -0.123559
vn -0.788990 0.458232 -0.409289
vn -0.265494 0.685706 0.677732
vn 0.870752 0.475450 0.125453
vn 0.318222 0.288779 -0.902963
vn 0.446202 0.151383 -0.882036
vn 0.446202 0.151383 -0.882036
vn 0.446202 0.151383 -0.882036
vn -0.993073 0.085315 -0.080794
vn -0.993073 0.085315 -0.080794
vn -0.993073 0.085315 -0.080794
vn -0.993073 0.085315 -0.080794
vn 0.397419 -0.325141 0.858104
vn 0.397419 -0.325141 0.858104
vn 0.397419 -0.325141 0.858104
vn 0.397419 -0.325141 0.858104
vn 0.123810 0.788977 -0.601820
vn -0.714333 0.690091 0.116199
vn 0.062247 0.388860 0.919192
vn 0.829957 0.521971 0.196768
vn 0.487140 0.149495 -0.860433
vn 0.487140 0.149495 -0.860433
vn 0.487140 0.149495 -0.860433
vn -0.945382 -0.280086 -0.166745
vn -0.945382 -0.280086 -0.166745
vn -0.945382 -0.280086 -0.166745
vn -0.945382 -0.280086 -0.166745
vn 0.361765 -0.020301 0.932048
vn 0.361765 -0.020301 0.932048
vn 0.361765 -0.020301 0.932048
vn 0.361765 -0.020301 0.932048
vn -0.061495 0.671984 -0.738008
vn -0.910002 0.407531 -0.076257
vn -0.194154 0.532123 0.824105
vn 0.577877 0.802931 0.146149
s off
g polySurface209
usemtl lambert2SG
f 1/1/1 2/2/2 3/3/3
f 1/1/4 4/4/5 5/5/6 2/2/7
f 3/3/8 5/6/9 4/7/10 1/1/11
f 9/11/12 6/8/13 7/9/14 8/10/15
f 10/12/16 11/13/17 12/14/18
f 10/12/19 13/15/20 14/16/21 11/13/22
f 12/14/23 14/17/24 13/18/25 10/12/26
f 18/22/27 15/19/28 16/20/29 17/21/30
f 19/23/31 20/24/32 21/25/33
f 19/23/34 22/26/35 23/27/36 20/24/37
f 21/25/38 23/28/39 22/29/40 19/23/41
f 27/33/42 24/30/43 25/31/44 26/32/45
f 28/34/46 29/35/47 30/36/48
f 28/34/49 31/37/50 32/38/51 29/35/52
f 30/36/53 32/39/54 31/40/55 28/34/56
f 36/44/57 33/41/58 34/42/59 35/43/60
f 37/45/61 38/46/62 39/47/63
f 37/45/64 40/48/65 41/49/66 38/46/67
f 39/47/68 41/50/69 40/51/70 37/45/71
f 45/55/72 42/52/73 43/53/74 44/54/75
f 46/56/76 47/57/77 48/58/78
f 46/56/79 49/59/80 50/60/81 47/57/82
f 48/58/83 50/61/84 49/62/85 46/56/86
f 54/66/87 51/63/88 52/64/89 53/65/90
f 55/67/91 56/68/92 57/69/93
f 55/67/94 58/70/95 59/71/96 56/68/97
f 57/69/98 59/72/99 58/73/100 55/67/101
f 63/77/102 60/74/103 61/75/104 62/76/105
f 64/78/106 65/79/107 66/80/108
f 64/78/109 67/81/110 68/82/111 65/79/112
f 66/80/113 68/83/114 67/84/115 64/78/116
f 72/88/117 69/85/118 70/86/119 71/87/120
f 73/89/121 74/90/122 75/91/123
f 73/89/124 76/92/125 77/93/126 74/90/127
f 75/91/128 77/94/129 76/95/130 73/89/131
f 81/99/132 78/96/133 79/97/134 80/98/135
f 82/100/136 83/101/137 84/102/138
f 82/100/139 85/103/140 86/104/141 83/101/142
f 84/102/143 86/105/144 85/106/145 82/100/146
f 90/110/147 87/107/148 88/108/149 89/109/150
f 91/111/151 92/112/152 93/113/153
f 91/111/154 94/114/155 95/115/156 92/112/157
f 93/113/158 95/116/159 94/117/160 91/111/161
f 99/121/162 96/118/163 97/119/164 98/120/165
