# This file uses centimeters as units for non-parametric coordinates.

mtllib floral9.mtl
g default
v 1.987652 7.686206 1.048707
v 1.987655 7.686206 -1.527944
v -0.243793 7.686206 -2.816270
v -2.475236 7.686206 -1.527944
v -2.475236 7.686206 1.048707
v -0.243793 7.686206 2.337028
v 0.240945 8.101157 -1.302755
v -1.008849 8.101157 -0.896675
v -1.008849 8.101157 0.417437
v 0.240945 8.101157 0.823517
v 1.013361 8.101157 -0.239619
v -4.788084 6.035380 -0.246813
v -0.242302 6.035380 -0.246813
v -2.499325 6.035380 -1.624786
v -2.327678 6.035380 1.185494
v -0.396909 -0.604832 -0.530562
v -0.396909 -0.604832 0.051325
v -0.311540 7.330278 -0.047251
v -0.311540 7.330278 -0.431991
v 0.107023 -0.604832 -0.239619
v 0.021656 7.330278 -0.239619
v 1.595318 6.035380 -4.404608
v -0.242302 6.035380 -0.246813
v 1.930456 6.035380 -1.754153
v -0.709350 6.035380 -2.733205
v 2.817773 6.035380 3.114744
v -0.242302 6.035380 -0.246813
v 0.258055 6.035380 2.349844
v 2.220679 6.035380 0.331123
v -2.455357 5.389957 -6.189703
v -0.242302 3.354027 -0.246813
v 0.550943 4.364885 -3.902089
v -3.224186 4.288009 -2.240758
v -4.979379 5.389957 3.969315
v -0.242302 3.354027 -0.246813
v -3.936599 4.364885 0.338385
v -1.020220 4.288009 3.254945
v 6.955919 4.394137 -3.230542
v -0.242302 1.892519 -0.246813
v 4.281617 3.134596 0.563445
v 2.072495 3.040136 -3.997659
v -8.156304 3.842313 -2.889183
v -0.242302 1.163684 -0.246813
v -3.330425 2.493649 -4.078366
v -4.747272 2.392505 1.159929
v 1.891067 3.687328 7.318877
v -0.242302 1.163687 -0.246813
v -1.591764 2.416696 4.188830
v 3.240047 2.321407 2.517963
vt 0.990380 0.482860
vt 0.990380 0.514318
vt 0.963137 0.530047
vt 0.935894 0.514318
vt 0.935894 0.482860
vt 0.963137 0.467131
vt 0.196188 0.940850
vt 0.170407 0.932473
vt 0.170407 0.905366
vt 0.196188 0.896989
vt 0.212122 0.918920
vt 0.857760 0.535197
vt 0.941774 0.535197
vt 0.900060 0.560665
vt 0.903233 0.508726
vt 0.609996 0.016791
vt 0.609996 0.011977
vt 0.795107 0.011977
vt 0.795107 0.016791
vt 0.609996 0.007164
vt 0.795107 0.007164
vt 0.609996 0.002351
vt 0.795107 0.002351
vt 0.857760 0.535197
vt 0.941774 0.535197
vt 0.900060 0.560665
vt 0.903233 0.508726
vt 0.857760 0.535197
vt 0.941774 0.535197
vt 0.900060 0.560665
vt 0.903233 0.508726
vt 0.849082 0.473956
vt 0.933097 0.473956
vt 0.891383 0.499423
vt 0.894555 0.447484
vt 0.857760 0.535197
vt 0.941774 0.535197
vt 0.900060 0.560665
vt 0.903233 0.508726
vt 0.849082 0.473956
vt 0.933097 0.473956
vt 0.891383 0.499423
vt 0.894555 0.447484
vt 0.849082 0.473956
vt 0.933097 0.473956
vt 0.891383 0.499423
vt 0.894555 0.447484
vt 0.849082 0.473956
vt 0.933097 0.473956
vt 0.891383 0.499423
vt 0.894555 0.447484
vn 0.110581 0.975237 -0.191531
vn 0.000000 1.000000 0.000000
vn 0.000000 1.000000 0.000000
vn -0.110580 0.975237 0.191531
vn 0.110581 0.975237 0.191531
vn 0.221161 0.975237 0.000000
vn 0.502741 0.783476 0.365263
vn -0.192030 0.783476 -0.591007
vn -0.192030 0.783476 -0.591007
vn -0.621421 0.783477 -0.000000
vn -0.192030 0.783476 0.591007
vn 0.000000 1.000000 0.000000
vn 0.000000 1.000000 0.000000
vn 0.000000 1.000000 0.000000
vn 0.000000 1.000000 0.000000
vn -0.999942 0.010758 0.000000
vn -0.999942 0.010758 0.000000
vn -0.999942 0.010758 0.000000
vn -0.999942 0.010758 0.000000
vn 0.499992 0.005379 0.866013
vn 0.499992 0.005379 0.866013
vn 0.000000 1.000000 0.000000
vn 0.000000 1.000000 0.000000
vn 0.000000 1.000000 0.000000
vn 0.000000 1.000000 0.000000
vn 0.000000 1.000000 0.000000
vn 0.000000 1.000000 0.000000
vn 0.000000 1.000000 0.000000
vn 0.000000 1.000000 0.000000
vn 0.106674 0.952135 0.286460
vn 0.106674 0.952135 0.286460
vn 0.106674 0.952135 0.286460
vn 0.106674 0.952135 0.286460
vn 0.228337 0.952135 -0.203226
vn 0.228337 0.952135 -0.203226
vn 0.228337 0.952135 -0.203226
vn 0.228337 0.952135 -0.203226
vn -0.282380 0.952135 0.117049
vn -0.282380 0.952135 0.117049
vn -0.282380 0.952135 0.117049
vn -0.282380 0.952135 0.117049
vn 0.289943 0.952135 0.096808
vn 0.289943 0.952135 0.096808
vn 0.289943 0.952135 0.096808
vn 0.289943 0.952135 0.096808
vn -0.082960 0.952135 -0.294205
vn -0.082960 0.952135 -0.294205
vn -0.082960 0.952135 -0.294205
vn -0.082960 0.952135 -0.294205
s off
g polySurface219
usemtl lambert2SG
f 6/6/1 1/1/2 2/2/3 3/3/4 4/4/5 5/5/6
f 11/11/7 7/7/8 8/8/9 9/9/10 10/10/11
s 1
f 12/12/12 13/13/13 14/14/14
f 12/12/12 15/15/15 13/13/13
s 2
f 16/16/16 17/17/17 18/18/18 19/19/19
f 17/17/17 20/20/20 21/21/21 18/18/18
f 20/20/20 16/22/16 19/23/19 21/21/21
s 3
f 22/24/22 23/25/23 24/26/24
f 22/24/22 25/27/25 23/25/23
s 4
f 26/28/26 27/29/27 28/30/28
f 26/28/26 29/31/29 27/29/27
s 5
f 30/32/30 31/33/31 32/34/32
f 30/32/30 33/35/33 31/33/31
s 6
f 34/36/34 35/37/35 36/38/36
f 34/36/34 37/39/37 35/37/35
s 7
f 38/40/38 39/41/39 40/42/40
f 38/40/38 41/43/41 39/41/39
s 8
f 42/44/42 43/45/43 44/46/44
f 42/44/42 45/47/45 43/45/43
s 9
f 46/48/46 47/49/47 48/50/48
f 46/48/46 49/51/49 47/49/47
