# This file uses centimeters as units for non-parametric coordinates.

mtllib floral12.mtl
g default
v 0.000000 -1.817864 0.000000
v 0.013216 2.183104 1.259533
v 1.180177 2.183104 0.440199
v 2.160595 8.546615 3.987838
v 3.017007 8.546615 3.386544
v 4.953136 11.771693 7.054676
v 0.000000 -1.817864 0.000000
v -0.542265 2.183104 -1.152829
v -1.267020 2.183104 0.133146
v -3.615757 8.546615 -2.760414
v -4.233934 8.546615 -1.663546
v -7.509380 10.673101 -4.232164
v 0.000000 -1.817864 0.000000
v -0.876225 3.148791 -0.030918
v 0.027023 3.148791 0.876354
v -2.633598 10.934259 2.014097
v -2.025782 10.934259 2.624619
v -4.892405 14.731980 4.870712
v 0.000000 -1.817864 0.000000
v 0.358248 1.468127 -1.670839
v -1.460774 1.873051 -1.187292
v -0.736498 6.925246 -5.120116
v -2.413687 6.925246 -4.575164
v -2.672649 11.609363 -9.929813
v -4.163605 11.978911 -12.814260
v -3.674378 11.609363 -9.604332
v -1.470683 2.111187 1.068513
v -4.525823 9.923473 -0.965079
v -4.525825 9.923473 0.965077
v -9.607856 16.545089 -0.576408
v -12.923159 18.835180 0.000000
v -9.607856 16.545089 0.576408
v 0.551580 1.492668 1.697590
v -2.316400 8.292163 4.006089
v -0.480714 8.292163 4.602541
v -3.517189 13.993789 8.959496
v -3.993476 15.965701 12.290655
v -2.420795 13.993789 9.315735
v 1.605054 1.381066 0.073683
v 3.298685 7.701123 -1.306732
v 2.262126 7.701123 -2.733433
v 6.522643 13.241283 -4.088016
v 8.548482 14.164582 -6.210834
v 5.903542 13.241283 -4.940136
v 2.982168 6.483586 3.316378
v 4.075604 6.483586 1.811392
v 7.164922 11.165253 5.892303
v 10.076473 11.685821 7.320985
v 7.817995 11.165253 4.993425
vt 0.996035 0.020274
vt 0.943040 0.005334
vt 0.943040 0.035214
vt 0.854351 0.010221
vt 0.854351 0.030328
vt 0.799552 0.020274
vt 0.996035 0.020274
vt 0.943040 0.005334
vt 0.943040 0.035214
vt 0.854351 0.010221
vt 0.854351 0.030328
vt 0.799552 0.020274
vt 0.996035 0.020274
vt 0.943040 0.005334
vt 0.943040 0.035214
vt 0.854351 0.010221
vt 0.854351 0.030328
vt 0.799552 0.020274
vt 0.996035 0.020274
vt 0.962057 0.005334
vt 0.962057 0.035214
vt 0.899877 0.006781
vt 0.899877 0.033768
vt 0.832970 0.012215
vt 0.799552 0.020274
vt 0.832970 0.028334
vt 0.996035 0.020274
vt 0.962057 0.005334
vt 0.962057 0.035214
vt 0.899877 0.006781
vt 0.899877 0.033768
vt 0.832970 0.012215
vt 0.799552 0.020274
vt 0.832970 0.028334
vt 0.996035 0.020274
vt 0.962057 0.005334
vt 0.962057 0.035214
vt 0.899877 0.006781
vt 0.899877 0.033768
vt 0.832970 0.012215
vt 0.799552 0.020274
vt 0.832970 0.028334
vt 0.996035 0.020274
vt 0.962057 0.005334
vt 0.962057 0.035214
vt 0.899877 0.006781
vt 0.899877 0.033768
vt 0.832970 0.012215
vt 0.799552 0.020274
vt 0.832970 0.028334
vt 0.996035 0.020274
vt 0.962057 0.005334
vt 0.962057 0.035214
vt 0.899877 0.006781
vt 0.899877 0.033768
vt 0.832970 0.012215
vt 0.799552 0.020274
vt 0.832970 0.028334
vn -0.556191 0.251219 -0.792175
vn -0.534394 0.367566 -0.761130
vn -0.534394 0.367566 -0.761130
vn -0.534394 0.367566 -0.761130
vn -0.534394 0.367566 -0.761130
vn -0.438595 0.646069 -0.624684
vn -0.438595 0.646069 -0.624684
vn -0.438595 0.646069 -0.624684
vn -0.354479 0.787046 -0.504880
vn -0.438595 0.646069 -0.624684
vn 0.843234 0.251219 0.475233
vn 0.810188 0.367566 0.456609
vn 0.810188 0.367566 0.456609
vn 0.810188 0.367566 0.456609
vn 0.810188 0.367566 0.456609
vn 0.609250 0.714784 0.343363
vn 0.609250 0.714784 0.343363
vn 0.609250 0.714784 0.343363
vn 0.399975 0.888373 0.225419
vn 0.609250 0.714784 0.343363
vn 0.703575 0.119766 -0.700455
vn 0.690613 0.224337 -0.687551
vn 0.690613 0.224337 -0.687551
vn 0.690613 0.224337 -0.687551
vn 0.690613 0.224337 -0.687551
vn 0.605385 0.519867 -0.602700
vn 0.605385 0.519867 -0.602700
vn 0.605385 0.519867 -0.602700
vn 0.513225 0.689588 -0.510949
vn 0.605385 0.519867 -0.602700
vn 0.317762 0.402000 0.858734
vn 0.306533 0.483428 0.819961
vn 0.306533 0.483428 0.819961
vn 0.306533 0.483428 0.819961
vn 0.251941 0.655850 0.711608
vn 0.251941 0.655850 0.711608
vn 0.306533 0.483428 0.819961
vn 0.127514 0.910892 0.392449
vn 0.035407 0.993414 0.108972
vn 0.127514 0.910892 0.392449
vn 0.251941 0.655850 0.711608
vn 0.127514 0.910892 0.392449
vn 0.127514 0.910892 0.392449
vn 0.251941 0.655850 0.711608
vn 0.932962 0.358391 -0.033735
vn 0.932892 0.359216 -0.026005
vn 0.932892 0.359216 -0.026005
vn 0.932892 0.359216 -0.026005
vn 0.871979 0.489456 -0.009231
vn 0.871979 0.489456 -0.009231
vn 0.932892 0.359216 -0.026005
vn 0.689173 0.724597 0.000000
vn 0.568351 0.822786 -0.000001
vn 0.689173 0.724597 0.000000
vn 0.871979 0.489456 -0.009231
vn 0.689173 0.724597 0.000000
vn 0.689173 0.724597 0.000000
vn 0.871979 0.489456 -0.009231
vn 0.377553 0.371939 -0.848006
vn 0.356611 0.399509 -0.844524
vn 0.356611 0.399509 -0.844524
vn 0.356611 0.399509 -0.844524
vn 0.286010 0.551874 -0.783348
vn 0.286010 0.551874 -0.783348
vn 0.356611 0.399509 -0.844524
vn 0.196626 0.771446 -0.605153
vn 0.157969 0.859462 -0.486180
vn 0.196626 0.771446 -0.605153
vn 0.286010 0.551874 -0.783348
vn 0.196626 0.771446 -0.605153
vn 0.196626 0.771446 -0.605153
vn 0.286010 0.551874 -0.783348
vn -0.749339 0.363225 0.553677
vn -0.756104 0.345253 0.555974
vn -0.756104 0.345253 0.555974
vn -0.756104 0.345253 0.555974
vn -0.711543 0.473654 0.518998
vn -0.711543 0.473654 0.518998
vn -0.756104 0.345253 0.555974
vn -0.465705 0.817701 0.338354
vn -0.246461 0.952467 0.179064
vn -0.465705 0.817701 0.338354
vn -0.711543 0.473654 0.518998
vn -0.465705 0.817701 0.338354
vn -0.465705 0.817701 0.338354
vn -0.711543 0.473654 0.518998
vn -0.758955 0.392766 -0.519348
vn -0.732061 0.450899 -0.510664
vn -0.732061 0.450899 -0.510664
vn -0.732061 0.450899 -0.510664
vn -0.636615 0.620931 -0.457346
vn -0.636615 0.620931 -0.457346
vn -0.732061 0.450899 -0.510664
vn -0.360726 0.895092 -0.262083
vn -0.130089 0.986987 -0.094515
vn -0.360726 0.895092 -0.262083
vn -0.636615 0.620931 -0.457346
vn -0.360726 0.895092 -0.262083
vn -0.360726 0.895092 -0.262083
vn -0.636615 0.620931 -0.457346
s off
g polySurface3
usemtl lambert2SG
f 1/1/1 2/2/2 3/3/3
f 3/3/4 2/2/5 4/4/6 5/5/7
f 4/4/8 6/6/9 5/5/10
f 7/7/11 8/8/12 9/9/13
f 9/9/14 8/8/15 10/10/16 11/11/17
f 10/10/18 12/12/19 11/11/20
f 13/13/21 14/14/22 15/15/23
f 15/15/24 14/14/25 16/16/26 17/17/27
f 16/16/28 18/18/29 17/17/30
f 19/19/31 20/20/32 21/21/33
f 20/20/34 22/22/35 23/23/36 21/21/37
f 24/24/38 25/25/39 26/26/40
f 22/22/41 24/24/42 26/26/43 23/23/44
f 19/27/45 21/28/46 27/29/47
f 21/28/48 28/30/49 29/31/50 27/29/51
f 30/32/52 31/33/53 32/34/54
f 28/30/55 30/32/56 32/34/57 29/31/58
f 19/35/59 27/36/60 33/37/61
f 27/36/62 34/38/63 35/39/64 33/37/65
f 36/40/66 37/41/67 38/42/68
f 34/38/69 36/40/70 38/42/71 35/39/72
f 19/43/73 39/44/74 20/45/75
f 39/44/76 40/46/77 41/47/78 20/45/79
f 42/48/80 43/49/81 44/50/82
f 40/46/83 42/48/84 44/50/85 41/47/86
f 19/51/87 33/52/88 39/53/89
f 33/52/90 45/54/91 46/55/92 39/53/93
f 47/56/94 48/57/95 49/58/96
f 45/54/97 47/56/98 49/58/99 46/55/100
