# This file uses centimeters as units for non-parametric coordinates.

mtllib house_02.mtl
g default
v 3.828773 12.490369 -3.828771
v 0.847045 12.490369 -5.348037
v -2.458220 12.490366 -4.824533
v -4.824534 12.490369 -2.458222
v -5.348035 12.490369 0.847046
v -3.828771 12.490369 3.828772
v -0.847043 12.490369 5.348037
v 2.458222 12.490369 4.824533
v 4.824533 12.490369 2.458223
v 5.348035 12.490369 -0.847045
v 0.000001 18.055233 0.000000
v -3.430192 15.637873 1.747771
v -2.722217 15.637873 -2.722216
v 1.747773 15.637873 -3.430192
v 3.802398 15.637873 0.602241
v 0.602241 15.637873 3.802398
v 2.657769 0.390670 -1.963386
v -0.044602 0.390670 -3.176826
v -3.065944 0.390670 -0.981692
v -1.911891 0.390670 2.570108
v 0.987615 0.390670 3.176828
v 2.976743 0.390670 0.981694
v 2.657769 12.735647 -1.963386
v -0.044602 12.735647 -3.176826
v -3.065944 12.735647 -0.981692
v -1.911891 12.735647 2.570108
v 0.987615 12.735647 3.176828
v 2.976743 12.735647 0.981694
v -2.297545 5.888300 3.100910
v -3.689940 5.888300 -1.184441
v -0.044602 5.888300 -3.832935
v 3.215888 5.888300 -2.368884
v 3.600739 5.888300 1.184443
v 1.200797 5.888300 3.832937
vt 0.006248 0.828460
vt 0.045569 0.751276
vt 0.113469 0.790852
vt 0.078421 0.861675
vt 0.122754 0.711939
vt 0.208321 0.725495
vt 0.191656 0.802302
vt 0.269570 0.786755
vt 0.283119 0.872310
vt 0.204927 0.880200
vt 0.243797 0.949494
vt 0.166612 0.988832
vt 0.134944 0.916896
vt 0.081045 0.975274
vt 0.019797 0.914015
vt 0.144683 0.850385
vt 0.334328 0.379981
vt 0.377216 0.379981
vt 0.377216 0.441587
vt 0.334328 0.441587
vt 0.434400 0.379981
vt 0.434400 0.441587
vt 0.491585 0.379981
vt 0.491585 0.441587
vt 0.534473 0.379981
vt 0.534473 0.441587
vt 0.577361 0.379981
vt 0.577361 0.441587
vt 0.620249 0.379981
vt 0.620249 0.441587
vt 0.491585 0.520280
vt 0.434400 0.520280
vt 0.377216 0.520280
vt 0.334328 0.520280
vt 0.620249 0.520280
vt 0.577361 0.520280
vt 0.534473 0.520280
vn 0.867054 0.482659 -0.123523
vn 0.609574 0.482660 -0.628855
vn 0.332355 0.681224 -0.652283
vn 0.723062 0.681224 0.114522
vn 0.150456 0.482659 -0.862788
vn -0.409708 0.482659 -0.774067
vn -0.517655 0.681224 -0.517655
vn -0.774066 0.482660 -0.409709
vn -0.862788 0.482660 0.150456
vn -0.652284 0.681224 0.332355
vn -0.628856 0.482659 0.609574
vn -0.123524 0.482659 0.867053
vn 0.114522 0.681224 0.723062
vn 0.385412 0.482659 0.786446
vn 0.786446 0.482659 0.385412
vn -0.000000 1.000000 0.000000
vn 0.407221 -0.108232 -0.906894
vn 0.407221 -0.108232 -0.906894
vn 0.407221 -0.108232 -0.906894
vn 0.407221 -0.108232 -0.906894
vn -0.585065 -0.096105 -0.805272
vn -0.585065 -0.096105 -0.805272
vn -0.585065 -0.096105 -0.805272
vn -0.585065 -0.096105 -0.805272
vn -0.946654 -0.096105 0.307587
vn -0.946654 -0.096105 0.307587
vn -0.946654 -0.096105 0.307587
vn -0.946654 -0.096105 0.307587
vn -0.203610 -0.108232 0.973051
vn -0.203610 -0.108232 0.973051
vn -0.203610 -0.108232 0.973051
vn -0.203610 -0.108232 0.973051
vn 0.736669 -0.108232 0.667536
vn 0.736669 -0.108232 0.667536
vn 0.736669 -0.108232 0.667536
vn 0.736669 -0.108232 0.667536
vn 0.988346 -0.108232 -0.107045
vn 0.988346 -0.108232 -0.107045
vn 0.988346 -0.108232 -0.107045
vn 0.988346 -0.108232 -0.107045
vn -0.948212 0.077288 0.308093
vn -0.948212 0.077288 0.308093
vn -0.948212 0.077288 0.308093
vn -0.948212 0.077288 0.308093
vn -0.586027 0.077288 -0.806597
vn -0.586027 0.077288 -0.806597
vn -0.586027 0.077288 -0.806597
vn -0.586027 0.077288 -0.806597
vn 0.408071 0.087080 -0.908788
vn 0.408071 0.087080 -0.908788
vn 0.408071 0.087080 -0.908788
vn 0.408071 0.087080 -0.908788
vn 0.990409 0.087079 -0.107269
vn 0.990409 0.087079 -0.107269
vn 0.990409 0.087079 -0.107269
vn 0.990409 0.087079 -0.107269
vn 0.738208 0.087080 0.668930
vn 0.738208 0.087080 0.668930
vn 0.738208 0.087080 0.668930
vn 0.738208 0.087080 0.668930
vn -0.204036 0.087080 0.975083
vn -0.204036 0.087080 0.975083
vn -0.204036 0.087080 0.975083
vn -0.204036 0.087080 0.975083
s 1
g polySurface64
usemtl lambert8SG
f 10/1/1 1/2/2 14/3/3 15/4/4
f 1/2/2 2/5/5 14/3/3
f 2/5/5 3/6/6 13/7/7 14/3/3
f 3/6/6 4/8/8 13/7/7
f 4/8/8 5/9/9 12/10/10 13/7/7
f 5/9/9 6/11/11 12/10/10
f 6/11/11 7/12/12 16/13/13 12/10/10
f 7/12/12 8/14/14 16/13/13
f 8/14/14 9/15/15 15/4/4 16/13/13
f 9/15/15 10/1/1 15/4/4
f 12/10/10 16/13/13 11/16/16
f 13/7/7 12/10/10 11/16/16
f 14/3/3 13/7/7 11/16/16
f 15/4/4 14/3/3 11/16/16
f 16/13/13 15/4/4 11/16/16
s off
f 17/17/17 18/18/18 31/19/19 32/20/20
f 18/18/21 19/21/22 30/22/23 31/19/24
f 19/21/25 20/23/26 29/24/27 30/22/28
f 20/23/29 21/25/30 34/26/31 29/24/32
f 21/25/33 22/27/34 33/28/35 34/26/36
f 22/27/37 17/29/38 32/30/39 33/28/40
f 30/22/41 29/24/42 26/31/43 25/32/44
f 31/19/45 30/22/46 25/32/47 24/33/48
f 32/20/49 31/19/50 24/33/51 23/34/52
f 33/28/53 32/30/54 23/35/55 28/36/56
f 34/26/57 33/28/58 28/36/59 27/37/60
f 29/24/61 34/26/62 27/37/63 26/31/64
