# This file uses centimeters as units for non-parametric coordinates.

g default
v 6.903367 -0.185155 -5.101496
v 2.564221 -0.185156 -8.254066
v -2.799261 -0.185155 -8.254066
v -7.138407 -0.185155 -5.101496
v -8.795815 -0.185155 -0.000523
v -7.138407 -0.185155 5.100451
v -2.799261 -0.185155 8.253025
v 2.564221 -0.185155 8.253025
v 6.903369 -0.185155 5.100451
v 8.560775 -0.185155 -0.000523
v 3.593186 24.771355 -2.696508
v -0.117519 24.771355 -4.362719
v -4.266215 24.771355 -1.348516
v -2.681556 24.771358 3.528572
v 1.299844 24.771355 4.361677
v 4.031179 24.771355 1.347471
v -2.042803 10.462185 5.924885
v -5.157973 10.462185 3.661577
v -6.347861 10.462185 -0.000523
v -5.157970 10.462184 -3.662624
v -2.042803 10.462184 -5.925930
v 1.807760 10.462184 -5.925930
v 4.922933 10.462184 -3.662624
v 6.112824 10.462185 -0.000523
v 4.922933 10.462184 3.661577
v 1.807763 10.462184 5.924885
v 4.739360 25.675934 4.140142
v 3.679913 26.029440 4.344176
v 3.424432 25.769897 5.419533
v 4.325984 25.255989 5.880102
v 5.138653 25.197914 5.089397
v 6.584709 29.910175 5.152700
v 5.036043 30.426916 5.450952
v 4.662589 30.047531 7.022872
v 5.980448 29.296310 7.696122
v 7.168384 29.211424 6.540291
v 6.791069 29.913349 4.623121
v 4.609453 30.641281 5.043270
v 4.083365 30.106833 7.257646
v 5.939842 29.048592 8.206056
v 7.613294 28.929010 6.577828
v 6.264829 30.876028 6.727387
v -2.832704 28.242970 1.937237
v -4.739494 28.055342 2.291742
v -4.970435 27.762785 4.204281
v -3.206372 27.769606 5.031789
v -1.885183 28.066374 3.630678
v -2.888005 32.600758 1.855539
v -5.675294 32.326492 2.373745
v -6.012875 31.898842 5.169435
v -3.434222 31.908808 6.379060
v -1.502948 32.342617 4.330959
v -2.561672 32.679340 0.947460
v -6.488140 32.292976 1.677458
v -6.963694 31.690544 5.615766
v -3.331134 31.704584 7.319772
v -0.610535 32.315697 4.434599
v -4.172422 34.671127 4.364802
v 5.870403 23.754429 -5.919493
v 1.260897 23.754429 -8.268160
v -3.848779 23.754421 -7.458855
v -7.506906 23.754429 -3.800735
v -8.316201 23.754435 1.308935
v -5.967538 23.754429 5.918446
v -1.358033 23.754429 8.267106
v 3.751644 23.754429 7.457814
v 7.409768 23.754429 3.799688
v 8.219062 23.754429 -1.309986
v -0.048569 32.357265 -0.000523
v -1.266690 26.783890 7.690397
v -5.554657 26.783890 5.505565
v -7.739488 26.783895 1.217596
v -6.986648 26.783884 -3.535650
v -3.583694 26.783880 -6.938600
v 1.169554 26.783884 -7.691441
v 5.457524 26.783890 -5.506615
v 7.642352 26.783890 -1.218643
v 6.889510 26.783890 3.534603
v 3.486558 26.783890 6.937555
v -4.055661 30.456543 2.041191
v -3.228614 30.456537 -3.180569
v 1.993147 30.456543 -4.007612
v 4.393327 30.456543 0.703003
v 0.654958 30.456543 4.441374
vt 0.333953 0.002806
vt 0.380300 0.002806
vt 0.380300 0.136749
vt 0.333953 0.136749
vt 0.426647 0.002806
vt 0.426647 0.136749
vt 0.472994 0.002806
vt 0.472994 0.136749
vt 0.519342 0.002806
vt 0.519342 0.136749
vt 0.565689 0.002806
vt 0.565689 0.136749
vt 0.612036 0.002806
vt 0.612036 0.136749
vt 0.658383 0.002806
vt 0.658383 0.136749
vt 0.704731 0.002806
vt 0.704731 0.136749
vt 0.751078 0.002806
vt 0.751078 0.136749
vt 0.797425 0.002806
vt 0.797425 0.136749
vt 0.588863 0.351400
vt 0.496168 0.351400
vt 0.403473 0.351400
vt 0.333953 0.351400
vt 0.797425 0.351400
vt 0.727904 0.351400
vt 0.658383 0.351400
vt 0.629305 0.380107
vt 0.662074 0.380107
vt 0.662074 0.497301
vt 0.629305 0.497301
vt 0.694842 0.380107
vt 0.694842 0.497301
vt 0.727611 0.380107
vt 0.727611 0.497301
vt 0.760379 0.380107
vt 0.760379 0.497301
vt 0.793148 0.380107
vt 0.793148 0.497301
vt 0.389431 0.902085
vt 0.389431 0.970348
vt 0.342453 0.936216
vt 0.324509 0.991442
vt 0.284385 0.936216
vt 0.324509 0.880990
vt 0.629305 0.380107
vt 0.662074 0.380107
vt 0.662074 0.497301
vt 0.629305 0.497301
vt 0.694842 0.380107
vt 0.694842 0.497301
vt 0.727611 0.380107
vt 0.727611 0.497301
vt 0.760379 0.380107
vt 0.760379 0.497301
vt 0.793148 0.380107
vt 0.793148 0.497301
vt 0.389431 0.902085
vt 0.389431 0.970348
vt 0.342453 0.936216
vt 0.324509 0.991442
vt 0.284385 0.936216
vt 0.324509 0.880990
vt 0.005943 0.828412
vt 0.045351 0.751057
vt 0.076455 0.782941
vt 0.049845 0.835925
vt 0.122706 0.711633
vt 0.129128 0.755715
vt 0.208462 0.725220
vt 0.187744 0.764654
vt 0.269845 0.786614
vt 0.229909 0.806338
vt 0.283424 0.872358
vt 0.239522 0.864844
vt 0.244016 0.949713
vt 0.212912 0.917829
vt 0.166661 0.989137
vt 0.160239 0.945055
vt 0.080905 0.975550
vt 0.101623 0.936116
vt 0.019521 0.914155
vt 0.059457 0.894432
vt 0.138914 0.893499
vt 0.183903 0.869195
vt 0.174692 0.818897
vt 0.124010 0.812114
vt 0.101898 0.858221
vt 0.144683 0.850385
vn 0.574218 0.213612 -0.790344
vn 0.574218 0.213612 -0.790344
vn 0.574218 0.213612 -0.790344
vn 0.574218 0.213612 -0.790344
vn -0.000001 0.213612 -0.976919
vn -0.000001 0.213612 -0.976919
vn -0.000001 0.213612 -0.976919
vn -0.000001 0.213612 -0.976919
vn -0.574218 0.213612 -0.790344
vn -0.574218 0.213612 -0.790344
vn -0.574218 0.213612 -0.790344
vn -0.574218 0.213612 -0.790344
vn -0.929105 0.213613 -0.301885
vn -0.929105 0.213613 -0.301885
vn -0.929105 0.213613 -0.301885
vn -0.929105 0.213613 -0.301885
vn -0.929105 0.213612 0.301885
vn -0.929105 0.213612 0.301885
vn -0.929105 0.213612 0.301885
vn -0.929105 0.213612 0.301885
vn -0.574219 0.213612 0.790343
vn -0.574219 0.213612 0.790343
vn -0.574219 0.213612 0.790343
vn -0.574219 0.213612 0.790343
vn 0.000000 0.213612 0.976919
vn 0.000000 0.213612 0.976919
vn 0.000000 0.213612 0.976919
vn 0.000000 0.213612 0.976919
vn 0.574219 0.213613 0.790344
vn 0.574219 0.213613 0.790344
vn 0.574219 0.213613 0.790344
vn 0.574219 0.213613 0.790344
vn 0.929105 0.213612 0.301885
vn 0.929105 0.213612 0.301885
vn 0.929105 0.213612 0.301885
vn 0.929105 0.213612 0.301885
vn 0.929105 0.213612 -0.301885
vn 0.929105 0.213612 -0.301885
vn 0.929105 0.213612 -0.301885
vn 0.929105 0.213612 -0.301885
vn -0.584309 0.108599 0.804232
vn -0.584309 0.108599 0.804232
vn -0.584309 0.108599 0.804232
vn -0.937995 0.165167 0.304772
vn -0.937995 0.165167 0.304772
vn -0.937995 0.165167 0.304772
vn -0.937995 0.165167 0.304772
vn -0.945431 0.108599 -0.307190
vn -0.945431 0.108599 -0.307190
vn -0.945431 0.108599 -0.307190
vn -0.579712 0.165167 -0.797906
vn -0.579712 0.165167 -0.797906
vn -0.579712 0.165167 -0.797906
vn -0.579712 0.165167 -0.797906
vn 0.000000 0.108599 -0.994086
vn 0.000000 0.108599 -0.994086
vn 0.000000 0.108599 -0.994086
vn 0.494536 0.132172 -0.859049
vn 0.494536 0.132172 -0.859049
vn 0.494536 0.132172 -0.859049
vn 0.494536 0.132172 -0.859049
vn 0.969824 0.132172 -0.204872
vn 0.969824 0.132172 -0.204872
vn 0.969824 0.132172 -0.204872
vn 0.969824 0.132172 -0.204872
vn 0.945432 0.108599 0.307190
vn 0.945432 0.108599 0.307190
vn 0.945432 0.108599 0.307190
vn 0.664184 0.132172 0.735793
vn 0.664184 0.132172 0.735793
vn 0.664184 0.132172 0.735793
vn 0.664184 0.132172 0.735793
vn -0.104847 0.132172 0.985666
vn -0.104847 0.132172 0.985666
vn -0.104847 0.132172 0.985666
vn -0.104847 0.132172 0.985666
vn -0.094354 0.270250 -0.958156
vn -0.094354 0.270250 -0.958156
vn -0.094354 0.270250 -0.958156
vn -0.094354 0.270250 -0.958156
vn -0.934893 0.324500 -0.143791
vn -0.934893 0.324500 -0.143791
vn -0.934893 0.324500 -0.143791
vn -0.934893 0.324500 -0.143791
vn -0.521030 -0.163208 0.837789
vn -0.521030 -0.163208 0.837789
vn -0.521030 -0.163208 0.837789
vn -0.521030 -0.163208 0.837789
vn 0.576495 -0.519535 0.630664
vn 0.576495 -0.519535 0.630664
vn 0.576495 -0.519535 0.630664
vn 0.576495 -0.519535 0.630664
vn 0.840394 -0.251442 -0.480120
vn 0.840394 -0.251442 -0.480120
vn 0.840394 -0.251442 -0.480120
vn 0.840394 -0.251442 -0.480120
vn -0.294075 0.942690 0.157658
vn -0.294075 0.942690 0.157658
vn -0.294075 0.942690 0.157658
vn -0.034871 0.632381 0.773872
vn -0.034871 0.632381 0.773872
vn -0.034871 0.632381 0.773872
vn 0.652879 0.402900 0.641420
vn 0.652879 0.402900 0.641420
vn 0.652879 0.402900 0.641420
vn 0.818725 0.571385 -0.056653
vn 0.818725 0.571385 -0.056653
vn 0.818725 0.571385 -0.056653
vn 0.233475 0.904993 -0.355637
vn 0.233475 0.904993 -0.355637
vn 0.233475 0.904993 -0.355637
vn -0.180775 -0.020729 -0.983306
vn -0.180775 -0.020729 -0.983306
vn -0.180775 -0.020729 -0.983306
vn -0.180775 -0.020729 -0.983306
vn -0.966566 -0.208918 -0.148671
vn -0.966566 -0.208918 -0.148671
vn -0.966566 -0.208918 -0.148671
vn -0.966566 -0.208918 -0.148671
vn -0.403738 -0.303181 0.863178
vn -0.403738 -0.303181 0.863178
vn -0.403738 -0.303181 0.863178
vn -0.403738 -0.303181 0.863178
vn 0.734608 -0.173097 0.656041
vn 0.734608 -0.173097 0.656041
vn 0.734608 -0.173097 0.656041
vn 0.734608 -0.173097 0.656041
vn 0.872767 0.001924 -0.488134
vn 0.872767 0.001924 -0.488134
vn 0.872767 0.001924 -0.488134
vn 0.872767 0.001924 -0.488134
vn -0.726129 0.687337 0.017459
vn -0.726129 0.687337 0.017459
vn -0.726129 0.687337 0.017459
vn -0.336893 0.614792 0.713115
vn -0.336893 0.614792 0.713115
vn -0.336893 0.614792 0.713115
vn 0.446404 0.691869 0.567486
vn 0.446404 0.691869 0.567486
vn 0.446404 0.691869 0.567486
vn 0.541273 0.812050 -0.218173
vn 0.541273 0.812050 -0.218173
vn 0.541273 0.812050 -0.218173
vn -0.183392 0.809248 -0.558108
vn -0.183392 0.809248 -0.558108
vn -0.183392 0.809248 -0.558108
vn 0.969839 0.189257 -0.153607
vn 0.694328 0.189258 -0.694327
vn 0.622912 0.459562 -0.633075
vn 0.878307 0.459562 -0.131834
vn 0.153607 0.189258 -0.969838
vn 0.146029 0.459562 -0.876058
vn -0.445786 0.189257 -0.874904
vn -0.409600 0.459562 -0.788055
vn -0.874903 0.189258 -0.445786
vn -0.788054 0.459562 -0.409601
vn -0.969838 0.189258 0.153607
vn -0.876058 0.459562 0.146030
vn -0.694328 0.189257 0.694328
vn -0.633075 0.459562 0.622912
vn -0.153607 0.189257 0.969838
vn -0.131834 0.459562 0.878307
vn 0.445786 0.189257 0.874904
vn 0.396793 0.459562 0.794580
vn 0.874904 0.189257 0.445786
vn 0.794580 0.459562 0.396793
vn 0.089365 0.820769 0.564227
vn -0.508997 0.820769 0.259346
vn -0.403942 0.820769 -0.403943
vn 0.259346 0.820769 -0.508996
vn 0.564227 0.820769 0.089365
vn -0.000000 1.000000 -0.000001
s off
g polySurface67
f 1/1/1 2/2/2 22/3/3 23/4/4
f 2/2/5 3/5/6 21/6/7 22/3/8
f 3/5/9 4/7/10 20/8/11 21/6/12
f 4/7/13 5/9/14 19/10/15 20/8/16
f 5/9/17 6/11/18 18/12/19 19/10/20
f 6/11/21 7/13/22 17/14/23 18/12/24
f 7/13/25 8/15/26 26/16/27 17/14/28
f 8/15/29 9/17/30 25/18/31 26/16/32
f 9/17/33 10/19/34 24/20/35 25/18/36
f 10/19/37 1/21/38 23/22/39 24/20/40
f 18/12/41 17/14/42 14/23/43
f 19/10/44 18/12/45 14/23/46 13/24/47
f 20/8/48 19/10/49 13/24/50
f 21/6/51 20/8/52 13/24/53 12/25/54
f 22/3/55 21/6/56 12/25/57
f 23/4/58 22/3/59 12/25/60 11/26/61
f 24/20/62 23/22/63 11/27/64 16/28/65
f 25/18/66 24/20/67 16/28/68
f 26/16/69 25/18/70 16/28/71 15/29/72
f 17/14/73 26/16/74 15/29/75 14/23/76
f 27/30/77 28/31/78 33/32/79 32/33/80
f 28/31/81 29/34/82 34/35/83 33/32/84
f 29/34/85 30/36/86 35/37/87 34/35/88
f 30/36/89 31/38/90 36/39/91 35/37/92
f 31/38/93 27/40/94 32/41/95 36/39/96
f 38/42/97 39/43/98 42/44/99
f 39/43/100 40/45/101 42/44/102
f 40/45/103 41/46/104 42/44/105
f 41/46/106 37/47/107 42/44/108
f 37/47/109 38/42/110 42/44/111
f 43/48/112 44/49/113 49/50/114 48/51/115
f 44/49/116 45/52/117 50/53/118 49/50/119
f 45/52/120 46/54/121 51/55/122 50/53/123
f 46/54/124 47/56/125 52/57/126 51/55/127
f 47/56/128 43/58/129 48/59/130 52/57/131
f 54/60/132 55/61/133 58/62/134
f 55/61/135 56/63/136 58/62/137
f 56/63/138 57/64/139 58/62/140
f 57/64/141 53/65/142 58/62/143
f 53/65/144 54/60/145 58/62/146
s 1
f 68/66/147 59/67/148 76/68/149 77/69/150
f 59/67/148 60/70/151 75/71/152 76/68/149
f 60/70/151 61/72/153 74/73/154 75/71/152
f 61/72/153 62/74/155 73/75/156 74/73/154
f 62/74/155 63/76/157 72/77/158 73/75/156
f 63/76/157 64/78/159 71/79/160 72/77/158
f 64/78/159 65/80/161 70/81/162 71/79/160
f 65/80/161 66/82/163 79/83/164 70/81/162
f 66/82/163 67/84/165 78/85/166 79/83/164
f 67/84/165 68/66/147 77/69/150 78/85/166
f 71/79/160 70/81/162 84/86/167 80/87/168
f 72/77/158 71/79/160 80/87/168
f 73/75/156 72/77/158 80/87/168 81/88/169
f 74/73/154 73/75/156 81/88/169
f 75/71/152 74/73/154 81/88/169 82/89/170
f 76/68/149 75/71/152 82/89/170
f 77/69/150 76/68/149 82/89/170 83/90/171
f 78/85/166 77/69/150 83/90/171
f 79/83/164 78/85/166 83/90/171 84/86/167
f 70/81/162 79/83/164 84/86/167
f 80/87/168 84/86/167 69/91/172
f 81/88/169 80/87/168 69/91/172
f 82/89/170 81/88/169 69/91/172
f 83/90/171 82/89/170 69/91/172
f 84/86/167 83/90/171 69/91/172
