# This file uses centimeters as units for non-parametric coordinates.

g default
v 0.954890 -0.415207 7.121846
v 4.973109 -0.415207 5.367524
v 7.192750 -0.415207 1.586397
v 6.765987 -0.415207 -2.777272
v 3.855830 -0.415207 -6.056711
v -0.426144 -0.415207 -6.999282
v -4.444362 -0.415207 -5.244960
v -6.664006 -0.415207 -1.463833
v -6.237240 -0.415207 2.899836
v -3.327084 -0.415207 6.179275
v 0.762295 8.259083 5.152558
v 4.460053 8.259083 2.524281
v 3.903359 8.259083 -3.167940
v -1.682290 8.259083 -4.397485
v -4.731587 8.259083 -1.038457
v -3.374615 8.259083 3.290504
v -3.495947 5.971874 -4.176196
v -0.287063 5.971874 -5.577170
v 3.132452 5.971874 -4.824448
v 5.456456 5.971874 -2.205541
v 5.797262 5.971874 1.279213
v 4.024693 5.971874 4.298760
v 0.815808 5.971874 5.699733
v -2.603706 5.971874 4.947012
v -4.927710 5.971874 2.328105
v -5.268517 5.971874 -1.156650
v -0.390648 9.059610 1.285292
v -2.187437 9.059610 1.869104
v -2.187437 9.059610 3.758358
v -0.390648 9.059610 4.342169
v 0.719827 9.059610 2.813731
v -0.232191 13.257073 0.579505
v -2.858681 13.257073 1.432904
v -2.858681 13.257073 4.194558
v -0.232191 13.257073 5.047956
v 1.391070 13.257073 2.813731
v -0.027176 13.183899 -0.333637
v -3.727130 13.183899 0.868550
v -3.727130 13.183899 4.758911
v -0.027178 13.183899 5.961098
v 2.259518 13.183899 2.813731
v -1.049818 15.015998 2.813731
v 4.789371 7.623311 -4.787613
v 1.013206 7.623311 -6.711666
v -3.172706 7.623311 -6.048681
v -6.169491 7.623311 -3.051900
v -6.832472 7.623313 1.134011
v -4.908419 7.623313 4.910176
v -1.132255 7.623311 6.834227
v 3.053657 7.623311 6.171244
v 6.050437 7.623311 3.174463
v 6.713422 7.623311 -1.011447
v -0.059526 12.269830 0.061282
v -1.057426 9.259569 6.361780
v -4.570185 9.259572 4.571941
v -6.360026 9.259572 1.059183
v -5.743289 9.259570 -2.834740
v -2.955546 9.259570 -5.622480
v 0.938376 9.259570 -6.239217
v 4.451135 9.259570 -4.449378
v 6.240974 9.259570 -0.936619
v 5.624236 9.259570 2.957303
v 2.836497 9.259570 5.745043
v -3.342186 11.243229 1.733881
v -2.664659 11.243228 -2.543852
v 1.613073 11.243229 -3.221379
v 3.579331 11.243229 0.637620
v 0.516813 11.243229 3.700138
vt 0.804783 0.497553
vt 0.804783 0.448044
vt 0.941840 0.448044
vt 0.941840 0.497553
vt 0.804783 0.398535
vt 0.941840 0.398535
vt 0.804783 0.349026
vt 0.941840 0.349026
vt 0.804783 0.299517
vt 0.941840 0.299517
vt 0.804783 0.250008
vt 0.941840 0.250008
vt 0.804782 0.200499
vt 0.941840 0.200499
vt 0.804782 0.150990
vt 0.941840 0.150990
vt 0.804782 0.101481
vt 0.941840 0.101481
vt 0.804782 0.051972
vt 0.941840 0.051972
vt 0.804782 0.001547
vt 0.941840 0.001547
vt 0.997114 0.225254
vt 0.997114 0.324272
vt 0.997114 0.423290
vt 0.997114 0.497553
vt 0.997114 0.001547
vt 0.997114 0.076726
vt 0.997114 0.150990
vt 0.629305 0.380107
vt 0.662074 0.380107
vt 0.662074 0.497301
vt 0.629305 0.497301
vt 0.694842 0.380107
vt 0.694842 0.497301
vt 0.727611 0.380107
vt 0.727611 0.497301
vt 0.760379 0.380107
vt 0.760379 0.497301
vt 0.793148 0.380107
vt 0.793148 0.497301
vt 0.389431 0.902085
vt 0.389431 0.970348
vt 0.342453 0.936216
vt 0.324509 0.991442
vt 0.284385 0.936216
vt 0.324509 0.880990
vt 0.005943 0.828412
vt 0.045351 0.751057
vt 0.076455 0.782941
vt 0.049845 0.835925
vt 0.122706 0.711633
vt 0.129128 0.755715
vt 0.208462 0.725220
vt 0.187744 0.764654
vt 0.269845 0.786614
vt 0.229909 0.806338
vt 0.283424 0.872358
vt 0.239522 0.864844
vt 0.244016 0.949713
vt 0.212912 0.917829
vt 0.166661 0.989137
vt 0.160239 0.945055
vt 0.080905 0.975550
vt 0.101623 0.936116
vt 0.019521 0.914155
vt 0.059457 0.894432
vt 0.138914 0.893499
vt 0.183903 0.869195
vt 0.174692 0.818897
vt 0.124010 0.812114
vt 0.101898 0.858221
vt 0.144683 0.850385
vn 0.391360 0.208109 0.896397
vn 0.391360 0.208109 0.896397
vn 0.391360 0.208109 0.896397
vn 0.391360 0.208109 0.896397
vn 0.843506 0.208109 0.495165
vn 0.843506 0.208109 0.495165
vn 0.843506 0.208109 0.495165
vn 0.843506 0.208109 0.495165
vn 0.973461 0.208109 -0.095204
vn 0.973461 0.208109 -0.095204
vn 0.973461 0.208109 -0.095204
vn 0.973461 0.208109 -0.095204
vn 0.731588 0.208109 -0.649207
vn 0.731588 0.208109 -0.649207
vn 0.731588 0.208109 -0.649207
vn 0.731588 0.208109 -0.649207
vn 0.210272 0.208109 -0.955236
vn 0.210272 0.208109 -0.955236
vn 0.210272 0.208109 -0.955236
vn 0.210272 0.208109 -0.955236
vn -0.391360 0.208109 -0.896397
vn -0.391360 0.208109 -0.896397
vn -0.391360 0.208109 -0.896397
vn -0.391360 0.208109 -0.896397
vn -0.843506 0.208109 -0.495165
vn -0.843506 0.208109 -0.495165
vn -0.843506 0.208109 -0.495165
vn -0.843506 0.208109 -0.495165
vn -0.973461 0.208109 0.095204
vn -0.973461 0.208109 0.095204
vn -0.973461 0.208109 0.095204
vn -0.973461 0.208109 0.095204
vn -0.731588 0.208109 0.649207
vn -0.731588 0.208109 0.649207
vn -0.731588 0.208109 0.649207
vn -0.731588 0.208109 0.649207
vn -0.210272 0.208109 0.955236
vn -0.210272 0.208109 0.955236
vn -0.210272 0.208109 0.955236
vn -0.210272 0.208109 0.955236
vn -0.390057 0.222860 -0.893414
vn -0.390057 0.222860 -0.893414
vn -0.390057 0.222860 -0.893414
vn 0.181493 0.535969 -0.824498
vn 0.181493 0.535969 -0.824498
vn 0.181493 0.535969 -0.824498
vn 0.181493 0.535969 -0.824498
vn 0.729153 0.222861 -0.647046
vn 0.729153 0.222861 -0.647046
vn 0.729153 0.222861 -0.647046
vn 0.840229 0.535969 -0.082174
vn 0.840229 0.535969 -0.082174
vn 0.840229 0.535969 -0.082174
vn 0.840229 0.535969 -0.082174
vn 0.840699 0.222861 0.493517
vn 0.840699 0.222861 0.493517
vn 0.840699 0.222861 0.493517
vn 0.468457 0.368440 0.802995
vn 0.468457 0.368440 0.802995
vn 0.468457 0.368440 0.802995
vn 0.468457 0.368440 0.802995
vn -0.304004 0.368440 0.878541
vn -0.304004 0.368440 0.878541
vn -0.304004 0.368440 0.878541
vn -0.304004 0.368440 0.878541
vn -0.729153 0.222859 0.647047
vn -0.729153 0.222859 0.647047
vn -0.729153 0.222859 0.647047
vn -0.908455 0.368439 0.197391
vn -0.908455 0.368439 0.197391
vn -0.908455 0.368439 0.197391
vn -0.908455 0.368439 0.197391
vn -0.741599 0.368440 -0.560610
vn -0.741599 0.368440 -0.560610
vn -0.741599 0.368440 -0.560610
vn -0.741599 0.368440 -0.560610
vn -0.305676 -0.146648 -0.940774
vn -0.305676 -0.146648 -0.940774
vn -0.305676 -0.146648 -0.940774
vn -0.305676 -0.146648 -0.940774
vn -0.987454 -0.157910 0.000000
vn -0.987454 -0.157910 0.000000
vn -0.987454 -0.157910 0.000000
vn -0.987454 -0.157910 0.000000
vn -0.305676 -0.146648 0.940775
vn -0.305676 -0.146648 0.940775
vn -0.305676 -0.146648 0.940775
vn -0.305676 -0.146648 0.940775
vn 0.802330 -0.128306 0.582927
vn 0.802330 -0.128306 0.582927
vn 0.802330 -0.128306 0.582927
vn 0.802330 -0.128306 0.582927
vn 0.802330 -0.128306 -0.582927
vn 0.802330 -0.128306 -0.582927
vn 0.802330 -0.128306 -0.582927
vn 0.802330 -0.128306 -0.582927
vn -0.564738 0.825271 0.000000
vn -0.564738 0.825271 0.000000
vn -0.564738 0.825271 0.000000
vn -0.174513 0.825271 0.537097
vn -0.174513 0.825271 0.537097
vn -0.174513 0.825271 0.537097
vn 0.456882 0.825271 0.331945
vn 0.456882 0.825271 0.331945
vn 0.456882 0.825271 0.331945
vn 0.456883 0.825270 -0.331944
vn 0.456883 0.825270 -0.331944
vn 0.456883 0.825270 -0.331944
vn -0.174513 0.825270 -0.537098
vn -0.174513 0.825270 -0.537098
vn -0.174513 0.825270 -0.537098
vn 0.948010 0.280592 -0.150150
vn 0.678700 0.280592 -0.678700
vn 0.566267 0.587458 -0.578130
vn 0.800561 0.587458 -0.118303
vn 0.150150 0.280592 -0.948010
vn 0.134874 0.587458 -0.797937
vn -0.435752 0.280592 -0.855212
vn -0.374849 0.587457 -0.717205
vn -0.855212 0.280592 -0.435753
vn -0.717204 0.587458 -0.374849
vn -0.948010 0.280591 0.150150
vn -0.797937 0.587457 0.134874
vn -0.678700 0.280591 0.678701
vn -0.578131 0.587457 0.566268
vn -0.150150 0.280592 0.948010
vn -0.118303 0.587457 0.800561
vn 0.435752 0.280592 0.855212
vn 0.359900 0.587457 0.724821
vn 0.855212 0.280592 0.435753
vn 0.724821 0.587457 0.359900
vn 0.066565 0.904952 0.420276
vn -0.379136 0.904952 0.193180
vn -0.300884 0.904952 -0.300884
vn 0.193179 0.904952 -0.379136
vn 0.420276 0.904952 0.066565
vn -0.000000 1.000000 -0.000000
s off
g polySurface66
f 1/1/1 2/2/2 22/3/3 23/4/4
f 2/2/5 3/5/6 21/6/7 22/3/8
f 3/5/9 4/7/10 20/8/11 21/6/12
f 4/7/13 5/9/14 19/10/15 20/8/16
f 5/9/17 6/11/18 18/12/19 19/10/20
f 6/11/21 7/13/22 17/14/23 18/12/24
f 7/13/25 8/15/26 26/16/27 17/14/28
f 8/15/29 9/17/30 25/18/31 26/16/32
f 9/17/33 10/19/34 24/20/35 25/18/36
f 10/19/37 1/21/38 23/22/39 24/20/40
f 18/12/41 17/14/42 14/23/43
f 19/10/44 18/12/45 14/23/46 13/24/47
f 20/8/48 19/10/49 13/24/50
f 21/6/51 20/8/52 13/24/53 12/25/54
f 22/3/55 21/6/56 12/25/57
f 23/4/58 22/3/59 12/25/60 11/26/61
f 24/20/62 23/22/63 11/27/64 16/28/65
f 25/18/66 24/20/67 16/28/68
f 26/16/69 25/18/70 16/28/71 15/29/72
f 17/14/73 26/16/74 15/29/75 14/23/76
f 27/30/77 28/31/78 33/32/79 32/33/80
f 28/31/81 29/34/82 34/35/83 33/32/84
f 29/34/85 30/36/86 35/37/87 34/35/88
f 30/36/89 31/38/90 36/39/91 35/37/92
f 31/38/93 27/40/94 32/41/95 36/39/96
f 38/42/97 39/43/98 42/44/99
f 39/43/100 40/45/101 42/44/102
f 40/45/103 41/46/104 42/44/105
f 41/46/106 37/47/107 42/44/108
f 37/47/109 38/42/110 42/44/111
s 1
f 52/48/112 43/49/113 60/50/114 61/51/115
f 43/49/113 44/52/116 59/53/117 60/50/114
f 44/52/116 45/54/118 58/55/119 59/53/117
f 45/54/118 46/56/120 57/57/121 58/55/119
f 46/56/120 47/58/122 56/59/123 57/57/121
f 47/58/122 48/60/124 55/61/125 56/59/123
f 48/60/124 49/62/126 54/63/127 55/61/125
f 49/62/126 50/64/128 63/65/129 54/63/127
f 50/64/128 51/66/130 62/67/131 63/65/129
f 51/66/130 52/48/112 61/51/115 62/67/131
f 55/61/125 54/63/127 68/68/132 64/69/133
f 56/59/123 55/61/125 64/69/133
f 57/57/121 56/59/123 64/69/133 65/70/134
f 58/55/119 57/57/121 65/70/134
f 59/53/117 58/55/119 65/70/134 66/71/135
f 60/50/114 59/53/117 66/71/135
f 61/51/115 60/50/114 66/71/135 67/72/136
f 62/67/131 61/51/115 67/72/136
f 63/65/129 62/67/131 67/72/136 68/68/132
f 54/63/127 63/65/129 68/68/132
f 64/69/133 68/68/132 53/73/137
f 65/70/134 64/69/133 53/73/137
f 66/71/135 65/70/134 53/73/137
f 67/72/136 66/71/135 53/73/137
f 68/68/132 67/72/136 53/73/137
