# This file uses centimeters as units for non-parametric coordinates.

g default
v 2.216945 -0.366499 -1.609910
v 0.847473 -0.366499 -2.604890
v -0.845287 -0.366499 -2.604890
v -2.214757 -0.366499 -1.609910
v -2.737850 -0.366499 0.000000
v -2.214757 -0.366500 1.609910
v -0.845287 -0.366500 2.604890
v 0.847476 -0.366499 2.604890
v 2.216945 -0.366499 1.609911
v 2.740039 -0.366499 0.000000
v 2.216945 21.378972 -1.609911
v 0.001095 21.378972 -2.604890
v -2.476303 21.378970 -0.804955
v -1.530022 21.378972 2.107401
v 0.847476 21.378972 2.604890
v 2.478492 21.378972 0.804955
v -1.846242 9.317486 2.542641
v -2.987960 9.317486 -0.971202
v 0.001095 9.317486 -3.142876
v 2.674586 9.317486 -1.942404
v 2.990149 9.317486 0.971202
v 1.022276 9.317486 3.142876
v 3.508175 19.915523 -3.485175
v 0.794030 19.915523 -4.868101
v -2.214624 19.915523 -4.391578
v -4.368581 19.915523 -2.237621
v -4.845104 19.915523 0.771031
v -3.462178 19.915523 3.485175
v -0.748033 19.915523 4.868101
v 2.260619 19.915523 4.391576
v 4.414576 19.915527 2.237622
v 4.891099 19.915527 -0.771032
v 0.022997 24.980991 -0.000001
v -0.694249 21.699311 4.528526
v -3.219070 21.699311 3.242066
v -4.505529 21.699311 0.717248
v -4.062245 21.699311 -2.081535
v -2.058538 21.699311 -4.085242
v 0.740247 21.699311 -4.528527
v 3.265064 21.699311 -3.242068
v 4.551526 21.699313 -0.717249
v 4.108239 21.699311 2.081535
v 2.104532 21.699311 4.085242
v -2.336437 23.861829 1.202191
v -1.849460 23.861831 -1.872458
v 1.225189 23.861831 -2.359436
v 2.638449 23.861831 0.414246
v 0.437244 23.861831 2.615452
vt 0.002862 0.229837
vt 0.035127 0.229837
vt 0.051260 0.396392
vt 0.002862 0.396392
vt 0.067392 0.229837
vt 0.099657 0.229837
vt 0.115790 0.396392
vt 0.131923 0.229837
vt 0.164188 0.229837
vt 0.180320 0.396392
vt 0.196453 0.229837
vt 0.228718 0.229837
vt 0.228718 0.396392
vt 0.260983 0.229837
vt 0.277115 0.396392
vt 0.293248 0.229837
vt 0.325513 0.229837
vt 0.325513 0.396392
vt 0.180320 0.617284
vt 0.115790 0.617284
vt 0.051260 0.617284
vt 0.002862 0.617284
vt 0.325513 0.617284
vt 0.277115 0.617284
vt 0.228718 0.617284
vt 0.005943 0.828412
vt 0.045351 0.751057
vt 0.076455 0.782941
vt 0.049845 0.835925
vt 0.122706 0.711633
vt 0.129128 0.755715
vt 0.208462 0.725220
vt 0.187744 0.764654
vt 0.269845 0.786614
vt 0.229909 0.806338
vt 0.283424 0.872358
vt 0.239522 0.864844
vt 0.244016 0.949713
vt 0.212912 0.917829
vt 0.166661 0.989137
vt 0.160239 0.945055
vt 0.080905 0.975550
vt 0.101623 0.936116
vt 0.019521 0.914155
vt 0.059457 0.894432
vt 0.138914 0.893499
vt 0.183903 0.869195
vt 0.174692 0.818897
vt 0.124010 0.812114
vt 0.101898 0.858221
vt 0.144683 0.850385
vn 0.476996 -0.029905 -0.878397
vn 0.476996 -0.029905 -0.878397
vn 0.476996 -0.029905 -0.878397
vn 0.476996 -0.029905 -0.878397
vn 0.000000 -0.055469 -0.998460
vn 0.000000 -0.055469 -0.998460
vn 0.000000 -0.055469 -0.998460
vn -0.587773 0.006428 -0.809000
vn -0.587773 0.006428 -0.809000
vn -0.587773 0.006428 -0.809000
vn -0.587773 0.006428 -0.809000
vn -0.949592 -0.055469 -0.308542
vn -0.949592 -0.055469 -0.308542
vn -0.949592 -0.055469 -0.308542
vn -0.951037 0.006428 0.309011
vn -0.951037 0.006428 0.309011
vn -0.951037 0.006428 0.309011
vn -0.951037 0.006428 0.309011
vn -0.586881 -0.055469 0.807771
vn -0.586881 -0.055469 0.807771
vn -0.586881 -0.055469 0.807771
vn -0.130410 -0.029905 0.991009
vn -0.130410 -0.029905 0.991009
vn -0.130410 -0.029905 0.991009
vn -0.130410 -0.029905 0.991009
vn 0.688005 -0.029905 0.725090
vn 0.688005 -0.029905 0.725090
vn 0.688005 -0.029905 0.725090
vn 0.688005 -0.029905 0.725090
vn 0.949592 -0.055469 0.308542
vn 0.949592 -0.055469 0.308542
vn 0.949592 -0.055469 0.308542
vn 0.982805 -0.029905 -0.182211
vn 0.982805 -0.029905 -0.182211
vn 0.982805 -0.029905 -0.182211
vn 0.982805 -0.029905 -0.182211
vn -0.950438 0.036062 0.308816
vn -0.950438 0.036062 0.308816
vn -0.950438 0.036062 0.308816
vn -0.950438 0.036062 0.308816
vn -0.587403 0.036062 -0.808491
vn -0.587403 0.036062 -0.808491
vn -0.587403 0.036062 -0.808491
vn -0.587403 0.036062 -0.808491
vn 0.409288 0.040656 -0.911499
vn 0.409288 0.040656 -0.911499
vn 0.409288 0.040656 -0.911499
vn 0.409288 0.040656 -0.911499
vn 0.993364 0.040656 -0.107588
vn 0.993364 0.040656 -0.107588
vn 0.993364 0.040656 -0.107588
vn 0.993364 0.040656 -0.107588
vn 0.740410 0.040656 0.670925
vn 0.740410 0.040656 0.670925
vn 0.740410 0.040656 0.670925
vn 0.740410 0.040656 0.670925
vn -0.204644 0.040656 0.977992
vn -0.204644 0.040656 0.977992
vn -0.204644 0.040656 0.977992
vn -0.204644 0.040656 0.977992
vn 0.969838 0.189257 -0.153607
vn 0.694328 0.189257 -0.694328
vn 0.622912 0.459561 -0.633075
vn 0.878307 0.459561 -0.131834
vn 0.153607 0.189257 -0.969839
vn 0.146030 0.459561 -0.876059
vn -0.445786 0.189257 -0.874904
vn -0.409600 0.459561 -0.788056
vn -0.874904 0.189257 -0.445786
vn -0.788055 0.459561 -0.409600
vn -0.969839 0.189257 0.153608
vn -0.876059 0.459561 0.146030
vn -0.694328 0.189257 0.694328
vn -0.633075 0.459561 0.622912
vn -0.153607 0.189257 0.969838
vn -0.131834 0.459561 0.878307
vn 0.445785 0.189257 0.874904
vn 0.396793 0.459561 0.794581
vn 0.874904 0.189257 0.445786
vn 0.794580 0.459561 0.396794
vn 0.089365 0.820770 0.564226
vn -0.508996 0.820770 0.259346
vn -0.403942 0.820770 -0.403941
vn 0.259346 0.820770 -0.508996
vn 0.564226 0.820770 0.089365
vn -0.000000 1.000000 -0.000000
s off
g polySurface65
f 1/1/1 2/2/2 19/3/3 20/4/4
f 2/2/5 3/5/6 19/3/7
f 3/5/8 4/6/9 18/7/10 19/3/11
f 4/6/12 5/8/13 18/7/14
f 5/8/15 6/9/16 17/10/17 18/7/18
f 6/9/19 7/11/20 17/10/21
f 7/11/22 8/12/23 22/13/24 17/10/25
f 8/12/26 9/14/27 21/15/28 22/13/29
f 9/14/30 10/16/31 21/15/32
f 10/16/33 1/17/34 20/18/35 21/15/36
f 18/7/37 17/10/38 14/19/39 13/20/40
f 19/3/41 18/7/42 13/20/43 12/21/44
f 20/4/45 19/3/46 12/21/47 11/22/48
f 21/15/49 20/18/50 11/23/51 16/24/52
f 22/13/53 21/15/54 16/24/55 15/25/56
f 17/10/57 22/13/58 15/25/59 14/19/60
s 1
f 32/26/61 23/27/62 40/28/63 41/29/64
f 23/27/62 24/30/65 39/31/66 40/28/63
f 24/30/65 25/32/67 38/33/68 39/31/66
f 25/32/67 26/34/69 37/35/70 38/33/68
f 26/34/69 27/36/71 36/37/72 37/35/70
f 27/36/71 28/38/73 35/39/74 36/37/72
f 28/38/73 29/40/75 34/41/76 35/39/74
f 29/40/75 30/42/77 43/43/78 34/41/76
f 30/42/77 31/44/79 42/45/80 43/43/78
f 31/44/79 32/26/61 41/29/64 42/45/80
f 35/39/74 34/41/76 48/46/81 44/47/82
f 36/37/72 35/39/74 44/47/82
f 37/35/70 36/37/72 44/47/82 45/48/83
f 38/33/68 37/35/70 45/48/83
f 39/31/66 38/33/68 45/48/83 46/49/84
f 40/28/63 39/31/66 46/49/84
f 41/29/64 40/28/63 46/49/84 47/50/85
f 42/45/80 41/29/64 47/50/85
f 43/43/78 42/45/80 47/50/85 48/46/81
f 34/41/76 43/43/78 48/46/81
f 44/47/82 48/46/81 33/51/86
f 45/48/83 44/47/82 33/51/86
f 46/49/84 45/48/83 33/51/86
f 47/50/85 46/49/84 33/51/86
f 48/46/81 47/50/85 33/51/86
