# This file uses centimeters as units for non-parametric coordinates.

g default
v -0.124792 -0.956744 -10.251897
v 2.685963 -0.956744 -10.251897
v -1.521175 1.367007 42.081011
v 1.217658 0.354971 -10.771021
v 2.187930 0.540107 17.609424
v 1.220331 1.566792 17.155913
v 0.335669 0.540107 16.741274
v -2.963856 0.606091 25.320180
v -3.895076 1.500809 25.312631
v -4.746478 0.606091 25.305729
v -1.214223 0.701995 37.276711
v -1.945834 1.404904 37.276711
v -2.614735 0.701995 37.276711
v -0.313696 0.791034 40.600768
v -0.856997 1.315865 40.543980
v -1.353730 0.791034 40.492057
v 1.542285 0.505691 12.325973
v 0.434558 1.601208 12.193761
v -0.578220 0.505691 12.072881
v -1.414852 0.562801 20.156687
v -2.120189 1.544099 19.446216
v -2.765069 0.562801 18.796642
v 4.684205 0.442924 4.433875
v 3.431408 1.663975 4.510608
v 2.285993 0.442924 4.580763
v 4.719073 0.414257 0.808258
v 3.388488 1.692642 0.808258
v 2.171954 0.414257 0.808258
v 0.191408 0.661132 31.959584
v -0.592360 1.445767 32.189042
v -1.308948 0.661132 32.398833
v -1.466594 0.363492 -6.198817
v -0.153442 1.743407 -6.198817
v 1.282817 0.363492 -6.198817
v -2.476360 -0.253777 -9.924686
v -0.302765 -0.253777 -8.829517
v -11.497031 0.581762 35.110251
v -1.438225 0.081862 -9.401620
v -9.391162 0.436032 27.231544
v -9.980894 0.595803 27.367652
v -10.520077 0.436032 27.492093
v -11.800041 0.445999 32.745872
v -12.309525 0.585836 32.831363
v -12.775340 0.445999 32.909530
v -8.468408 0.310157 1.327765
v -9.011736 0.655811 0.761602
v -9.823544 0.448066 -0.121620
v -10.746660 0.386463 5.771030
v -11.705998 0.645372 5.567041
v -12.583107 0.386463 5.380537
v -8.697167 0.411190 17.444511
v -9.489619 0.620645 17.404775
v -10.214146 0.411190 17.368444
v -11.409217 0.421015 21.660851
v -12.117803 0.610821 21.701473
v -12.765655 0.421015 21.738613
v -8.649307 0.398521 11.361780
v -9.527261 0.633314 11.237890
v -10.329964 0.398521 11.124619
v -9.643668 0.407140 15.142377
v -10.463452 0.624695 15.075740
v -11.212968 0.407140 15.014814
v -10.732213 0.415560 19.202801
v -11.441532 0.616276 19.016074
v -12.090053 0.415560 18.845352
v -3.723858 0.365244 -1.066470
v -4.743308 0.666591 -1.580119
v -5.675376 0.365244 -2.049742
v -1.450494 0.353851 -6.225123
v -2.547034 0.677984 -6.777616
v -3.549585 0.353851 -7.282752
v 2.052613 0.542509 7.058013
v 3.496219 0.542509 6.116268
v 12.151382 1.273208 30.765491
v 2.742096 1.326937 6.608225
v 9.287905 0.740978 22.518434
v 8.717133 1.290316 22.576508
v 8.195285 0.740978 22.629604
v 8.798363 0.787979 25.886704
v 8.400439 1.281643 26.205567
v 8.036623 0.787979 26.497098
v 8.783535 0.652006 13.180414
v 8.140969 1.306733 13.487375
v 7.553480 0.652006 13.768024
v 9.148884 0.687938 16.616594
v 8.542925 1.300103 16.862848
v 7.988906 0.687938 17.087993
v 10.619983 0.714938 19.088388
v 10.036300 1.295121 19.261663
v 9.502646 0.714938 19.420083
v 3.960331 0.596122 10.888187
v 3.260830 1.317044 11.289564
v 2.621286 0.596122 11.656537
vt 0.720388 0.218840
vt 0.720388 0.186797
vt 0.563844 0.203536
vt 0.720388 0.203536
vt 0.643669 0.186797
vt 0.643669 0.203536
vt 0.643669 0.218840
vt 0.617305 0.186797
vt 0.617305 0.203536
vt 0.617305 0.218840
vt 0.578986 0.186797
vt 0.578986 0.203536
vt 0.578986 0.218840
vt 0.569057 0.186797
vt 0.569058 0.203536
vt 0.569057 0.218840
vt 0.657420 0.186797
vt 0.657420 0.203536
vt 0.657420 0.218839
vt 0.634602 0.186797
vt 0.634602 0.203536
vt 0.634602 0.218840
vt 0.682499 0.186797
vt 0.682499 0.203536
vt 0.682499 0.218839
vt 0.693954 0.186797
vt 0.693954 0.203536
vt 0.693954 0.218839
vt 0.595313 0.186797
vt 0.595313 0.203536
vt 0.595313 0.218840
vt 0.714237 0.218840
vt 0.714237 0.203536
vt 0.714237 0.186797
vt 0.570098 0.218840
vt 0.563844 0.203536
vt 0.570098 0.203536
vt 0.570098 0.186797
vt 0.585399 0.203536
vt 0.585399 0.186797
vt 0.608452 0.186797
vt 0.608453 0.203536
vt 0.585399 0.218840
vt 0.608452 0.218840
vt 0.679404 0.203536
vt 0.679404 0.186797
vt 0.694066 0.186797
vt 0.694066 0.203536
vt 0.679404 0.218840
vt 0.694066 0.218840
vt 0.661494 0.203536
vt 0.661494 0.186797
vt 0.661494 0.218840
vt 0.623535 0.203536
vt 0.623535 0.186797
vt 0.629752 0.186797
vt 0.629752 0.203536
vt 0.623535 0.218840
vt 0.629752 0.218840
vt 0.616827 0.203536
vt 0.616827 0.186797
vt 0.616827 0.218840
vt 0.642983 0.203536
vt 0.642983 0.186797
vt 0.642983 0.218840
vt 0.711557 0.186797
vt 0.711557 0.203536
vt 0.711557 0.218840
vt 0.720388 0.186797
vt 0.720388 0.203536
vt 0.720388 0.218840
vt 0.581464 0.218839
vt 0.562621 0.203536
vt 0.581464 0.203536
vt 0.581464 0.186797
vt 0.600839 0.203536
vt 0.600839 0.186797
vt 0.611574 0.186797
vt 0.611574 0.203536
vt 0.600839 0.218839
vt 0.611574 0.218839
vt 0.637515 0.203536
vt 0.637515 0.186797
vt 0.660552 0.186797
vt 0.660552 0.203536
vt 0.637515 0.218839
vt 0.660552 0.218839
vt 0.622704 0.203536
vt 0.622703 0.186797
vt 0.622703 0.218839
vt 0.682652 0.186797
vt 0.682652 0.203536
vt 0.682652 0.218840
vn -0.720129 0.693193 -0.029963
vn -0.012591 0.999172 -0.038686
vn -0.014715 0.999891 -0.001290
vn 0.689140 0.724098 0.027720
vn -0.014640 0.999893 -0.000211
vn 0.616056 0.741213 0.266605
vn 0.710952 0.698295 0.083259
vn -0.022184 0.999706 0.009745
vn -0.647458 0.712207 -0.271217
vn -0.743987 0.664489 -0.070268
vn -0.020242 0.999793 0.002164
vn 0.694216 0.717957 -0.051018
vn 0.571327 0.708713 0.413897
vn -0.013762 0.999779 -0.015862
vn -0.725292 0.686301 0.054253
vn -0.592642 0.676281 -0.437516
vn -0.019145 0.999702 0.015149
vn 0.706782 0.707358 -0.010202
vn 0.695615 0.715654 -0.062920
vn -0.020499 0.999786 0.002604
vn -0.737930 0.674153 0.031273
vn -0.726717 0.683682 0.066785
vn 0.689999 0.711431 0.133294
vn -0.021882 0.999756 0.003104
vn -0.721485 0.680277 -0.129164
vn -0.020257 0.999706 0.013291
vn 0.684511 0.709918 -0.165713
vn -0.713118 0.676391 0.184274
vn -0.011924 0.989117 -0.146645
vn 0.676562 0.716305 -0.170796
vn 0.680732 0.732449 -0.011066
vn -0.005645 0.954528 -0.298069
vn -0.738487 0.673554 -0.031003
vn -0.688619 0.601215 -0.405395
vn -0.291007 0.956593 -0.015644
vn -0.010904 0.999924 0.005676
vn -0.011586 0.999932 0.001056
vn 0.268481 0.963123 0.017655
vn -0.011544 0.999933 0.001198
vn 0.267178 0.963520 0.015634
vn 0.253653 0.967224 -0.011761
vn -0.011377 0.999931 0.002930
vn -0.289648 0.957040 -0.013350
vn -0.275722 0.961080 0.017420
vn 0.039535 0.998456 0.039014
vn 0.232633 0.942468 0.240076
vn 0.200190 0.956191 0.213596
vn 0.008865 0.999678 0.023777
vn -0.156213 0.973906 -0.164635
vn -0.182673 0.968823 -0.167367
vn 0.018671 0.999683 0.016870
vn 0.290019 0.956691 0.025119
vn -0.253709 0.967253 0.007361
vn -0.010001 0.999936 -0.005379
vn 0.243860 0.966812 0.076209
vn 0.256695 0.966230 -0.022524
vn -0.011622 0.999929 0.002709
vn -0.264255 0.960527 -0.086937
vn -0.279225 0.959824 0.027755
vn -0.010131 0.999914 -0.008350
vn 0.239417 0.956995 0.163830
vn -0.259164 0.948903 -0.180048
vn -0.011990 0.999924 0.002819
vn 0.263826 0.964349 -0.020657
vn -0.287025 0.957568 0.026089
vn 0.278402 0.960403 0.010897
vn 0.035014 0.994768 -0.095976
vn -0.210890 0.957667 -0.195955
vn 0.319256 0.944318 -0.079624
vn 0.081090 0.978797 -0.188098
vn -0.162727 0.945075 -0.283465
vn -0.692742 0.688774 0.213773
vn -0.016394 0.999748 0.015335
vn -0.017676 0.999661 0.019115
vn 0.668656 0.719652 -0.187084
vn -0.019294 0.999807 0.003606
vn 0.726022 0.664093 0.178529
vn 0.683159 0.728697 -0.047894
vn -0.017901 0.999839 0.001256
vn -0.753159 0.634316 -0.174342
vn -0.714643 0.697693 0.050103
vn -0.012888 0.999813 0.014438
vn 0.538317 0.736432 -0.409735
vn 0.540330 0.736324 -0.407272
vn -0.012796 0.999814 0.014405
vn -0.561152 0.704920 0.433815
vn -0.563086 0.704913 0.431314
vn -0.019069 0.999759 0.010869
vn 0.649481 0.726347 -0.224933
vn -0.677607 0.694905 0.240742
vn 0.694534 0.715485 -0.075519
vn -0.021569 0.999758 0.004415
vn -0.724731 0.684171 0.081700
s 1
g polySurface7
f 16/16/1 3/3/2 15/15/3
f 3/3/2 14/14/4 15/15/3
f 6/6/5 5/5/6 17/17/7 18/18/8
f 7/7/9 6/6/5 18/18/8 19/19/10
f 9/9/11 8/8/12 20/20/13 21/21/14
f 10/10/15 9/9/11 21/21/14 22/22/16
f 12/12/17 11/11/18 29/29/19 30/30/20
f 13/13/21 12/12/17 30/30/20 31/31/22
f 15/15/3 14/14/4 11/11/18 12/12/17
f 16/16/1 15/15/3 12/12/17 13/13/21
f 18/18/8 17/17/7 23/23/23 24/24/24
f 19/19/10 18/18/8 24/24/24 25/25/25
f 21/21/14 20/20/13 5/5/6 6/6/5
f 22/22/16 21/21/14 6/6/5 7/7/9
f 27/27/26 24/24/24 23/23/23 26/26/27
f 28/28/28 25/25/25 24/24/24 27/27/26
f 33/33/29 34/34/30 2/2/31 4/4/32
f 32/32/33 33/33/29 4/4/32 1/1/34
f 30/30/20 29/29/19 8/8/12 9/9/11
f 31/31/22 30/30/20 9/9/11 10/10/15
f 28/28/28 27/27/26 33/33/29 32/32/33
f 27/27/26 26/26/27 34/34/30 33/33/29
s 4
f 44/35/35 37/36/36 43/37/37
f 37/36/36 42/38/38 43/37/37
f 40/39/39 39/40/40 54/41/41 55/42/42
f 41/43/43 40/39/39 55/42/42 56/44/44
f 43/37/37 42/38/38 39/40/40 40/39/39
f 44/35/35 43/37/37 40/39/39 41/43/43
f 46/45/45 45/46/46 66/47/47 67/48/48
f 47/49/49 46/45/45 67/48/48 68/50/50
f 46/45/45 49/51/51 48/52/52 45/46/46
f 47/49/49 50/53/53 49/51/51 46/45/45
f 52/54/54 51/55/55 60/56/56 61/57/57
f 53/58/58 52/54/54 61/57/57 62/59/59
f 64/60/60 55/42/42 54/41/41 63/61/61
f 65/62/62 56/44/44 55/42/42 64/60/60
f 58/63/63 57/64/64 48/52/52 49/51/51
f 59/65/65 58/63/63 49/51/51 50/53/53
f 61/57/57 60/56/56 57/64/64 58/63/63
f 62/59/59 61/57/57 58/63/63 59/65/65
f 52/54/54 64/60/60 63/61/61 51/55/55
f 53/58/58 65/62/62 64/60/60 52/54/54
f 67/48/48 66/47/47 69/66/66 70/67/67
f 68/50/50 67/48/48 70/67/67 71/68/68
f 70/67/67 69/66/66 36/69/69 38/70/70
f 71/68/68 70/67/67 38/70/70 35/71/71
s 7
f 81/72/72 74/73/73 80/74/74
f 74/73/73 79/75/75 80/74/74
f 77/76/76 76/77/77 88/78/78 89/79/79
f 78/80/80 77/76/76 89/79/79 90/81/81
f 80/74/74 79/75/75 76/77/77 77/76/76
f 81/72/72 80/74/74 77/76/76 78/80/80
f 83/82/82 82/83/83 91/84/84 92/85/85
f 84/86/86 83/82/82 92/85/85 93/87/87
f 86/88/88 85/89/89 82/83/83 83/82/82
f 87/90/90 86/88/88 83/82/82 84/86/86
f 86/88/88 89/79/79 88/78/78 85/89/89
f 87/90/90 90/81/81 89/79/79 86/88/88
f 92/85/85 91/84/84 73/91/91 75/92/92
f 93/87/87 92/85/85 75/92/92 72/93/93
