# This file uses centimeters as units for non-parametric coordinates.

g default
v 3.284085 9.703197 -3.359240
v -1.139127 9.703197 -3.359241
v -3.350734 9.703197 0.471373
v -1.139128 9.703197 4.301988
v 3.284084 9.703197 4.301988
v 5.495691 9.703197 0.471374
v 1.072478 11.358128 0.471374
v 1.072478 -0.148074 -0.567447
v 0.033657 -0.148074 0.471374
v 1.072478 -0.148074 1.510195
v 2.111299 -0.148074 0.471374
v 1.072478 9.703197 0.471374
v 0.147032 5.903005 -5.330344
v -2.462881 5.353057 -5.412859
v -4.045025 6.084163 -3.392166
v -3.017256 7.365216 -1.288957
v -0.407343 7.915164 -1.206441
v 1.174801 7.184058 -3.227135
v -1.657984 7.780202 -3.898818
v -0.033263 -0.461035 -0.361702
v -0.721389 -0.317357 0.178097
v -0.183604 0.084640 0.756655
v 0.504522 -0.059039 0.216856
v -1.435113 6.634111 -3.309650
v 6.530542 5.266900 0.410182
v 3.470793 7.123789 -0.296508
v 0.913410 7.474732 2.281504
v 1.415777 5.968786 5.566205
v 4.475526 4.111897 6.272895
v 7.032908 3.760954 3.694883
v 4.514243 6.659731 3.383116
v 1.030909 -0.427565 -0.157607
v 0.033657 -0.148074 0.471374
v 0.473611 -0.740789 1.432297
v 1.470862 -1.020280 0.803315
v 3.973159 5.617843 2.988193
v -1.070932 4.416704 -0.137567
v -2.701113 3.787337 -0.443942
v -3.635712 3.063617 0.879014
v -2.940130 2.969264 2.508346
v -1.309949 3.598631 2.814721
v -0.375350 4.322351 1.491765
v -2.560032 4.977792 1.496515
v -0.306121 -0.058619 -0.150263
v -0.721389 -0.317357 0.178097
v -0.370939 -0.280471 0.650365
v 0.044329 -0.021734 0.322006
v -2.005531 3.692984 1.185390
v 1.021348 4.938649 1.607855
v -0.719571 4.842754 1.935672
v -1.301763 4.051724 3.413096
v -0.143035 3.356590 4.562704
v 1.597884 3.452485 4.234887
v 2.180075 4.243515 2.757462
v 0.516872 5.720794 3.958199
v 0.127342 -0.380312 0.104802
v -0.203349 -0.604349 0.538003
v 0.283693 -0.783342 0.817225
v 0.614384 -0.559306 0.384023
v 0.439156 4.147619 3.085280
vt 0.782815 0.178980
vt 0.746216 0.178980
vt 0.727916 0.210676
vt 0.746216 0.242372
vt 0.782815 0.242372
vt 0.801115 0.210676
vt 0.764515 0.209212
vt 0.255091 0.831950
vt 0.264249 0.831950
vt 0.273408 0.907042
vt 0.273408 0.831950
vt 0.282566 0.831950
vt 0.291725 0.831950
vt 0.782815 0.242372
vt 0.746216 0.242372
vt 0.764515 0.209212
vt 0.727916 0.210676
vt 0.746216 0.178980
vt 0.782815 0.178980
vt 0.801115 0.210676
vt 0.255091 0.831950
vt 0.264249 0.831950
vt 0.273408 0.907042
vt 0.273408 0.831950
vt 0.282566 0.831950
vt 0.291725 0.831950
vt 0.782815 0.242372
vt 0.746216 0.242372
vt 0.764515 0.209212
vt 0.727916 0.210676
vt 0.746216 0.178980
vt 0.782815 0.178980
vt 0.801115 0.210676
vt 0.255091 0.831950
vt 0.264249 0.831950
vt 0.273408 0.907042
vt 0.273408 0.831950
vt 0.282566 0.831950
vt 0.291725 0.831950
vt 0.782815 0.242372
vt 0.746216 0.242372
vt 0.764515 0.209212
vt 0.727916 0.210676
vt 0.746216 0.178980
vt 0.782815 0.178980
vt 0.801115 0.210676
vt 0.255091 0.831950
vt 0.264249 0.831950
vt 0.273408 0.907042
vt 0.273408 0.831950
vt 0.282566 0.831950
vt 0.291725 0.831950
vt 0.782815 0.242372
vt 0.746216 0.242372
vt 0.764515 0.209212
vt 0.727916 0.210676
vt 0.746216 0.178980
vt 0.782815 0.178980
vt 0.801115 0.210676
vt 0.255091 0.831950
vt 0.264249 0.831950
vt 0.273408 0.907042
vt 0.273408 0.831950
vt 0.282566 0.831950
vt 0.291725 0.831950
vn 0.175212 0.936592 -0.303475
vn -0.175211 0.936592 -0.303475
vn 0.000000 1.000000 0.000000
vn -0.350423 0.936592 -0.000000
vn -0.175212 0.936592 0.303475
vn 0.175211 0.936592 0.303475
vn 0.350423 0.936592 0.000000
vn -0.705149 0.074358 -0.705149
vn -0.705149 0.074358 -0.705149
vn -0.705149 0.074358 -0.705149
vn -0.705149 0.074358 0.705149
vn -0.705149 0.074358 0.705149
vn -0.705149 0.074358 0.705149
vn 0.705149 0.074358 0.705149
vn 0.705149 0.074358 0.705149
vn 0.705149 0.074358 0.705149
vn 0.705149 0.074358 -0.705149
vn 0.705149 0.074358 -0.705149
vn 0.705149 0.074358 -0.705149
vn 0.107891 0.666363 -0.737780
vn -0.322523 0.575669 -0.751388
vn -0.170418 0.876357 -0.450507
vn -0.583443 0.696239 -0.418145
vn -0.413948 0.907504 -0.071294
vn 0.016466 0.998199 -0.057686
vn 0.277386 0.877629 -0.390929
vn -0.615474 -0.403023 -0.677321
vn -0.615474 -0.403023 -0.677321
vn -0.615474 -0.403023 -0.677321
vn -0.784825 0.211654 0.582454
vn -0.784825 0.211654 0.582454
vn -0.784825 0.211654 0.582454
vn 0.596103 0.502636 0.626113
vn 0.596103 0.502636 0.626113
vn 0.596103 0.502636 0.626113
vn 0.765454 -0.112041 -0.633661
vn 0.765454 -0.112041 -0.633661
vn 0.765454 -0.112041 -0.633661
vn 0.639009 0.765562 0.074719
vn 0.369370 0.929199 0.012442
vn 0.436832 0.841144 0.318832
vn 0.144002 0.960126 0.239629
vn 0.188273 0.827415 0.529092
vn 0.457912 0.663777 0.591368
vn 0.683280 0.632851 0.364182
vn -0.326092 0.556396 -0.764256
vn -0.326092 0.556396 -0.764256
vn -0.326092 0.556396 -0.764256
vn -0.784474 0.298767 0.543452
vn -0.784474 0.298767 0.543452
vn -0.784474 0.298767 0.543452
vn 0.397638 -0.418629 0.816476
vn 0.397638 -0.418629 0.816476
vn 0.397638 -0.418629 0.816476
vn 0.856020 -0.161000 -0.491232
vn 0.856020 -0.161000 -0.491232
vn 0.856020 -0.161000 -0.491232
vn 0.030226 0.953505 -0.299857
vn -0.547282 0.730546 -0.408394
vn -0.386809 0.896256 0.217035
vn -0.878373 0.474161 0.060276
vn -0.631956 0.440735 0.637483
vn -0.054448 0.663695 0.746019
vn 0.276642 0.920080 0.277349
vn -0.619738 -0.001322 -0.784808
vn -0.619738 -0.001322 -0.784808
vn -0.619738 -0.001322 -0.784808
vn -0.729484 -0.376946 0.570759
vn -0.729484 -0.376946 0.570759
vn -0.729484 -0.376946 0.570759
vn 0.566973 0.123580 0.814413
vn 0.566973 0.123580 0.814413
vn 0.566973 0.123580 0.814413
vn 0.676719 0.499204 -0.541152
vn 0.676719 0.499204 -0.541152
vn 0.676719 0.499204 -0.541152
vn 0.264058 0.930721 -0.253047
vn -0.434983 0.892215 -0.121416
vn 0.043156 0.873594 0.484738
vn -0.668754 0.574588 0.471822
vn -0.203484 0.295467 0.933431
vn 0.495558 0.333972 0.801801
vn 0.729329 0.651599 0.208562
vn -0.822982 0.350790 -0.446820
vn -0.822982 0.350790 -0.446820
vn -0.822982 0.350790 -0.446820
vn -0.558034 -0.332176 0.760432
vn -0.558034 -0.332176 0.760432
vn -0.558034 -0.332176 0.760432
vn 0.827672 -0.255847 0.499502
vn 0.827672 -0.255847 0.499502
vn 0.827672 -0.255847 0.499502
vn 0.562725 0.427119 -0.707750
vn 0.562725 0.427119 -0.707750
vn 0.562725 0.427119 -0.707750
s 1
g polySurface6
f 1/5/1 2/4/2 7/7/3
f 2/4/2 3/3/4 7/7/3
f 3/3/4 4/2/5 7/7/3
f 4/2/5 5/1/6 7/7/3
f 5/1/6 6/6/7 7/7/3
f 6/6/7 1/5/1 7/7/3
s off
f 8/8/8 9/9/9 12/10/10
f 9/9/11 10/11/12 12/10/13
f 10/11/14 11/12/15 12/10/16
f 11/12/17 8/13/18 12/10/19
s 2
f 13/14/20 14/15/21 19/16/22
f 14/15/21 15/17/23 19/16/22
f 15/17/23 16/18/24 19/16/22
f 16/18/24 17/19/25 19/16/22
f 17/19/25 18/20/26 19/16/22
f 18/20/26 13/14/20 19/16/22
s off
f 20/21/27 21/22/28 24/23/29
f 21/22/30 22/24/31 24/23/32
f 22/24/33 23/25/34 24/23/35
f 23/25/36 20/26/37 24/23/38
s 3
f 25/27/39 26/28/40 31/29/41
f 26/28/40 27/30/42 31/29/41
f 27/30/42 28/31/43 31/29/41
f 28/31/43 29/32/44 31/29/41
f 29/32/44 30/33/45 31/29/41
f 30/33/45 25/27/39 31/29/41
s off
f 32/34/46 33/35/47 36/36/48
f 33/35/49 34/37/50 36/36/51
f 34/37/52 35/38/53 36/36/54
f 35/38/55 32/39/56 36/36/57
s 4
f 37/40/58 38/41/59 43/42/60
f 38/41/59 39/43/61 43/42/60
f 39/43/61 40/44/62 43/42/60
f 40/44/62 41/45/63 43/42/60
f 41/45/63 42/46/64 43/42/60
f 42/46/64 37/40/58 43/42/60
s off
f 44/47/65 45/48/66 48/49/67
f 45/48/68 46/50/69 48/49/70
f 46/50/71 47/51/72 48/49/73
f 47/51/74 44/52/75 48/49/76
s 5
f 49/53/77 50/54/78 55/55/79
f 50/54/78 51/56/80 55/55/79
f 51/56/80 52/57/81 55/55/79
f 52/57/81 53/58/82 55/55/79
f 53/58/82 54/59/83 55/55/79
f 54/59/83 49/53/77 55/55/79
s off
f 56/60/84 57/61/85 60/62/86
f 57/61/87 58/63/88 60/62/89
f 58/63/90 59/64/91 60/62/92
f 59/64/93 56/65/94 60/62/95
