# This file uses centimeters as units for non-parametric coordinates.

mtllib shrooms10.mtl
g default
v -0.086999 23.725976 0.052741
v 1.491054 18.622546 10.016168
v -4.666678 18.622546 9.040879
v -9.075136 18.622546 4.632425
v -10.050411 18.622546 -1.525310
v -7.220019 18.622546 -7.080286
v -1.665051 18.622546 -9.910691
v 4.492681 18.622546 -8.935401
v 8.901151 18.622546 -4.526946
v 9.876439 18.622546 1.630792
v 7.046021 18.622546 7.185766
v 5.971821 20.817696 3.262101
v -1.245945 20.817696 6.939736
v -6.973999 20.817698 1.211685
v -3.296356 20.817696 -6.006083
v 4.704600 20.817696 -4.738855
v 1.486774 -0.334384 0.661250
v 1.157546 -0.334384 -1.330993
v -0.838927 -0.334384 -1.633510
v -1.743586 -0.334384 0.171764
v -0.306221 -0.334384 1.589999
v 0.653677 18.438601 -0.148667
v -0.707944 18.438601 -0.354990
v -0.194726 18.438601 0.854217
vt 0.592184 0.525277
vt 0.528013 0.432532
vt 0.593503 0.412070
vt 0.569787 0.454160
vt 0.487090 0.488420
vt 0.486293 0.558331
vt 0.519033 0.523836
vt 0.525896 0.615650
vt 0.590865 0.638483
vt 0.568264 0.595430
vt 0.656356 0.618021
vt 0.697278 0.562134
vt 0.649455 0.570002
vt 0.698076 0.492223
vt 0.658472 0.434904
vt 0.650393 0.482699
vt 0.312048 0.741512
vt 0.329934 0.741512
vt 0.312048 0.822405
vt 0.347821 0.741512
vt 0.356764 0.822405
vt 0.365708 0.741512
vt 0.383594 0.741512
vt 0.383594 0.822405
vt 0.401481 0.741512
vt 0.401481 0.822405
vn -0.301691 0.216456 0.928509
vn 0.000000 0.216456 0.976292
vn -0.156828 0.861649 0.482666
vn -0.789837 0.216456 0.573850
vn -0.573850 0.216456 0.789837
vn -0.298304 0.861649 0.410581
vn -0.410580 0.861649 0.298304
vn -0.976292 0.216456 0.000000
vn -0.928509 0.216456 0.301691
vn -0.507505 0.861649 0.000000
vn -0.789837 0.216456 -0.573850
vn -0.928509 0.216456 -0.301691
vn -0.482666 0.861649 -0.156828
vn -0.410581 0.861649 -0.298304
vn -0.301691 0.216456 -0.928509
vn -0.573851 0.216456 -0.789837
vn -0.156828 0.861649 -0.482666
vn 0.301691 0.216456 -0.928509
vn 0.000000 0.216456 -0.976292
vn 0.000000 0.861649 -0.507505
vn 0.156828 0.861649 -0.482666
vn 0.789837 0.216456 -0.573850
vn 0.573850 0.216456 -0.789837
vn 0.410580 0.861649 -0.298304
vn 0.976292 0.216456 0.000001
vn 0.928509 0.216456 -0.301690
vn 0.482666 0.861649 -0.156827
vn 0.507505 0.861649 0.000001
vn 0.789837 0.216456 0.573850
vn 0.928509 0.216456 0.301691
vn 0.410581 0.861649 0.298304
vn 0.301691 0.216456 0.928509
vn 0.573850 0.216456 0.789837
vn 0.298304 0.861649 0.410581
vn 0.156828 0.861649 0.482666
vn 0.156828 0.861649 0.482666
vn 0.298304 0.861649 0.410581
vn 0.165398 0.844702 0.509041
vn -0.410580 0.861649 0.298304
vn -0.298304 0.861649 0.410581
vn -0.433016 0.844702 0.314604
vn -0.410581 0.861649 -0.298304
vn -0.482666 0.861649 -0.156828
vn -0.433016 0.844702 -0.314604
vn 0.156828 0.861649 -0.482666
vn 0.000000 0.861649 -0.507505
vn 0.165398 0.844702 -0.509041
vn 0.507505 0.861649 0.000001
vn 0.482666 0.861649 -0.156827
vn 0.535237 0.844702 0.000001
vn 0.985953 0.036725 -0.162934
vn 0.985953 0.036725 -0.162934
vn 0.985953 0.036725 -0.162934
vn 0.149488 0.066145 -0.986549
vn 0.149488 0.066145 -0.986549
vn 0.149488 0.066145 -0.986549
vn 0.149488 0.066145 -0.986549
vn -0.893423 0.036725 -0.447712
vn -0.893423 0.036725 -0.447712
vn -0.893423 0.036725 -0.447712
vn -0.802127 0.044532 0.595490
vn -0.802127 0.044532 0.595490
vn -0.802127 0.044532 0.595490
vn -0.802127 0.044532 0.595490
vn 0.589706 0.044531 0.806389
vn 0.589706 0.044531 0.806389
vn 0.589706 0.044531 0.806389
vn 0.589706 0.044531 0.806389
s off
g polySurface59
usemtl lambert2SG
f 3/2/1 2/3/2 13/4/3
f 4/5/4 3/2/5 13/4/6 14/7/7
f 5/6/8 4/5/9 14/7/10
f 6/8/11 5/6/12 14/7/13 15/10/14
f 7/9/15 6/8/16 15/10/17
f 8/11/18 7/9/19 15/10/20 16/13/21
f 9/12/22 8/11/23 16/13/24
f 10/14/25 9/12/26 16/13/27 12/16/28
f 11/15/29 10/14/30 12/16/31
f 2/3/32 11/15/33 12/16/34 13/4/35
f 13/4/36 12/16/37 1/1/38
f 14/7/39 13/4/40 1/1/41
f 15/10/42 14/7/43 1/1/44
f 16/13/45 15/10/46 1/1/47
f 12/16/48 16/13/49 1/1/50
f 17/17/51 18/18/52 22/19/53
f 18/18/54 19/20/55 23/21/56 22/19/57
f 19/20/58 20/22/59 23/21/60
f 20/22/61 21/23/62 24/24/63 23/21/64
f 21/23/65 17/25/66 22/26/67 24/24/68
