# This file uses centimeters as units for non-parametric coordinates.

mtllib shrooms1.mtl
g default
v -1.294796 6.663467 -2.978464
v -3.651329 6.663467 -1.617917
v -4.758096 6.663467 0.867921
v -4.192350 6.663467 3.529548
v -2.170187 6.663467 5.350313
v 0.535996 6.663468 5.634746
v 2.892528 6.663467 4.274199
v 3.999294 6.663467 1.788361
v 3.433548 6.663467 -0.873266
v 1.411386 6.663467 -2.694029
v -3.200243 9.128980 0.072219
v -2.445539 9.128980 3.622820
v 1.164499 9.128981 4.002250
v 2.640922 9.128980 0.686152
v -0.056637 9.128980 -1.742740
v -0.379401 10.251787 1.328139
v 1.692334 -0.289271 0.179311
v -0.913291 -0.289271 -1.123869
v -2.957872 -0.289271 0.951523
v -1.615868 -0.289271 3.537366
v 1.258119 -0.289271 3.060112
v 0.040697 7.985142 0.466176
v -1.703337 7.985142 1.207994
v -0.255445 7.985142 2.430924
v -1.528812 -0.289422 -1.685639
v -3.379350 -0.289359 -0.705274
v -3.032733 -0.290017 1.339824
v -0.503237 -0.290303 0.688479
v -3.383876 3.336212 -1.349838
v -3.147479 3.533657 0.044947
v -2.125327 3.503239 -0.855389
v -5.164300 2.690622 -0.447120
v -3.581986 3.066156 1.472261
v -1.619378 3.184817 1.131639
v -0.904986 3.007236 -0.723094
v -1.817506 2.708720 -2.472416
v -3.803499 2.533864 -2.557197
v -3.169452 4.481027 -0.793297
v 2.047798 -0.288122 -1.323194
v -0.503412 -0.291244 0.854204
v 2.250284 -0.290909 3.206146
v 3.788346 -0.288447 0.995412
v 3.892075 4.023154 -1.033719
v 2.076840 4.504055 -1.232510
v 2.843095 4.761795 0.474032
v 1.231960 3.432468 -2.900103
v -0.018474 4.441771 -0.649161
v 1.765532 4.759501 2.329680
v 4.423288 4.000842 2.428611
v 5.611337 3.271265 1.097770
v 5.736104 2.711812 -0.742428
v 4.749930 2.536175 -2.389093
v 3.029500 2.811441 -3.213250
v 3.412407 5.692133 -0.796677
vt 0.697914 0.963803
vt 0.673404 0.988415
vt 0.652772 0.969478
vt 0.639108 0.993919
vt 0.608127 0.978214
vt 0.619757 0.952740
vt 0.592293 0.947298
vt 0.597656 0.912980
vt 0.625472 0.916164
vt 0.622167 0.888368
vt 0.656463 0.882863
vt 0.662028 0.910299
vt 0.687444 0.898569
vt 0.703277 0.929485
vt 0.678897 0.943253
vt 0.647785 0.938301
vt 0.313314 0.826724
vt 0.331200 0.826724
vt 0.322257 0.907617
vt 0.349087 0.826724
vt 0.349087 0.907617
vt 0.366974 0.826724
vt 0.375917 0.907617
vt 0.384860 0.826724
vt 0.402747 0.826724
vt 0.402747 0.907617
vt 0.313314 0.861154
vt 0.331200 0.861154
vt 0.322257 0.890590
vt 0.349087 0.861154
vt 0.358030 0.890590
vt 0.375917 0.861154
vt 0.384860 0.890590
vt 0.402747 0.861154
vt 0.402747 0.890590
vt 0.695600 0.960121
vt 0.647853 0.938224
vt 0.641800 0.990413
vt 0.596367 0.948607
vt 0.608561 0.904334
vt 0.653908 0.886073
vt 0.695974 0.911149
vt 0.313314 0.861154
vt 0.340144 0.861154
vt 0.331200 0.890590
vt 0.313314 0.890590
vt 0.358030 0.890590
vt 0.366974 0.861154
vt 0.384860 0.861154
vt 0.393804 0.890590
vt 0.402747 0.861154
vt 0.644398 0.987673
vt 0.613786 0.975874
vt 0.647267 0.934664
vt 0.594023 0.951579
vt 0.634249 0.885883
vt 0.680712 0.893458
vt 0.698542 0.920997
vt 0.696781 0.953757
vt 0.676099 0.979225
vn -0.343603 0.284084 -0.895116
vn -0.603392 0.284083 -0.745127
vn -0.535504 0.525288 -0.661293
vn -0.304944 0.525288 -0.794406
vn -0.804117 0.284083 -0.522199
vn -0.926129 0.284084 -0.248156
vn -0.713645 0.525288 -0.463447
vn -0.957486 0.284083 0.050180
vn -0.895116 0.284084 0.343603
vn -0.794406 0.525288 0.304944
vn -0.849758 0.525288 0.044534
vn -0.745127 0.284086 0.603392
vn -0.522199 0.284084 0.804117
vn -0.661293 0.525288 0.535504
vn -0.248156 0.284082 0.926130
vn 0.050179 0.284084 0.957485
vn 0.044534 0.525288 0.849758
vn -0.220235 0.525288 0.821930
vn 0.343603 0.284085 0.895116
vn 0.603392 0.284084 0.745127
vn 0.304944 0.525288 0.794406
vn 0.804118 0.284082 0.522199
vn 0.926129 0.284083 0.248156
vn 0.821930 0.525288 0.220235
vn 0.713645 0.525288 0.463447
vn 0.957486 0.284081 -0.050179
vn 0.895117 0.284082 -0.343604
vn 0.849758 0.525288 -0.044534
vn 0.745127 0.284083 -0.603392
vn 0.522199 0.284083 -0.804117
vn 0.463447 0.525288 -0.713645
vn 0.661292 0.525288 -0.535505
vn 0.248157 0.284083 -0.926129
vn -0.050179 0.284083 -0.957486
vn 0.220236 0.525288 -0.821930
vn -0.190086 0.847734 -0.495190
vn -0.333804 0.847735 -0.412215
vn -0.094952 0.964261 -0.247357
vn -0.529693 0.847735 0.027760
vn -0.495190 0.847734 0.190086
vn -0.264592 0.964261 0.013867
vn -0.137283 0.847734 0.512348
vn 0.027760 0.847734 0.529694
vn -0.068575 0.964261 0.255927
vn 0.444848 0.847734 0.288888
vn 0.512348 0.847734 0.137283
vn 0.222210 0.964261 0.144305
vn 0.412215 0.847734 -0.333805
vn 0.288888 0.847734 -0.444848
vn 0.205909 0.964261 -0.166741
vn 0.444113 0.119434 -0.887975
vn 0.444113 0.119434 -0.887975
vn 0.444113 0.119434 -0.887975
vn -0.588348 0.166802 -0.791217
vn -0.588348 0.166802 -0.791217
vn -0.588348 0.166802 -0.791217
vn -0.588348 0.166802 -0.791217
vn -0.796865 0.155896 0.583697
vn -0.796865 0.155896 0.583697
vn -0.796865 0.155896 0.583697
vn -0.796865 0.155896 0.583697
vn 0.162921 0.104405 0.981100
vn 0.162921 0.104405 0.981100
vn 0.162921 0.104405 0.981100
vn 0.971055 0.188756 0.146365
vn 0.971055 0.188756 0.146365
vn 0.971055 0.188756 0.146365
vn 0.971055 0.188756 0.146365
vn -0.462428 -0.155758 -0.872869
vn -0.462428 -0.155758 -0.872869
vn -0.462428 -0.155758 -0.872869
vn -0.985828 0.027310 0.165522
vn -0.985828 0.027310 0.165522
vn -0.985828 0.027310 0.165522
vn -0.985828 0.027310 0.165522
vn 0.236453 0.318017 0.918126
vn 0.236453 0.318017 0.918126
vn 0.236453 0.318017 0.918126
vn 0.578065 0.507288 0.639140
vn 0.578065 0.507288 0.639140
vn 0.578065 0.507288 0.639140
vn 0.749915 0.251858 -0.611714
vn 0.749915 0.251858 -0.611714
vn 0.749915 0.251858 -0.611714
vn 0.749915 0.251858 -0.611714
vn -0.740441 0.093062 -0.665647
vn -0.904881 0.112004 -0.410665
vn -0.696272 0.327223 -0.638851
vn -0.856870 0.227374 0.462683
vn -0.665662 0.272754 0.694622
vn -0.802609 0.449894 0.391681
vn 0.184185 0.370476 0.910397
vn 0.466799 0.379579 0.798760
vn 0.148213 0.580592 0.800591
vn 0.701828 0.374407 0.606017
vn 0.866268 0.355462 0.351035
vn 0.620990 0.584181 0.522593
vn 0.818256 0.240097 -0.522312
vn 0.627049 0.194716 -0.754252
vn 0.727328 0.461510 -0.507939
vn 0.372571 0.153153 -0.915279
vn 0.079735 0.119479 -0.989630
vn 0.320271 0.382106 -0.866845
vn -0.410868 0.019738 -0.911481
vn -0.410868 0.019738 -0.911481
vn -0.410868 0.019738 -0.911481
vn -0.410868 0.019738 -0.911481
vn -0.792369 0.545338 0.273419
vn -0.792369 0.545338 0.273419
vn -0.792369 0.545338 0.273419
vn -0.583848 0.438094 0.683517
vn -0.583848 0.438094 0.683517
vn -0.583848 0.438094 0.683517
vn 0.821701 0.208554 0.530389
vn 0.821701 0.208554 0.530389
vn 0.821701 0.208554 0.530389
vn 0.821701 0.208554 0.530389
vn 0.765610 -0.288920 -0.574775
vn 0.765610 -0.288920 -0.574775
vn 0.765610 -0.288920 -0.574775
vn -0.014291 -0.006990 -0.999873
vn -0.296640 0.090560 -0.950686
vn 0.057894 0.232855 -0.970787
vn -0.543190 0.202093 -0.814925
vn -0.729803 0.316691 -0.605883
vn -0.419697 0.421652 -0.803781
vn -0.786678 0.571718 0.232973
vn -0.631774 0.599306 0.491624
vn -0.639565 0.755421 0.142463
vn 0.152486 0.473827 0.867315
vn 0.434836 0.376279 0.818127
vn 0.208490 0.667026 0.715268
vn 0.681384 0.264748 0.682367
vn 0.867997 0.150147 0.473326
vn 0.686081 0.478228 0.548262
vn 0.976409 0.043699 0.211463
vn 0.996006 -0.044176 -0.077587
vn 0.952486 0.278626 0.123039
vn 0.924872 -0.104875 -0.365531
vn 0.769968 -0.132466 -0.624181
vn 0.905949 0.144459 -0.397981
vn 0.546457 -0.124240 -0.828220
vn 0.276221 -0.081005 -0.957674
vn 0.564244 0.126977 -0.815785
s off
g polySurface18
usemtl lambert2SG
f 1/1/1 2/2/2 11/3/3 15/15/4
f 2/2/5 3/4/6 11/3/7
f 3/4/8 4/5/9 12/6/10 11/3/11
f 4/5/12 5/7/13 12/6/14
f 5/7/15 6/8/16 13/9/17 12/6/18
f 6/8/19 7/10/20 13/9/21
f 7/10/22 8/11/23 14/12/24 13/9/25
f 8/11/26 9/13/27 14/12/28
f 9/13/29 10/14/30 15/15/31 14/12/32
f 10/14/33 1/1/34 15/15/35
f 15/15/36 11/3/37 16/16/38
f 11/3/39 12/6/40 16/16/41
f 12/6/42 13/9/43 16/16/44
f 13/9/45 14/12/46 16/16/47
f 14/12/48 15/15/49 16/16/50
f 17/17/51 18/18/52 22/19/53
f 18/18/54 19/20/55 23/21/56 22/19/57
f 19/20/58 20/22/59 24/23/60 23/21/61
f 20/22/62 21/24/63 24/23/64
f 21/24/65 17/25/66 22/26/67 24/23/68
f 25/27/69 26/28/70 29/29/71
f 26/28/72 27/30/73 30/31/74 29/29/75
f 27/30/76 28/32/77 30/31/78
f 28/32/79 31/33/80 30/31/81
f 28/32/82 25/34/83 29/35/84 31/33/85
f 37/36/86 32/38/87 38/37/88
f 32/38/89 33/39/90 38/37/91
f 33/39/92 34/40/93 38/37/94
f 34/40/95 35/41/96 38/37/97
f 35/41/98 36/42/99 38/37/100
f 36/42/101 37/36/102 38/37/103
f 39/43/104 40/44/105 44/45/106 43/46/107
f 40/44/108 45/47/109 44/45/110
f 40/44/111 41/48/112 45/47/113
f 41/48/114 42/49/115 43/50/116 45/47/117
f 42/49/118 39/51/119 43/50/120
f 53/52/121 46/53/122 54/54/123
f 46/53/124 47/55/125 54/54/126
f 47/55/127 48/56/128 54/54/129
f 48/56/130 49/57/131 54/54/132
f 49/57/133 50/58/134 54/54/135
f 50/58/136 51/59/137 54/54/138
f 51/59/139 52/60/140 54/54/141
f 52/60/142 53/52/143 54/54/144
