# This file uses centimeters as units for non-parametric coordinates.

mtllib shrooms8.mtl
g default
v -0.177419 15.478879 5.907159
v -3.260157 15.478879 4.336419
v -4.830898 15.478880 1.253674
v -4.289665 15.478879 -2.163574
v -1.843182 15.478879 -4.610054
v 1.574069 15.478879 -5.151293
v 4.656818 15.478879 -3.580557
v 6.227556 15.478879 -0.497812
v 5.686308 15.478879 2.919440
v 3.239832 15.478879 5.365922
v 0.698330 18.172010 0.377932
v 1.280278 -0.614029 -0.659758
v -0.289054 -0.614029 -0.585460
v -0.046699 -0.614029 1.361181
v 1.835886 -0.614029 0.809804
v 0.579067 16.859301 -0.089184
v 0.296516 16.859301 0.944395
v 1.277368 16.859301 0.657120
v 3.958203 8.547254 4.014623
v 1.842867 9.033066 1.844218
v 3.200993 8.721156 -0.890651
v 5.571037 8.176848 -1.010373
v 6.869712 7.878592 1.027317
v 6.248301 8.021305 3.377037
v 5.008432 11.704545 1.524950
v 1.759296 -0.549890 0.780726
v 1.890366 -0.579992 1.860908
v 2.758257 -0.779313 1.147225
v 4.576988 9.566877 1.056107
v 4.424181 9.601972 1.629636
v 4.954639 9.480145 1.470228
v 2.917673 9.047803 -1.052423
v -0.102105 9.218521 -1.575030
v -0.607627 8.403952 -4.490887
v 1.265073 7.776986 -5.914829
v 2.934365 7.682615 -5.625938
v 4.278476 8.127723 -3.645296
v 2.220121 11.510249 -4.085025
v 1.099865 -0.649495 -1.307599
v 0.234107 -0.549443 -1.285987
v 0.895924 -0.352027 -0.383704
v 1.797014 9.480150 -3.993162
v 1.646355 9.659363 -3.446627
v 2.186233 9.558776 -3.588235
v -0.826681 9.039836 5.391515
v -3.216568 8.578073 5.337439
v -4.807845 8.500317 3.496385
v -4.073675 8.934480 1.215992
v -1.125788 9.583419 0.659060
v 0.377402 9.537679 3.334811
v -2.667466 12.188316 3.320320
v -1.086328 -0.113575 1.397000
v -0.584293 -0.137998 2.362526
v -0.018091 0.095566 1.399630
v -2.551295 10.194899 2.794656
v -2.493951 10.131270 3.383026
v -2.050833 10.260116 3.053353
v -4.164007 11.670369 1.894332
v -6.449285 11.038069 0.784043
v -7.582169 10.296689 -1.456938
v -7.129929 9.729408 -3.972633
v -5.265302 9.552912 -5.802135
v -2.700516 9.834614 -6.246634
v -0.415230 10.466914 -5.136349
v 0.717652 11.208294 -2.895368
v -0.666908 11.863823 0.535082
v -3.732614 12.706618 -2.670793
v -2.363072 -1.211516 0.086130
v -2.694041 -0.979374 1.204199
v -1.723151 -0.674528 1.818977
v -0.989886 -0.884204 0.545382
v -3.669009 11.655024 -2.770900
v -3.894736 11.813348 -2.008361
v -3.156743 11.869974 -2.232775
v 0.717084 7.113791 -3.098923
v -2.330814 6.789084 -3.260806
v -2.976266 5.127297 -5.759437
v -1.169700 4.335213 -7.186539
v 0.515138 4.514707 -7.097053
v 1.955335 5.652681 -5.497509
v -0.694483 7.656184 -6.269746
v 0.167078 -0.692780 -1.591801
v -0.789955 -0.461736 -1.127493
v 0.195257 -0.100609 -0.678884
v -0.700427 6.357151 -5.747097
v -0.825112 6.666378 -5.254808
v -0.291442 6.590850 -5.431253
v 5.287206 5.880452 -0.722718
v 3.250482 6.474054 -1.665016
v 3.248744 5.764638 -3.875278
v 5.284397 4.732592 -4.298999
v 6.544236 4.804169 -2.350610
v 5.734554 7.634372 -3.190582
v 2.415683 -0.714008 -1.078273
v 1.686357 -0.353047 -0.953841
v 2.275637 -0.410632 -0.325915
v 5.059019 6.158412 -3.086124
v 4.888729 6.351768 -2.717600
v 5.281046 6.178432 -2.719702
vt 0.437673 0.323690
vt 0.469876 0.300546
vt 0.488908 0.362765
vt 0.425117 0.361658
vt 0.436805 0.400007
vt 0.468396 0.424260
vt 0.507941 0.424984
vt 0.540144 0.401840
vt 0.552700 0.363872
vt 0.541012 0.325523
vt 0.509421 0.301271
vt 0.218509 0.916388
vt 0.236396 0.916388
vt 0.227452 0.997281
vt 0.263226 0.916388
vt 0.263226 0.997281
vt 0.290056 0.916388
vt 0.290056 0.997281
vt 0.307943 0.916388
vt 0.307943 0.997281
vt 0.053357 0.584210
vt 0.067516 0.630451
vt 0.020288 0.629641
vt 0.052340 0.676140
vt 0.096406 0.672045
vt 0.114753 0.631266
vt 0.097281 0.589951
vt 0.218509 0.916388
vt 0.236396 0.916388
vt 0.227452 0.997281
vt 0.263226 0.916388
vt 0.263226 0.997281
vt 0.298999 0.916388
vt 0.290056 0.997281
vt 0.307943 0.997281
vt 0.082692 0.584762
vt 0.067516 0.630451
vt 0.029526 0.601441
vt 0.028943 0.658098
vt 0.066929 0.681329
vt 0.096406 0.672045
vt 0.114753 0.631266
vt 0.218509 0.916388
vt 0.236396 0.916388
vt 0.227452 0.997281
vt 0.276641 0.916388
vt 0.263226 0.997281
vt 0.290056 0.997281
vt 0.307943 0.916388
vt 0.307943 0.997281
vt 0.068103 0.579574
vt 0.067516 0.630451
vt 0.029526 0.601441
vt 0.020135 0.645245
vt 0.052340 0.676140
vt 0.105507 0.659460
vt 0.106089 0.602804
vt 0.218509 0.916388
vt 0.236396 0.916388
vt 0.227452 0.997281
vt 0.263226 0.916388
vt 0.263226 0.997281
vt 0.298999 0.916388
vt 0.290056 0.997281
vt 0.307943 0.997281
vt 0.437673 0.323690
vt 0.469876 0.300546
vt 0.488908 0.362765
vt 0.425117 0.361658
vt 0.436805 0.400007
vt 0.468396 0.424260
vt 0.507941 0.424984
vt 0.540144 0.401840
vt 0.552700 0.363872
vt 0.525216 0.313397
vt 0.218509 0.916388
vt 0.236396 0.916388
vt 0.227452 0.997281
vt 0.254282 0.916388
vt 0.263226 0.997281
vt 0.272169 0.916388
vt 0.298999 0.916388
vt 0.290056 0.997281
vt 0.307943 0.997281
vt 0.029526 0.601441
vt 0.082692 0.584762
vt 0.067516 0.630451
vt 0.028943 0.658098
vt 0.066929 0.681329
vt 0.096406 0.672045
vt 0.114753 0.631266
vt 0.218509 0.916388
vt 0.245339 0.916388
vt 0.227452 0.997281
vt 0.263226 0.997281
vt 0.281113 0.916388
vt 0.290056 0.997281
vt 0.307943 0.916388
vt 0.307943 0.997281
vt 0.029526 0.601441
vt 0.082692 0.584762
vt 0.067516 0.630451
vt 0.028943 0.658098
vt 0.081667 0.676687
vt 0.114753 0.631266
vt 0.218509 0.916388
vt 0.245339 0.916388
vt 0.227452 0.997281
vt 0.263226 0.997281
vt 0.281113 0.916388
vt 0.290056 0.997281
vt 0.307943 0.916388
vt 0.307943 0.997281
vn -0.582941 0.128116 0.802350
vn -0.306470 0.128118 0.943219
vn -0.508655 0.501124 0.700104
vn -0.943219 0.128114 0.306471
vn -0.802350 0.128114 0.582942
vn -0.823021 0.501124 0.267416
vn -0.943219 0.128115 -0.306470
vn -0.991759 0.128115 0.000000
vn -0.823021 0.501123 -0.267416
vn -0.582941 0.128116 -0.802350
vn -0.802350 0.128116 -0.582941
vn -0.508655 0.501123 -0.700104
vn 0.000000 0.128114 -0.991759
vn -0.306471 0.128115 -0.943219
vn 0.000000 0.501124 -0.865376
vn 0.582941 0.128115 -0.802350
vn 0.306470 0.128115 -0.943219
vn 0.508655 0.501124 -0.700104
vn 0.943220 0.128114 -0.306469
vn 0.802350 0.128114 -0.582942
vn 0.823021 0.501124 -0.267415
vn 0.943219 0.128115 0.306471
vn 0.991759 0.128114 0.000001
vn 0.823021 0.501124 0.267416
vn 0.582942 0.128116 0.802350
vn 0.802350 0.128115 0.582941
vn 0.508655 0.501124 0.700104
vn 0.000000 0.128117 0.991759
vn 0.300069 0.238902 0.923517
vn 0.000000 0.501123 0.865376
vn -0.047269 0.030705 -0.998410
vn -0.047269 0.030705 -0.998410
vn -0.047269 0.030705 -0.998410
vn -0.999308 0.034669 -0.013478
vn -0.999308 0.034669 -0.013478
vn -0.999308 0.034669 -0.013478
vn -0.999308 0.034669 -0.013478
vn 0.281033 0.017368 0.959541
vn 0.281033 0.017368 0.959541
vn 0.281033 0.017368 0.959541
vn 0.281033 0.017368 0.959541
vn 0.869713 0.037236 -0.492151
vn 0.869713 0.037236 -0.492151
vn 0.869713 0.037236 -0.492151
vn 0.869713 0.037236 -0.492151
vn -0.779567 0.217409 0.587374
vn -0.564099 0.167925 0.808451
vn -0.630659 0.559696 0.537596
vn -0.779567 0.217411 -0.587374
vn -0.917906 0.249182 -0.308800
vn -0.630659 0.559696 -0.537596
vn 0.309337 -0.032669 -0.950391
vn 0.008371 0.036451 -0.999300
vn 0.365963 0.330809 -0.869848
vn 0.796309 -0.144509 -0.587375
vn 0.580842 -0.095023 -0.808451
vn 0.811666 0.228449 -0.537596
vn 0.796310 -0.144506 0.587374
vn 0.934649 -0.176276 0.308801
vn 0.811666 0.228449 0.537596
vn 0.309338 -0.032670 0.950391
vn 0.580842 -0.095025 0.808451
vn 0.365963 0.330810 0.869848
vn 0.330209 -0.066339 -0.941574
vn 0.330209 -0.066339 -0.941574
vn 0.330209 -0.066339 -0.941574
vn -0.966865 0.254931 -0.013479
vn -0.966865 0.254931 -0.013479
vn -0.966865 0.254931 -0.013479
vn -0.966865 0.254931 -0.013479
vn 0.505620 -0.120835 0.854252
vn 0.505620 -0.120835 0.854252
vn 0.505620 -0.120835 0.854252
vn 0.505620 -0.120835 0.854252
vn 0.718445 -0.132308 -0.682885
vn 0.718445 -0.132308 -0.682885
vn 0.718445 -0.132308 -0.682885
vn -0.294530 0.337594 0.894026
vn 0.013064 0.320206 0.947258
vn -0.231425 0.661772 0.713092
vn -0.990081 0.136994 -0.031178
vn -0.938589 0.219965 0.265832
vn -0.868030 0.478171 -0.133702
vn -0.312047 -0.203660 -0.927981
vn -0.587817 -0.134991 -0.797652
vn -0.247457 0.166388 -0.954505
vn 0.302240 -0.266293 -0.915281
vn -0.005354 -0.248903 -0.968513
vn 0.314770 0.109063 -0.942881
vn 0.802552 -0.213595 -0.557034
vn 0.580625 -0.254125 -0.773495
vn 0.772684 0.157296 -0.614995
vn 0.813379 0.120922 0.569028
vn 0.951990 0.027203 0.304918
vn 0.782592 0.463460 0.415638
vn -0.053293 -0.252473 -0.966135
vn -0.053293 -0.252473 -0.966135
vn -0.053293 -0.252473 -0.966135
vn -0.940322 0.189850 0.282402
vn -0.940322 0.189850 0.282402
vn -0.940322 0.189850 0.282402
vn -0.940322 0.189850 0.282402
vn 0.290028 0.260037 0.921013
vn 0.290028 0.260037 0.921013
vn 0.290028 0.260037 0.921013
vn 0.986618 -0.127657 -0.101433
vn 0.986618 -0.127657 -0.101433
vn 0.986618 -0.127657 -0.101433
vn 0.986618 -0.127657 -0.101433
vn 0.042965 -0.079898 0.995877
vn 0.343236 -0.013796 0.939148
vn -0.031345 0.287257 0.957340
vn -0.923344 -0.185440 0.336226
vn -0.770229 -0.190101 0.608777
vn -0.915763 0.190658 0.353593
vn -0.954312 -0.113553 -0.276396
vn -0.986775 -0.159065 0.031217
vn -0.944106 0.256454 -0.207111
vn -0.057248 0.152735 -0.986608
vn -0.357519 0.086634 -0.929879
vn -0.123066 0.500175 -0.857134
vn 0.909061 0.258280 -0.326954
vn 0.755947 0.262937 -0.599507
vn 0.761352 0.596774 -0.253386
vn 0.609211 0.057219 0.790941
vn 0.814851 0.126198 0.565767
vn 0.486911 0.412755 0.769773
vn -0.023222 0.131076 -0.991100
vn -0.023222 0.131076 -0.991100
vn -0.023222 0.131076 -0.991100
vn -0.927135 -0.189999 0.322988
vn -0.927135 -0.189999 0.322988
vn -0.927135 -0.189999 0.322988
vn -0.927135 -0.189999 0.322988
vn 0.777008 0.068012 0.625806
vn 0.777008 0.068012 0.625806
vn 0.777008 0.068012 0.625806
vn 0.777008 0.068012 0.625806
vn 0.423621 0.227374 -0.876839
vn 0.423621 0.227374 -0.876839
vn 0.423621 0.227374 -0.876839
vn -0.610005 0.231669 0.757775
vn -0.339171 0.306606 0.889357
vn -0.589649 0.575455 0.566714
vn -0.957236 0.058217 0.283390
vn -0.822976 0.146079 0.548973
vn -0.892631 0.424109 0.152781
vn -0.946048 -0.090549 -0.311119
vn -0.999644 -0.023319 -0.012978
vn -0.882868 0.294299 -0.365967
vn -0.580712 -0.157806 -0.798668
vn -0.801694 -0.136889 -0.581849
vn -0.564089 0.235612 -0.791385
vn -0.000777 -0.117868 -0.993029
vn -0.304736 -0.151252 -0.940350
vn -0.058057 0.270463 -0.960978
vn 0.572243 0.014015 -0.819965
vn 0.301409 -0.060920 -0.951547
vn 0.441941 0.385539 -0.809968
vn 0.919475 0.187465 -0.345576
vn 0.785214 0.099602 -0.611162
vn 0.744923 0.536887 -0.396034
vn 0.908285 0.336232 0.248931
vn 0.961882 0.269002 -0.049210
vn 0.735160 0.666695 0.122713
vn -0.036985 0.363553 0.930839
vn 0.244675 0.497438 0.832280
vn -0.089651 0.690531 0.717725
vn 0.348656 -0.169305 -0.921832
vn 0.348656 -0.169305 -0.921832
vn 0.348656 -0.169305 -0.921832
vn -0.955797 -0.152793 -0.251210
vn -0.955797 -0.152793 -0.251210
vn -0.955797 -0.152793 -0.251210
vn -0.955797 -0.152793 -0.251210
vn -0.562304 0.151376 0.812957
vn -0.562304 0.151376 0.812957
vn -0.562304 0.151376 0.812957
vn 0.697227 0.291244 0.655020
vn 0.697227 0.291244 0.655020
vn 0.697227 0.291244 0.655020
vn 0.697227 0.291244 0.655020
vn 0.729060 -0.025127 -0.683989
vn 0.729060 -0.025127 -0.683989
vn 0.729060 -0.025127 -0.683989
vn -0.258221 0.551198 0.793412
vn 0.052100 0.584260 0.809893
vn -0.252350 0.857778 0.447813
vn -0.998401 0.019240 0.053162
vn -0.932684 0.188433 0.307561
vn -0.897624 0.394026 -0.197521
vn -0.362819 -0.483996 -0.796311
vn -0.632524 -0.412488 -0.655566
vn -0.343536 -0.044684 -0.938076
vn 0.252441 -0.471150 -0.845158
vn -0.057880 -0.504210 -0.861639
vn 0.192835 -0.033485 -0.980660
vn 0.770172 -0.263054 -0.581065
vn 0.537769 -0.388052 -0.748479
vn 0.644183 0.147930 -0.750430
vn 0.834818 0.376735 0.401436
vn 0.960890 0.227973 0.157224
vn 0.700539 0.705683 0.106097
vn -0.473427 -0.489770 -0.732115
vn -0.473427 -0.489770 -0.732115
vn -0.473427 -0.489770 -0.732115
vn -0.977758 -0.108688 -0.179375
vn -0.977758 -0.108688 -0.179375
vn -0.977758 -0.108688 -0.179375
vn -0.500099 0.432074 0.750475
vn -0.500099 0.432074 0.750475
vn -0.500099 0.432074 0.750475
vn 0.330227 0.562406 0.758056
vn 0.330227 0.562406 0.758056
vn 0.330227 0.562406 0.758056
vn 0.955695 -0.087922 -0.280921
vn 0.955695 -0.087922 -0.280921
vn 0.955695 -0.087922 -0.280921
vn 0.955695 -0.087922 -0.280921
vn -0.402693 0.473294 0.783473
vn -0.128390 0.393351 0.910380
vn -0.218239 0.766261 0.604331
vn -0.895337 0.349777 -0.275733
vn -0.895103 0.445318 0.021942
vn -0.666120 0.653965 -0.358629
vn -0.129868 -0.209886 -0.969063
vn -0.404026 -0.070892 -0.911996
vn 0.029796 0.145158 -0.988960
vn 0.835863 -0.432258 -0.338359
vn 0.666191 -0.441896 -0.600765
vn 0.907775 -0.057007 -0.415565
vn 0.667249 -0.010026 0.744768
vn 0.836543 -0.154977 0.525526
vn 0.754481 0.326856 0.569143
vn -0.251755 -0.180933 -0.950727
vn -0.251755 -0.180933 -0.950727
vn -0.251755 -0.180933 -0.950727
vn -0.819208 0.256318 -0.513029
vn -0.819208 0.256318 -0.513029
vn -0.819208 0.256318 -0.513029
vn -0.624478 0.463614 0.628561
vn -0.624478 0.463614 0.628561
vn -0.624478 0.463614 0.628561
vn 0.131075 0.285157 0.949476
vn 0.131075 0.285157 0.949476
vn 0.131075 0.285157 0.949476
vn 0.926015 -0.375295 0.040626
vn 0.926015 -0.375295 0.040626
vn 0.926015 -0.375295 0.040626
vn 0.926015 -0.375295 0.040626
s off
g polySurface52
usemtl lambert2SG
f 2/1/1 1/2/2 11/3/3
f 3/4/4 2/1/5 11/3/6
f 4/5/7 3/4/8 11/3/9
f 5/6/10 4/5/11 11/3/12
f 6/7/13 5/6/14 11/3/15
f 7/8/16 6/7/17 11/3/18
f 8/9/19 7/8/20 11/3/21
f 9/10/22 8/9/23 11/3/24
f 10/11/25 9/10/26 11/3/27
f 1/2/28 10/11/29 11/3/30
f 12/12/31 13/13/32 16/14/33
f 13/13/34 14/15/35 17/16/36 16/14/37
f 14/15/38 15/17/39 18/18/40 17/16/41
f 15/17/42 12/19/43 16/20/44 18/18/45
f 20/23/46 19/21/47 25/22/48
f 21/24/49 20/23/50 25/22/51
f 22/25/52 21/24/53 25/22/54
f 23/26/55 22/25/56 25/22/57
f 24/27/58 23/26/59 25/22/60
f 19/21/61 24/27/62 25/22/63
f 28/28/64 26/29/65 29/30/66
f 26/29/67 27/31/68 30/32/69 29/30/70
f 27/31/71 28/33/72 31/34/73 30/32/74
f 28/33/75 29/35/76 31/34/77
f 33/38/78 32/36/79 38/37/80
f 34/39/81 33/38/82 38/37/83
f 35/40/84 34/39/85 38/37/86
f 36/41/87 35/40/88 38/37/89
f 37/42/90 36/41/91 38/37/92
f 32/36/93 37/42/94 38/37/95
f 39/43/96 40/44/97 42/45/98
f 40/44/99 41/46/100 43/47/101 42/45/102
f 41/46/103 44/48/104 43/47/105
f 41/46/106 39/49/107 42/50/108 44/48/109
f 46/53/110 45/51/111 51/52/112
f 47/54/113 46/53/114 51/52/115
f 48/55/116 47/54/117 51/52/118
f 49/56/119 48/55/120 51/52/121
f 50/57/122 49/56/123 51/52/124
f 45/51/125 50/57/126 51/52/127
f 54/58/128 52/59/129 55/60/130
f 52/59/131 53/61/132 56/62/133 55/60/134
f 53/61/135 54/63/136 57/64/137 56/62/138
f 54/63/139 55/65/140 57/64/141
f 59/66/142 58/67/143 67/68/144
f 60/69/145 59/66/146 67/68/147
f 61/70/148 60/69/149 67/68/150
f 62/71/151 61/70/152 67/68/153
f 63/72/154 62/71/155 67/68/156
f 64/73/157 63/72/158 67/68/159
f 65/74/160 64/73/161 67/68/162
f 66/75/163 65/74/164 67/68/165
f 58/67/166 66/75/167 67/68/168
f 71/76/169 68/77/170 72/78/171
f 68/77/172 69/79/173 73/80/174 72/78/175
f 69/79/176 70/81/177 73/80/178
f 70/81/179 71/82/180 74/83/181 73/80/182
f 71/82/183 72/84/184 74/83/185
f 76/85/186 75/86/187 81/87/188
f 77/88/189 76/85/190 81/87/191
f 78/89/192 77/88/193 81/87/194
f 79/90/195 78/89/196 81/87/197
f 80/91/198 79/90/199 81/87/200
f 75/86/201 80/91/202 81/87/203
f 82/92/204 83/93/205 85/94/206
f 83/93/207 86/95/208 85/94/209
f 83/93/210 84/96/211 86/95/212
f 84/96/213 87/97/214 86/95/215
f 84/96/216 82/98/217 85/99/218 87/97/219
f 89/100/220 88/101/221 93/102/222
f 90/103/223 89/100/224 93/102/225
f 91/104/226 90/103/227 93/102/228
f 92/105/229 91/104/230 93/102/231
f 88/101/232 92/105/233 93/102/234
f 94/106/235 95/107/236 97/108/237
f 95/107/238 98/109/239 97/108/240
f 95/107/241 96/110/242 98/109/243
f 96/110/244 99/111/245 98/109/246
f 96/110/247 94/112/248 97/113/249 99/111/250
