# This file uses centimeters as units for non-parametric coordinates.

mtllib shrooms19.mtl
g default
v 0.059517 -0.460105 -0.419246
v 1.611785 4.767613 -5.499960
v -1.562168 4.767612 -5.223550
v -4.169921 4.767613 -3.393244
v -5.129175 4.767613 -0.355116
v -3.705930 4.767613 3.550869
v 0.062414 4.767613 5.306428
v 3.968399 4.767612 3.883183
v 5.723958 4.767612 0.114848
v 4.300711 4.767612 -3.791143
v 1.411682 9.006264 -4.680930
v -2.384440 9.006264 -3.670775
v -4.303027 9.006265 -0.319342
v -3.096458 9.006265 2.991993
v 0.098185 9.006264 4.480287
v 3.409522 9.006264 3.273715
v 4.897814 9.006264 0.079072
v 3.691241 9.006264 -3.232263
v 0.181310 11.227532 -0.195747
v -0.422878 -1.335531 3.185743
v -1.454610 4.711731 2.835037
v -3.674016 4.102376 3.400687
v -4.968379 3.068432 5.095580
v -4.748419 1.721426 7.870640
v -2.430631 1.095149 9.819848
v 0.627250 1.556461 9.801390
v 2.633946 2.835137 7.826070
v 2.413982 4.182144 5.051007
v 0.852307 4.785219 3.373366
v -2.537472 6.566807 5.382533
v -4.159637 5.144020 7.762123
v -1.361827 4.388035 10.115028
v 1.060487 5.931531 7.730610
v -0.121561 6.834210 5.563202
v -1.788343 6.641860 8.225280
v 2.275004 -0.319030 -4.034447
v 4.145936 1.705570 -7.547707
v 1.782746 1.261163 -8.142402
v -0.122717 1.809316 -7.056524
v -0.005165 3.396756 -4.323794
v 3.759840 3.934909 -3.669680
v 5.303690 2.863564 -5.632617
v 3.525839 3.848653 -8.053759
v 1.181128 3.728211 -8.090357
v 0.590564 5.044500 -5.774111
v 3.252827 5.425035 -5.311577
v 4.344493 4.667477 -6.699588
v 2.197100 5.313677 -7.211603
v -2.638869 -0.319030 -2.218104
v -5.641763 1.705570 -4.830767
v -6.752365 1.261163 -2.661690
v -6.122514 1.809316 -0.560927
v -3.433276 3.396756 -0.061298
v -1.949722 3.934909 -3.582973
v -3.515465 2.863564 -5.528491
v -6.274234 3.848653 -4.340268
v -6.836863 3.728211 -2.063767
v -4.712601 5.044500 -0.967742
v -3.663564 5.425035 -3.457943
v -4.770717 4.667477 -4.833632
v -5.752253 5.313677 -2.856250
vt 0.233067 0.631796
vt 0.314848 0.676935
vt 0.327949 0.703286
vt 0.304148 0.657594
vt 0.295552 0.642282
vt 0.285798 0.623896
vt 0.277300 0.606171
vt 0.269519 0.587737
vt 0.261623 0.566977
vt 0.251714 0.540622
vt 0.240149 0.513513
vt 0.332918 0.647601
vt 0.363254 0.666113
vt 0.314670 0.629545
vt 0.304008 0.613959
vt 0.295993 0.597994
vt 0.289970 0.580842
vt 0.286110 0.561126
vt 0.286076 0.535984
vt 0.281608 0.519171
vt 0.335545 0.590551
vt 0.419097 0.871900
vt 0.461411 0.915991
vt 0.464060 0.936475
vt 0.459556 0.900659
vt 0.458539 0.888781
vt 0.457962 0.874993
vt 0.457874 0.862045
vt 0.458156 0.848850
vt 0.459178 0.833960
vt 0.461528 0.814529
vt 0.464467 0.794082
vt 0.481872 0.900754
vt 0.495325 0.917440
vt 0.474490 0.879875
vt 0.473651 0.856552
vt 0.481251 0.831465
vt 0.495307 0.813438
vt 0.498864 0.870539
vt 0.419097 0.871900
vt 0.460483 0.908325
vt 0.464060 0.936475
vt 0.458539 0.888781
vt 0.457962 0.874993
vt 0.458015 0.855447
vt 0.460353 0.824244
vt 0.464467 0.794082
vt 0.481872 0.900754
vt 0.495325 0.917440
vt 0.474490 0.879875
vt 0.473651 0.856552
vt 0.481251 0.831465
vt 0.495307 0.813438
vt 0.498864 0.870539
vt 0.419097 0.871900
vt 0.460483 0.908325
vt 0.464060 0.936475
vt 0.458539 0.888781
vt 0.457962 0.874993
vt 0.458015 0.855447
vt 0.460353 0.824244
vt 0.464467 0.794082
vt 0.481872 0.900754
vt 0.495325 0.917440
vt 0.474490 0.879875
vt 0.473651 0.856552
vt 0.481251 0.831465
vt 0.495307 0.813438
vt 0.498864 0.870539
vn -0.131289 -0.508532 -0.850975
vn -0.145626 -0.296400 -0.943896
vn 0.226673 -0.296399 -0.927775
vn -0.694566 -0.508531 -0.508895
vn -0.770408 -0.296399 -0.564463
vn -0.495754 -0.296399 -0.816318
vn -0.836441 -0.508531 -0.204358
vn -0.927775 -0.296399 -0.226673
vn -0.770408 -0.296399 -0.564463
vn -0.735956 -0.508531 0.446950
vn -0.816318 -0.296399 0.495754
vn -0.943897 -0.296399 0.145625
vn -0.204358 -0.508531 0.836441
vn -0.226673 -0.296399 0.927775
vn -0.564462 -0.296399 0.770409
vn 0.446950 -0.508531 0.735956
vn 0.495755 -0.296399 0.816318
vn 0.145626 -0.296399 0.943897
vn 0.836441 -0.508531 0.204358
vn 0.927775 -0.296399 0.226673
vn 0.770409 -0.296399 0.564462
vn 0.735956 -0.508532 -0.446950
vn 0.816318 -0.296399 -0.495755
vn 0.943897 -0.296399 -0.145626
vn 0.204358 -0.508532 -0.836441
vn 0.226673 -0.296399 -0.927775
vn 0.564462 -0.296399 -0.770409
vn 0.226673 -0.296399 -0.927775
vn -0.149546 0.195159 -0.969303
vn -0.126766 0.555712 -0.821653
vn 0.197317 0.555712 -0.807620
vn -0.495754 -0.296399 -0.816318
vn -0.791145 0.195159 -0.579657
vn -0.431549 0.555712 -0.710598
vn -0.770408 -0.296399 -0.564463
vn -0.952748 0.195159 -0.232774
vn -0.807620 0.555712 -0.197317
vn -0.670634 0.555712 -0.491360
vn -0.943897 -0.296399 0.145625
vn -0.838291 0.195159 0.509099
vn -0.710598 0.555712 0.431549
vn -0.821654 0.555712 0.126766
vn -0.564462 -0.296399 0.770409
vn -0.232774 0.195159 0.952748
vn -0.197317 0.555712 0.807620
vn -0.491360 0.555712 0.670634
vn 0.145626 -0.296399 0.943897
vn 0.509099 0.195159 0.838291
vn 0.431549 0.555712 0.710598
vn 0.126766 0.555712 0.821654
vn 0.770409 -0.296399 0.564462
vn 0.952748 0.195159 0.232774
vn 0.807620 0.555712 0.197317
vn 0.670634 0.555712 0.491360
vn 0.943897 -0.296399 -0.145626
vn 0.838291 0.195159 -0.509099
vn 0.710597 0.555712 -0.431550
vn 0.821654 0.555712 -0.126766
vn 0.564462 -0.296399 -0.770409
vn 0.226673 -0.296399 -0.927775
vn 0.197317 0.555712 -0.807620
vn 0.491360 0.555712 -0.670634
vn 0.197317 0.555712 -0.807620
vn -0.126766 0.555712 -0.821653
vn 0.046285 0.980799 -0.189447
vn -0.670634 0.555712 -0.491360
vn -0.807620 0.555712 -0.197317
vn -0.157313 0.980799 -0.115260
vn -0.821654 0.555712 0.126766
vn -0.710598 0.555712 0.431549
vn -0.192738 0.980800 0.029736
vn -0.491360 0.555712 0.670634
vn -0.197317 0.555712 0.807620
vn -0.115260 0.980799 0.157313
vn 0.126766 0.555712 0.821654
vn 0.431549 0.555712 0.710598
vn 0.029736 0.980800 0.192738
vn 0.670634 0.555712 0.491360
vn 0.807620 0.555712 0.197317
vn 0.157313 0.980799 0.115260
vn 0.821654 0.555712 -0.126766
vn 0.710597 0.555712 -0.431550
vn 0.192738 0.980800 -0.029736
vn 0.491360 0.555712 -0.670634
vn 0.197317 0.555712 -0.807620
vn 0.115260 0.980799 -0.157313
vn 0.172780 -0.058534 -0.983220
vn 0.156515 0.172679 -0.972463
vn 0.507081 0.161920 -0.846552
vn -0.457183 -0.210950 -0.863993
vn -0.542237 0.003620 -0.840218
vn -0.211957 0.117091 -0.970239
vn -0.675185 -0.349863 -0.649401
vn -0.784044 -0.150459 -0.602194
vn -0.542237 0.003620 -0.840218
vn -0.756339 -0.650569 -0.068635
vn -0.874059 -0.484002 0.041987
vn -0.900564 -0.321689 -0.292405
vn -0.355339 -0.834623 0.420878
vn -0.429272 -0.688154 0.584953
vn -0.708563 -0.612688 0.350075
vn 0.292914 -0.794207 0.532388
vn 0.289766 -0.643324 0.708640
vn -0.078706 -0.698912 0.710864
vn 0.808682 -0.552995 0.200575
vn 0.861853 -0.375774 0.340594
vn 0.620046 -0.529853 0.578618
vn 0.889835 -0.252288 -0.380191
vn 0.951868 -0.042231 -0.303587
vn 0.978373 -0.204544 0.030805
vn 0.488835 -0.068234 -0.869704
vn 0.507081 0.161920 -0.846552
vn 0.786371 0.086454 -0.611675
vn 0.455163 0.609723 -0.648896
vn 0.095160 0.620770 -0.778196
vn 0.029438 0.872667 -0.487427
vn 0.334603 0.863303 -0.377823
vn -0.283229 0.563686 -0.775912
vn -0.622399 0.447161 -0.642391
vn -0.291313 0.824279 -0.485491
vn -0.622399 0.447161 -0.642391
vn -0.870715 0.288934 -0.397960
vn -0.789310 0.591379 -0.165111
vn -0.578819 0.725503 -0.372309
vn -0.990372 0.113095 -0.079832
vn -0.963153 -0.053587 0.263562
vn -0.890740 0.442325 0.104558
vn -0.793203 -0.185736 0.579941
vn -0.506394 -0.263233 0.821141
vn -0.480484 0.123320 0.868290
vn -0.723604 0.189013 0.663830
vn -0.146392 -0.274281 0.950442
vn 0.231998 -0.217197 0.948157
vn -0.175319 0.113955 0.977894
vn 0.571168 -0.100671 0.814636
vn 0.819484 0.057555 0.570205
vn 0.643428 0.395244 0.655578
vn 0.432938 0.261120 0.862775
vn 0.939140 0.233394 0.252077
vn 0.911921 0.400076 -0.091316
vn 0.744858 0.544299 0.385909
vn 0.741971 0.532226 -0.407695
vn 0.455163 0.609723 -0.648896
vn 0.334603 0.863303 -0.377823
vn 0.577723 0.797610 -0.173364
vn 0.163124 0.985374 -0.049285
vn -0.040751 0.991630 -0.122510
vn -0.033137 0.957456 0.286670
vn -0.447116 0.893313 -0.045602
vn -0.587741 0.803707 0.092823
vn -0.247402 0.925132 0.287963
vn -0.543845 0.534894 0.646624
vn -0.381421 0.491006 0.783219
vn -0.281366 0.799286 0.531014
vn 0.228820 0.583067 0.779535
vn 0.369444 0.672673 0.641110
vn -0.010070 0.816200 0.577682
vn 0.325548 0.941486 0.087310
vn 0.163124 0.985374 -0.049285
vn 0.023893 0.942046 0.334631
vn 0.820616 -0.570690 -0.030032
vn 0.900425 -0.401533 -0.167351
vn 0.965044 -0.215577 0.149052
vn 0.037495 -0.870561 -0.490629
vn 0.031792 -0.734149 -0.678244
vn 0.395353 -0.682183 -0.615080
vn -0.576330 -0.770364 -0.272733
vn -0.649059 -0.623011 -0.436554
vn -0.334956 -0.713370 -0.615554
vn -0.841644 -0.476513 0.254106
vn -0.943344 -0.297074 0.147813
vn -0.862697 -0.476827 -0.168495
vn -0.000264 -0.008992 0.999960
vn -0.010092 0.221498 0.975109
vn -0.373652 0.169533 0.911945
vn 0.878875 -0.403039 0.255223
vn 0.965044 -0.215577 0.149052
vn 0.884396 -0.035824 0.465360
vn 0.972734 0.210618 -0.097097
vn 0.906375 0.019656 -0.422016
vn 0.754025 0.354176 -0.553179
vn 0.810275 0.516050 -0.277753
vn 0.387708 -0.268547 -0.881796
vn 0.014361 -0.321912 -0.946661
vn -0.002113 0.064637 -0.997907
vn 0.314363 0.109873 -0.942923
vn -0.362258 -0.300575 -0.882283
vn -0.684816 -0.207783 -0.698465
vn -0.321364 0.082724 -0.943336
vn -0.904204 -0.057664 -0.423191
vn -0.987022 0.126928 -0.098368
vn -0.850960 0.445107 -0.278831
vn -0.780757 0.288633 -0.554175
vn -0.401995 0.606093 0.686331
vn -0.028649 0.659458 0.751195
vn -0.038572 0.896520 0.441322
vn -0.355048 0.851284 0.386339
vn 0.889916 0.395211 0.227725
vn 0.972734 0.210618 -0.097097
vn 0.810275 0.516050 -0.277753
vn 0.740072 0.672523 -0.002410
vn 0.524480 0.742834 -0.416076
vn 0.486900 0.634689 -0.600082
vn 0.158938 0.856513 -0.491044
vn 0.193170 0.471475 -0.860463
vn -0.018261 0.441253 -0.897197
vn 0.042610 0.761235 -0.647075
vn -0.538459 0.590901 -0.600748
vn -0.585361 0.695438 -0.416796
vn -0.214276 0.803167 -0.555885
vn -0.254051 0.966797 0.027592
vn -0.042619 0.997019 0.064325
vn -0.114416 0.935151 -0.335265
vn 0.477578 0.847371 -0.232124
vn 0.524480 0.742834 -0.416076
vn 0.142470 0.893218 -0.426455
vn 0.155168 -0.570690 -0.806372
vn 0.039298 -0.401533 -0.915001
vn 0.362129 -0.215577 -0.906856
vn -0.469650 -0.870561 -0.146803
vn -0.653747 -0.734149 -0.183412
vn -0.510490 -0.682183 -0.523476
vn -0.395284 -0.770364 0.500290
vn -0.571260 -0.623011 0.534340
vn -0.675087 -0.713370 0.188043
vn 0.058449 -0.476513 0.877222
vn -0.067982 -0.297074 0.952431
vn -0.358073 -0.476827 0.802758
vn 0.974318 -0.008992 0.224996
vn 0.947894 0.221498 0.228986
vn 0.804637 0.169533 0.569050
vn 0.446218 -0.403039 -0.799030
vn 0.362129 -0.215577 -0.906856
vn 0.652220 -0.035824 -0.757183
vn 0.124006 0.210618 -0.969671
vn -0.207515 0.019656 -0.978034
vn -0.369562 0.354176 -0.859060
vn -0.088541 0.516050 -0.851970
vn -0.772101 -0.268547 -0.575971
vn -0.919215 -0.321912 -0.226753
vn -0.972852 0.064637 -0.222218
vn -0.848148 0.109873 -0.518240
vn -0.941128 -0.300575 0.154700
vn -0.834507 -0.207783 0.510319
vn -0.991428 0.082724 0.101130
vn -0.615581 -0.057664 0.785961
vn -0.317682 0.126928 0.939664
vn -0.462949 0.445107 0.766523
vn -0.715470 0.288633 0.636234
vn 0.578426 0.606093 0.545962
vn 0.725539 0.659458 0.196745
vn 0.421363 0.896520 0.136771
vn 0.296659 0.851283 0.432793
vn 0.421905 0.395211 -0.815969
vn 0.124006 0.210618 -0.969671
vn -0.088541 0.516050 -0.851970
vn 0.163981 0.672523 -0.721681
vn -0.287556 0.742834 -0.604574
vn -0.475301 0.634689 -0.609310
vn -0.442760 0.856513 -0.265233
vn -0.795036 0.471475 -0.381615
vn -0.878348 0.441253 -0.183848
vn -0.620944 0.761235 -0.186948
vn -0.706396 0.590901 0.389667
vn -0.537691 0.695438 0.476712
vn -0.589822 0.803167 0.083861
vn -0.030211 0.966797 0.253753
vn 0.053101 0.997018 0.055986
vn -0.352402 0.935151 0.036140
vn -0.118851 0.847371 -0.517530
vn -0.287556 0.742834 -0.604574
vn -0.383525 0.893218 -0.234670
s off
g polySurface129
usemtl lambert2SG
f 1/1/1 3/2/2 2/3/3
f 1/1/4 4/4/5 3/2/6
f 1/1/7 5/5/8 4/4/9
f 1/1/10 6/6/11 5/5/12
f 1/1/13 7/7/14 6/6/15
f 1/1/16 8/8/17 7/7/18
f 1/1/19 9/9/20 8/8/21
f 1/1/22 10/10/23 9/9/24
f 1/1/25 2/11/26 10/10/27
f 2/3/28 3/2/29 12/12/30 11/13/31
f 3/2/32 4/4/33 12/12/34
f 4/4/35 5/5/36 13/14/37 12/12/38
f 5/5/39 6/6/40 14/15/41 13/14/42
f 6/6/43 7/7/44 15/16/45 14/15/46
f 7/7/47 8/8/48 16/17/49 15/16/50
f 8/8/51 9/9/52 17/18/53 16/17/54
f 9/9/55 10/10/56 18/19/57 17/18/58
f 10/10/59 2/11/60 11/20/61 18/19/62
f 11/13/63 12/12/64 19/21/65
f 12/12/66 13/14/67 19/21/68
f 13/14/69 14/15/70 19/21/71
f 14/15/72 15/16/73 19/21/74
f 15/16/75 16/17/76 19/21/77
f 16/17/78 17/18/79 19/21/80
f 17/18/81 18/19/82 19/21/83
f 18/19/84 11/20/85 19/21/86
f 20/22/87 21/23/88 29/24/89
f 20/22/90 22/25/91 21/23/92
f 20/22/93 23/26/94 22/25/95
f 20/22/96 24/27/97 23/26/98
f 20/22/99 25/28/100 24/27/101
f 20/22/102 26/29/103 25/28/104
f 20/22/105 27/30/106 26/29/107
f 20/22/108 28/31/109 27/30/110
f 20/22/111 29/32/112 28/31/113
f 29/24/114 21/23/115 30/33/116 34/34/117
f 21/23/118 22/25/119 30/33/120
f 22/25/121 23/26/122 31/35/123 30/33/124
f 23/26/125 24/27/126 31/35/127
f 24/27/128 25/28/129 32/36/130 31/35/131
f 25/28/132 26/29/133 32/36/134
f 26/29/135 27/30/136 33/37/137 32/36/138
f 27/30/139 28/31/140 33/37/141
f 28/31/142 29/32/143 34/38/144 33/37/145
f 34/34/146 30/33/147 35/39/148
f 30/33/149 31/35/150 35/39/151
f 31/35/152 32/36/153 35/39/154
f 32/36/155 33/37/156 35/39/157
f 33/37/158 34/38/159 35/39/160
f 36/40/161 37/41/162 42/42/163
f 36/40/164 38/43/165 37/41/166
f 36/40/167 39/44/168 38/43/169
f 36/40/170 40/45/171 39/44/172
f 36/40/173 41/46/174 40/45/175
f 36/40/176 42/47/177 41/46/178
f 42/42/179 37/41/180 43/48/181 47/49/182
f 37/41/183 38/43/184 44/50/185 43/48/186
f 38/43/187 39/44/188 44/50/189
f 39/44/190 40/45/191 45/51/192 44/50/193
f 40/45/194 41/46/195 46/52/196 45/51/197
f 41/46/198 42/47/199 47/53/200 46/52/201
f 47/49/202 43/48/203 48/54/204
f 43/48/205 44/50/206 48/54/207
f 44/50/208 45/51/209 48/54/210
f 45/51/211 46/52/212 48/54/213
f 46/52/214 47/53/215 48/54/216
f 49/55/217 50/56/218 55/57/219
f 49/55/220 51/58/221 50/56/222
f 49/55/223 52/59/224 51/58/225
f 49/55/226 53/60/227 52/59/228
f 49/55/229 54/61/230 53/60/231
f 49/55/232 55/62/233 54/61/234
f 55/57/235 50/56/236 56/63/237 60/64/238
f 50/56/239 51/58/240 57/65/241 56/63/242
f 51/58/243 52/59/244 57/65/245
f 52/59/246 53/60/247 58/66/248 57/65/249
f 53/60/250 54/61/251 59/67/252 58/66/253
f 54/61/254 55/62/255 60/68/256 59/67/257
f 60/64/258 56/63/259 61/69/260
f 56/63/261 57/65/262 61/69/263
f 57/65/264 58/66/265 61/69/266
f 58/66/267 59/67/268 61/69/269
f 59/67/270 60/68/271 61/69/272
