# This file uses centimeters as units for non-parametric coordinates.

mtllib shrooms22.mtl
g default
v 2.928847 7.336687 1.526756
v 3.500044 8.895716 -0.249193
v 1.746039 9.176247 0.327961
v 1.746038 9.176247 2.195670
v 3.500043 8.895716 2.772825
v 4.584078 8.722337 1.261816
v 3.356225 9.954206 1.261816
v 1.129004 -0.841127 0.740817
v 1.787350 -0.946421 1.016978
v 3.091249 7.989264 1.918296
v 2.440969 8.093268 1.158986
v 3.430960 7.934932 1.087737
v 0.107959 -0.873177 0.209827
v 0.184675 -0.873177 1.289305
v 1.002226 -0.873177 0.580245
v 1.002226 14.014195 0.580245
v 0.107959 14.014195 0.209827
v -0.262458 14.014195 1.104096
v 0.631808 14.014195 1.474513
v 0.916848 16.195721 2.162661
v -0.950608 16.195721 1.389135
v -0.177081 16.195721 -0.478323
v 1.690375 16.195721 0.295204
v 0.359453 15.782826 -0.869532
v -1.660560 15.782826 0.879851
v 0.359453 15.782826 2.629233
v 2.379466 15.782826 0.879851
v 1.787819 17.802838 -1.594150
v -1.068911 17.802838 -1.594150
v -2.497277 17.802838 0.879850
v -1.068912 17.802838 3.353851
v 1.787818 17.802838 3.353852
v 3.216183 17.802838 0.879851
v -0.650554 19.822852 -0.869532
v -1.155557 19.822852 1.754542
v 1.369459 19.822852 2.629234
v 1.874463 19.822852 0.005160
v 0.359453 14.946107 0.879851
v 0.359453 20.659568 0.879851
v 2.685338 5.925460 -2.315371
v 0.318575 8.614316 -3.663705
v 1.044429 9.219280 -0.972554
v 3.888227 9.112434 -0.781429
v 4.919937 8.441438 -3.354457
v 2.713769 8.133584 -5.135802
v 2.926415 10.190687 -3.209992
v -0.073229 -1.421073 -0.069211
v 0.649040 -1.481241 -0.158719
v 3.475204 7.178930 -2.717557
v 2.373523 7.433238 -1.901744
v 2.353383 7.109853 -3.257819
v -0.509425 -1.027275 0.017403
v -0.855112 -0.856059 0.905161
v 0.203672 -0.687908 0.757321
v -1.698472 9.790323 -2.531935
v -2.584413 9.536565 -2.827975
v -2.930100 9.707782 -1.940218
v -2.044159 9.961540 -1.644179
v -2.156704 12.262337 -1.557483
v -4.006772 11.732427 -2.175688
v -3.284889 11.374883 -4.029546
v -1.434822 11.904795 -3.411340
v -2.688872 10.973632 -4.338022
v -4.637545 11.082504 -2.512752
v -2.617802 11.896417 -0.963889
v -0.669129 11.787544 -2.789160
v -1.676957 12.948121 -5.650719
v -4.483051 12.449582 -5.455270
v -5.835845 12.852819 -2.971673
v -4.382544 13.754597 -0.683525
v -1.576449 14.253137 -0.878974
v -0.223657 13.849897 -3.362572
v -2.449595 14.982562 -5.439457
v -4.912087 14.772605 -4.423168
v -4.362733 15.552826 -1.927120
v -1.900240 15.762778 -2.943408
v -2.497422 10.641253 -2.437153
v -3.562080 16.061466 -3.897091
v -2.006458 5.344165 2.787145
v -2.017252 7.678469 5.583107
v -0.235187 8.654430 3.701246
v -1.553330 8.802011 1.270120
v -4.150053 7.917259 1.649463
v -4.436771 7.222874 4.315035
v -2.554483 9.096516 5.212930
v -1.760405 9.838802 3.022721
v -4.062601 9.265366 2.431425
v -4.265342 8.774362 4.316268
v -3.047214 9.904461 3.724408
v 0.728926 -0.833060 2.141911
v -0.164472 -0.964857 2.161451
v -2.780014 6.643511 2.341728
v -1.351679 6.945508 2.945042
v -2.608163 6.382962 3.719716
vt 0.294337 0.266153
vt 0.293109 0.224494
vt 0.330826 0.252453
vt 0.254864 0.251724
vt 0.268943 0.296513
vt 0.315890 0.296963
vt 0.163592 0.597934
vt 0.211525 0.613508
vt 0.174330 0.639044
vt 0.211525 0.663909
vt 0.163592 0.679484
vt 0.133967 0.638709
vt 0.257374 0.051519
vt 0.274296 0.051591
vt 0.287834 0.051577
vt 0.273860 0.186406
vt 0.260155 0.184086
vt 0.287787 0.178889
vt 0.253966 0.178935
vt 0.260758 0.051545
vt 0.269785 0.051585
vt 0.269459 0.169849
vt 0.259574 0.168520
vt 0.283321 0.051587
vt 0.279568 0.169310
vt 0.288735 0.167095
vt 0.253991 0.051494
vt 0.252981 0.166417
vt 0.267809 0.188814
vt 0.250301 0.184761
vt 0.285396 0.187524
vt 0.303328 0.177127
vt 0.238425 0.177194
vt 0.305688 0.271561
vt 0.332937 0.262634
vt 0.317220 0.299975
vt 0.297206 0.252744
vt 0.308457 0.230353
vt 0.279793 0.263827
vt 0.268261 0.235413
vt 0.252545 0.272754
vt 0.288275 0.282644
vt 0.277024 0.305035
vt 0.198546 0.675101
vt 0.155744 0.675101
vt 0.170491 0.653115
vt 0.134343 0.638034
vt 0.164084 0.632271
vt 0.155744 0.600966
vt 0.198546 0.600966
vt 0.183798 0.622952
vt 0.219947 0.638034
vt 0.190206 0.643796
vt 0.292741 0.267694
vt 0.177145 0.638034
vt 0.291585 0.266494
vt 0.293109 0.224494
vt 0.330826 0.252453
vt 0.254864 0.251724
vt 0.268943 0.296513
vt 0.315890 0.296963
vt 0.163592 0.597934
vt 0.211525 0.613508
vt 0.176384 0.641199
vt 0.211525 0.663909
vt 0.163592 0.679484
vt 0.133967 0.638709
vt 0.267527 0.051568
vt 0.276602 0.188169
vt 0.250301 0.184761
vt 0.287834 0.051577
vt 0.303328 0.177127
vt 0.253991 0.051494
vt 0.238425 0.177194
vt 0.257374 0.051519
vt 0.269785 0.051585
vt 0.269459 0.169849
vt 0.259574 0.168520
vt 0.278808 0.051597
vt 0.279568 0.169310
vt 0.287834 0.051577
vt 0.288735 0.167095
vt 0.252981 0.166417
vt 0.267809 0.188814
vt 0.250301 0.184761
vt 0.285396 0.187524
vt 0.303328 0.177127
vt 0.238425 0.177194
vt 0.305688 0.271561
vt 0.332937 0.262634
vt 0.317220 0.299975
vt 0.297206 0.252744
vt 0.308457 0.230353
vt 0.279793 0.263827
vt 0.268261 0.235413
vt 0.252545 0.272754
vt 0.288275 0.282644
vt 0.277024 0.305035
vt 0.198546 0.675101
vt 0.155744 0.675101
vt 0.165624 0.646464
vt 0.186879 0.651337
vt 0.134343 0.638034
vt 0.155744 0.600966
vt 0.167411 0.624731
vt 0.198546 0.600966
vt 0.188666 0.629604
vt 0.219947 0.638034
vt 0.292741 0.267694
vt 0.177145 0.638034
vt 0.294337 0.266153
vt 0.293109 0.224494
vt 0.330826 0.252453
vt 0.254864 0.251724
vt 0.268943 0.296513
vt 0.315890 0.296963
vt 0.163592 0.597934
vt 0.211525 0.613508
vt 0.189390 0.637032
vt 0.170075 0.624596
vt 0.211525 0.663909
vt 0.163592 0.679484
vt 0.174018 0.654102
vt 0.133967 0.638709
vt 0.161328 0.640782
vt 0.176840 0.638709
vt 0.257374 0.051519
vt 0.274296 0.051591
vt 0.276602 0.188169
vt 0.250301 0.184761
vt 0.287834 0.051577
vt 0.303328 0.177127
vt 0.238425 0.177194
vn -0.328671 -0.654836 -0.680563
vn -0.328671 -0.654836 -0.680563
vn -0.328671 -0.654836 -0.680563
vn -0.841130 -0.540833 0.000000
vn -0.841130 -0.540833 0.000000
vn -0.841130 -0.540833 0.000000
vn -0.341488 -0.507285 0.791232
vn -0.341488 -0.507285 0.791232
vn -0.341488 -0.507285 0.791232
vn 0.600874 -0.621712 0.502419
vn 0.600874 -0.621712 0.502419
vn 0.600874 -0.621712 0.502419
vn 0.525790 -0.715914 -0.459360
vn 0.525790 -0.715914 -0.459360
vn 0.525790 -0.715914 -0.459360
vn -0.059367 0.814924 -0.576519
vn -0.059367 0.814924 -0.576519
vn -0.059367 0.814924 -0.576519
vn -0.435034 0.900414 0.000000
vn -0.435034 0.900414 0.000000
vn -0.435034 0.900414 0.000000
vn -0.059367 0.814924 0.576519
vn -0.059367 0.814924 0.576519
vn -0.059367 0.814924 0.576519
vn 0.651335 0.649212 0.392793
vn 0.651335 0.649212 0.392793
vn 0.651335 0.649212 0.392793
vn 0.651336 0.649212 -0.392792
vn 0.651336 0.649212 -0.392792
vn 0.651336 0.649212 -0.392792
vn 0.698233 -0.111674 -0.707107
vn 0.000000 0.000000 -1.000000
vn 0.000000 0.000000 -1.000000
vn 0.698233 -0.111674 -0.707107
vn -0.698233 0.111674 0.707106
vn 0.000000 0.000000 1.000000
vn 0.000000 0.000000 1.000000
vn -0.698233 0.111674 0.707106
vn 0.987450 -0.157931 0.000000
vn 0.987450 -0.157931 0.000001
vn 0.698233 -0.111674 0.707106
vn 0.707107 0.000000 -0.707107
vn 0.000000 0.000000 -1.000000
vn 0.000000 -0.256353 -0.966583
vn 0.683478 -0.256353 -0.683477
vn -0.707107 0.000000 -0.707106
vn -1.000000 0.000000 0.000000
vn -0.966583 -0.256353 0.000000
vn -0.683478 -0.256353 -0.683477
vn 0.000000 0.000000 1.000000
vn 0.000000 -0.256353 0.966583
vn -0.683478 -0.256353 0.683477
vn 0.707107 0.000000 0.707107
vn 1.000000 0.000000 0.000000
vn 0.966583 -0.256353 0.000000
vn 0.683478 -0.256353 0.683477
vn 0.683478 -0.256353 -0.683477
vn 0.000000 -0.256353 -0.966583
vn 0.000000 0.000000 -1.000000
vn 0.707107 0.000000 -0.707107
vn -0.683478 -0.256353 -0.683477
vn -0.966583 -0.256353 0.000000
vn -1.000000 0.000000 0.000001
vn -0.707107 0.000000 -0.707107
vn -0.683478 -0.256353 0.683477
vn 0.000000 -0.256353 0.966583
vn 0.000000 0.000000 1.000000
vn -0.707107 0.000000 0.707106
vn 0.683478 -0.256353 0.683477
vn 0.966583 -0.256353 0.000000
vn 1.000000 0.000000 0.000001
vn 0.707107 0.000000 0.707106
vn -0.293826 0.309677 -0.904304
vn -0.809017 0.000000 -0.587785
vn -1.000000 0.000000 0.000000
vn -0.769247 0.309677 -0.558891
vn -0.809017 0.000000 0.587785
vn -0.309017 0.000000 0.951056
vn -0.293826 0.309678 0.904304
vn -0.769247 0.309678 0.558891
vn -0.309017 0.000000 0.951056
vn 0.309017 0.000000 0.951057
vn -0.293826 0.309678 0.904304
vn 0.309017 0.000000 0.951057
vn 0.809017 0.000000 0.587785
vn 0.769247 0.309678 0.558891
vn 0.293826 0.309678 0.904304
vn 1.000000 0.000000 0.000000
vn 0.809017 0.000000 -0.587785
vn 0.950842 0.309678 0.000000
vn -0.249423 -0.951288 -0.181216
vn -0.095270 -0.951287 -0.293218
vn 0.000000 -1.000000 0.000000
vn -0.308305 -0.951288 0.000001
vn -0.249423 -0.951288 -0.181216
vn 0.000000 -1.000000 0.000000
vn 0.095271 -0.951287 0.293217
vn -0.095271 -0.951287 0.293217
vn 0.000000 -1.000000 0.000000
vn 0.249423 -0.951288 -0.181217
vn 0.308304 -0.951288 -0.000001
vn 0.000000 -1.000000 0.000000
vn 0.249422 0.951288 -0.181220
vn 0.095270 0.951288 -0.293215
vn -0.095270 0.951288 -0.293215
vn -0.249423 0.951287 -0.181220
vn 0.000000 1.000000 -0.000001
vn -0.249424 0.951288 0.181216
vn -0.095271 0.951288 0.293214
vn 0.000000 1.000000 -0.000001
vn 0.095271 0.951288 0.293214
vn 0.249423 0.951287 0.181219
vn 0.000000 1.000000 -0.000001
vn 0.707107 0.000000 -0.707107
vn 0.000000 0.000000 -1.000000
vn 0.683478 -0.256353 -0.683477
vn -0.707107 0.000000 -0.707106
vn -1.000000 0.000000 0.000000
vn -0.966583 -0.256353 0.000000
vn -0.683478 -0.256353 -0.683477
vn -0.707107 0.000000 0.707106
vn 0.000000 0.000000 1.000000
vn 0.000000 -0.256353 0.966583
vn -0.683478 -0.256353 0.683477
vn 0.707107 0.000000 0.707107
vn 1.000000 0.000000 0.000000
vn 0.966583 -0.256353 0.000000
vn 0.683478 -0.256353 0.683477
vn 0.683478 -0.256353 -0.683477
vn 0.000000 -0.256353 -0.966583
vn 0.000000 0.000000 -1.000000
vn 0.707107 0.000000 -0.707107
vn -0.683478 -0.256353 -0.683477
vn -0.966583 -0.256353 0.000000
vn 0.000000 -0.256353 0.966583
vn 0.000000 0.000000 1.000000
vn -0.707107 0.000000 0.707106
vn 0.683478 -0.256353 0.683477
vn 0.966583 -0.256353 0.000000
vn 1.000000 0.000000 0.000001
vn -0.784512 -0.525224 0.329666
vn -0.784512 -0.525224 0.329666
vn -0.784512 -0.525224 0.329666
vn -0.076478 -0.408841 0.909396
vn -0.076478 -0.408841 0.909396
vn -0.076478 -0.408841 0.909396
vn 0.755575 -0.492869 0.431494
vn 0.755575 -0.492869 0.431494
vn 0.755575 -0.492869 0.431494
vn 0.517622 -0.676226 -0.524201
vn 0.517622 -0.676226 -0.524201
vn 0.517622 -0.676226 -0.524201
vn -0.474088 -0.690956 -0.545730
vn -0.474088 -0.690956 -0.545730
vn -0.474088 -0.690956 -0.545730
vn -0.509398 0.858730 -0.055645
vn -0.509398 0.858730 -0.055645
vn -0.509398 0.858730 -0.055645
vn 0.007269 0.915007 0.403373
vn 0.007269 0.915007 0.403373
vn 0.007269 0.915007 0.403373
vn 0.660797 0.747286 0.070083
vn 0.660797 0.747286 0.070083
vn 0.660797 0.747286 0.070083
vn 0.460875 0.580662 -0.671138
vn 0.460875 0.580662 -0.671138
vn 0.460875 0.580662 -0.671138
vn -0.286166 0.670444 -0.684554
vn -0.286166 0.670444 -0.684554
vn -0.286166 0.670444 -0.684554
vn -0.977089 -0.212768 -0.005198
vn -0.997049 0.037461 -0.067009
vn -0.665156 -0.139815 -0.733498
vn 0.665156 0.139816 0.733498
vn 0.950373 -0.285186 0.124342
vn 0.997049 -0.037461 0.067009
vn 0.665156 0.139816 0.733498
vn 0.744884 -0.192793 -0.638732
vn 0.056376 -0.235190 -0.970313
vn 0.056377 -0.235190 -0.970313
vn 0.744883 -0.192793 -0.638733
vn 0.705249 -0.304184 -0.640387
vn 0.680210 -0.063097 -0.730297
vn -0.020313 -0.263746 -0.964378
vn 0.028135 -0.498128 -0.866647
vn -0.020313 -0.263746 -0.964378
vn 0.680210 -0.063097 -0.730297
vn -0.637477 -0.542736 -0.546864
vn -0.708937 -0.309896 -0.633540
vn -0.982275 -0.174514 0.068417
vn -0.901681 -0.411878 0.131636
vn -0.982275 -0.174514 0.068418
vn -0.708937 -0.309896 -0.633540
vn -0.609711 -0.182208 0.771397
vn -0.680210 0.063096 0.730296
vn 0.020313 0.263746 0.964378
vn 0.067404 0.011737 0.997657
vn 0.020313 0.263746 0.964378
vn -0.680210 0.063096 0.730296
vn 0.733016 0.056345 0.677874
vn 0.982275 0.174514 -0.068417
vn 0.997220 -0.074513 -0.000626
vn 0.982275 0.174514 -0.068416
vn 0.708937 0.309896 0.633540
vn -0.364693 0.003999 -0.931119
vn -0.806617 -0.296211 -0.511496
vn -0.982275 -0.174514 0.068417
vn -0.824671 0.012133 -0.565483
vn -0.782738 0.013841 0.622198
vn -0.284221 0.196910 0.938320
vn -0.327955 0.481013 0.813063
vn -0.801965 0.306944 0.512481
vn -0.284221 0.196910 0.938320
vn 0.322858 0.304765 0.896036
vn -0.327955 0.481013 0.813063
vn 0.322858 0.304765 0.896036
vn 0.806617 0.296211 0.511496
vn 0.709259 0.575433 0.407222
vn 0.249281 0.583567 0.772858
vn 0.982275 0.174514 -0.068417
vn 0.782738 -0.013841 -0.622198
vn 0.876282 0.459718 -0.144185
vn -0.071418 -0.993785 0.085383
vn 0.077727 -0.996423 -0.033176
vn 0.186342 -0.948674 0.255526
vn -0.125575 -0.956265 0.264173
vn -0.071418 -0.993785 0.085383
vn 0.186342 -0.948674 0.255526
vn 0.276803 -0.808501 0.519333
vn 0.089639 -0.841753 0.532369
vn 0.186342 -0.948674 0.255526
vn 0.418586 -0.906730 0.051252
vn 0.186342 -0.948674 0.255526
vn 0.064055 0.898194 -0.434908
vn -0.089640 0.841754 -0.532367
vn -0.186342 0.948674 -0.255527
vn -0.276802 0.808502 -0.519331
vn -0.425948 0.811138 -0.400779
vn -0.186342 0.948674 -0.255527
vn -0.418587 0.906729 -0.051253
vn -0.264891 0.963170 0.046208
vn -0.186342 0.948674 -0.255527
vn -0.077727 0.996423 0.033172
vn -0.186342 0.948674 -0.255527
vn 0.680210 -0.063097 -0.730297
vn -0.020313 -0.263746 -0.964378
vn 0.028135 -0.498128 -0.866647
vn 0.705249 -0.304184 -0.640387
vn -0.708937 -0.309896 -0.633540
vn -0.982275 -0.174514 0.068417
vn -0.901681 -0.411878 0.131636
vn -0.637477 -0.542736 -0.546864
vn -0.680210 0.063096 0.730296
vn 0.020313 0.263746 0.964378
vn 0.067404 0.011737 0.997657
vn -0.609711 -0.182208 0.771397
vn 0.708937 0.309896 0.633540
vn 0.982275 0.174514 -0.068417
vn 0.997220 -0.074513 -0.000626
vn 0.733016 0.056345 0.677874
vn 0.705249 -0.304184 -0.640387
vn 0.028135 -0.498128 -0.866647
vn -0.020313 -0.263746 -0.964378
vn -0.982275 -0.174514 0.068418
vn -0.708937 -0.309896 -0.633540
vn -0.609711 -0.182208 0.771397
vn 0.067404 0.011737 0.997657
vn 0.020313 0.263746 0.964378
vn -0.680210 0.063096 0.730296
vn 0.708937 0.309896 0.633540
vn -0.637477 -0.542736 -0.546864
vn -0.901681 -0.411878 0.131636
vn 0.739534 -0.515302 0.433073
vn 0.739534 -0.515302 0.433073
vn 0.739534 -0.515302 0.433073
vn 0.826728 -0.313338 -0.467268
vn 0.826728 -0.313338 -0.467268
vn 0.826728 -0.313338 -0.467268
vn 0.003253 -0.402111 -0.915585
vn 0.003253 -0.402111 -0.915585
vn 0.003253 -0.402111 -0.915585
vn -0.685972 -0.682731 -0.251638
vn -0.685972 -0.682731 -0.251638
vn -0.685972 -0.682731 -0.251638
vn -0.187654 -0.754355 0.629075
vn -0.187654 -0.754355 0.629075
vn -0.187654 -0.754355 0.629075
vn 0.503131 0.634973 0.586232
vn 0.503131 0.634973 0.586232
vn 0.503131 0.634973 0.586232
vn 0.503131 0.634973 0.586232
vn 0.665778 0.674016 -0.320066
vn 0.665778 0.674016 -0.320066
vn 0.665778 0.674016 -0.320066
vn -0.182504 0.711737 -0.678324
vn -0.182504 0.711737 -0.678324
vn -0.182504 0.711737 -0.678324
vn -0.182504 0.711737 -0.678324
vn -0.990912 0.109552 -0.078048
vn -0.990912 0.109552 -0.078048
vn -0.990912 0.109552 -0.078048
vn -0.990912 0.109552 -0.078048
vn -0.471166 0.051361 0.880548
vn -0.471166 0.051361 0.880548
vn -0.471166 0.051361 0.880548
vn -0.471166 0.051361 0.880548
vn 0.259320 0.882212 0.393009
vn 0.259320 0.882212 0.393009
vn 0.259320 0.882212 0.393009
vn -0.141840 0.927126 -0.346870
vn -0.141840 0.927126 -0.346870
vn -0.141840 0.927126 -0.346870
vn -0.640235 0.757367 0.128429
vn -0.640235 0.757367 0.128429
vn -0.640235 0.757367 0.128429
vn -0.419056 0.732604 0.536361
vn -0.419056 0.732604 0.536361
vn -0.419056 0.732604 0.536361
vn -0.350100 -0.111674 0.930032
vn 0.430281 -0.253136 0.866476
vn 0.406895 0.000000 0.913475
vn -0.350100 -0.111674 0.930032
vn 0.350101 0.111674 -0.930031
vn -0.356314 -0.253136 -0.899423
vn -0.406895 0.000000 -0.913475
vn 0.350101 0.111674 -0.930031
vn -0.902011 -0.157931 0.401788
vn -0.902012 -0.157931 0.401787
vn -0.925536 -0.111674 -0.361817
s off
g polySurface190
usemtl lambert2SG
f 1/1/1 3/2/2 2/3/3
f 1/1/4 4/4/5 3/2/6
f 1/1/7 5/5/8 4/4/9
f 1/1/10 6/6/11 5/5/12
f 1/1/13 2/3/14 6/6/15
f 2/7/16 3/8/17 7/9/18
f 3/8/19 4/10/20 7/9/21
f 4/10/22 5/11/23 7/9/24
f 5/11/25 6/12/26 7/9/27
f 6/12/28 2/7/29 7/9/30
f 9/13/31 8/14/32 11/16/33 12/17/34
f 8/14/35 9/15/36 10/18/37 11/16/38
f 9/13/39 12/17/40 10/19/41
f 15/20/42 13/21/43 17/22/44 16/23/45
f 13/21/46 14/24/47 18/25/48 17/22/49
f 14/24/50 19/26/51 18/25/52
f 14/27/53 15/20/54 16/23/55 19/28/56
f 16/23/57 17/22/58 22/29/59 23/30/60
f 17/22/61 18/25/62 21/31/63 22/29/64
f 18/25/65 19/26/66 20/32/67 21/31/68
f 19/28/69 16/23/70 23/30/71 20/33/72
f 24/34/73 29/35/74 28/36/75
f 24/34/76 25/37/77 30/38/78 29/35/79
f 25/37/80 26/39/81 31/40/82 30/38/83
f 26/39/84 32/41/85 31/40/86
f 26/39/87 27/42/88 33/43/89 32/41/90
f 27/42/91 24/34/92 28/36/93 33/43/94
f 28/44/95 29/45/96 34/46/97 37/53/98
f 29/45/99 30/47/100 35/48/101 34/46/102
f 30/47/103 31/49/104 35/48/105
f 31/49/106 32/50/107 36/51/108 35/48/109
f 32/50/110 33/52/111 37/53/112 36/51/113
f 33/52/114 28/44/115 37/53/116
f 25/37/117 24/34/118 38/54/119
f 26/39/120 25/37/121 38/54/122
f 27/42/123 26/39/124 38/54/125
f 24/34/126 27/42/127 38/54/128
f 37/53/129 34/46/130 39/55/131
f 34/46/132 35/48/133 39/55/134
f 35/48/135 36/51/136 39/55/137
f 36/51/138 37/53/139 39/55/140
f 40/56/141 42/57/142 41/58/143
f 40/56/144 43/59/145 42/57/146
f 40/56/147 44/60/148 43/59/149
f 40/56/150 45/61/151 44/60/152
f 40/56/153 41/58/154 45/61/155
f 41/62/156 42/63/157 46/64/158
f 42/63/159 43/65/160 46/64/161
f 43/65/162 44/66/163 46/64/164
f 44/66/165 45/67/166 46/64/167
f 45/67/168 41/62/169 46/64/170
f 47/68/171 50/69/172 51/70/173
f 47/68/174 48/71/175 49/72/176 50/69/177
f 48/73/178 47/68/179 51/70/180 49/74/181
f 55/78/182 54/75/183 52/76/184 56/77/185 61/84/186 62/85/187
f 56/77/188 52/76/189 53/79/190 57/80/191 60/86/192 61/84/193
f 57/80/194 53/79/195 54/81/196 58/82/197 59/87/198 60/86/199
f 58/83/200 54/75/201 55/78/202 62/85/203 59/88/204
f 63/89/205 68/90/206 67/91/207
f 63/89/208 64/92/209 69/93/210 68/90/211
f 64/92/212 65/94/213 70/95/214 69/93/215
f 65/94/216 71/96/217 70/95/218
f 65/94/219 66/97/220 72/98/221 71/96/222
f 66/97/223 63/89/224 67/91/225 72/98/226
f 67/99/227 68/100/228 74/101/229 73/102/230
f 68/100/231 69/103/232 74/101/233
f 69/103/234 70/104/235 75/105/236 74/101/237
f 70/104/238 71/106/239 76/107/240 75/105/241
f 71/106/242 72/108/243 76/107/244
f 72/108/245 67/99/246 73/102/247 76/107/248
f 64/92/249 63/89/250 77/109/251
f 65/94/252 64/92/253 77/109/254
f 66/97/255 65/94/256 77/109/257
f 63/89/258 66/97/259 77/109/260
f 73/102/261 74/101/262 78/110/263
f 74/101/264 75/105/265 78/110/266
f 75/105/267 76/107/268 78/110/269
f 76/107/270 73/102/271 78/110/272
f 79/111/273 81/112/274 80/113/275
f 79/111/276 82/114/277 81/112/278
f 79/111/279 83/115/280 82/114/281
f 79/111/282 84/116/283 83/115/284
f 79/111/285 80/113/286 84/116/287
f 80/117/288 81/118/289 86/119/290 85/120/291
f 81/118/292 82/121/293 86/119/294
f 82/121/295 83/122/296 87/123/297 86/119/298
f 83/122/299 84/124/300 88/125/301 87/123/302
f 84/124/303 80/117/304 85/120/305 88/125/306
f 85/120/307 86/119/308 89/126/309
f 86/119/310 87/123/311 89/126/312
f 87/123/313 88/125/314 89/126/315
f 88/125/316 85/120/317 89/126/318
f 91/127/319 90/128/320 93/129/321 94/130/322
f 90/128/323 91/131/324 92/132/325 93/129/326
f 91/127/327 94/130/328 92/133/329
