# This file uses centimeters as units for non-parametric coordinates.

mtllib shrooms17.mtl
g default
v 0.482277 8.950239 0.463651
v 0.950365 6.437093 -2.491757
v -2.183838 6.437093 -0.894806
v -1.633564 6.437092 2.579487
v 1.840725 6.437092 3.129757
v 3.437679 6.437092 -0.004441
v 1.250273 -0.935856 0.146839
v 0.107781 -0.935856 -0.026280
v 0.538403 -0.935856 0.988323
v 0.490635 7.891424 0.414679
v 2.393793 5.021270 -2.874424
v 3.421143 2.071788 -4.298396
v 0.029698 3.004733 -4.332934
v -0.658702 4.711660 -1.335265
v 2.307291 4.833649 0.551924
v 4.828771 3.202120 -1.279389
v 1.593785 -0.899644 0.087129
v 0.615764 -0.935856 -0.527217
v 0.659782 -0.449202 0.460753
v 2.154073 4.342868 -2.665667
v -4.179213 11.094666 -1.393445
v -3.598009 8.505571 -4.437073
v -6.436050 7.761628 -1.713555
v -5.035291 8.873226 1.868030
v -1.331537 10.304171 1.358042
v -0.443248 10.076948 -2.538721
v 1.323847 -0.467349 -0.202455
v 0.107780 -0.935858 -0.026280
v 0.794322 -0.511232 0.933808
v -4.004433 10.383767 -1.450471
v -2.745219 4.497518 -3.051178
v -2.856796 1.852566 -3.577392
v -3.705226 2.574769 -1.418218
v -2.096052 4.121635 -0.458416
v -0.253102 4.355443 -2.024402
v -0.723268 2.953084 -3.952033
v 0.710772 -0.862462 -0.544035
v 0.107779 -0.935856 -0.026280
v 0.704265 -0.485014 0.117103
v -2.374637 4.003551 -2.724215
v 4.547561 6.280469 2.046945
v 3.051812 4.964997 0.225575
v 2.191960 5.041935 2.496737
v 4.016297 4.504576 4.008853
v 6.003646 4.095534 2.672226
v 5.407561 4.380089 0.334034
v 3.165630 -0.369453 1.137092
v 2.515597 -0.236036 1.580618
v 3.183709 -0.418776 1.896601
v 4.439995 5.594416 1.990452
v 1.313457 6.523143 4.516686
v 2.324691 5.647253 1.892414
v -0.136734 4.898065 2.533590
v -0.093150 3.985028 5.022664
v 2.395211 4.169931 5.919812
v 3.889517 5.197242 3.985213
v 3.334687 -0.173052 1.870210
v 2.515599 -0.236036 1.580617
v 2.726077 -0.476412 2.347584
v 1.452337 5.806055 4.209881
v -4.518555 7.247834 4.086317
v -2.608526 6.335172 1.460796
v -4.886698 4.986719 1.611166
v -5.047677 3.917423 4.032264
v -2.868996 4.605018 5.378208
v -1.361519 6.099267 3.788955
v 0.606943 -0.547703 0.825011
v -0.110670 -0.776538 0.387514
v 0.017973 -1.020514 1.171253
v -3.851433 6.397847 3.653736
vt 0.409942 0.335935
vt 0.387783 0.379079
vt 0.369595 0.342448
vt 0.340782 0.370896
vt 0.333574 0.324303
vt 0.375594 0.302025
vt 0.320991 0.741512
vt 0.356764 0.741512
vt 0.363472 0.822405
vt 0.383594 0.741512
vt 0.401481 0.741512
vt 0.409942 0.335935
vt 0.387783 0.379079
vt 0.369595 0.342448
vt 0.340782 0.370896
vt 0.333574 0.324303
vt 0.375594 0.302025
vt 0.320991 0.741512
vt 0.356764 0.741512
vt 0.363472 0.822405
vt 0.383594 0.741512
vt 0.401481 0.741512
vt 0.409942 0.335935
vt 0.387783 0.379079
vt 0.369595 0.342448
vt 0.340782 0.370896
vt 0.333574 0.324303
vt 0.375594 0.302025
vt 0.320991 0.741512
vt 0.356764 0.741512
vt 0.363472 0.822405
vt 0.383594 0.741512
vt 0.401481 0.741512
vt 0.409942 0.335935
vt 0.387783 0.379079
vt 0.369595 0.342448
vt 0.340782 0.370896
vt 0.333574 0.324303
vt 0.375594 0.302025
vt 0.320991 0.741512
vt 0.356764 0.741512
vt 0.363472 0.822405
vt 0.383594 0.741512
vt 0.401481 0.741512
vt 0.409942 0.335935
vt 0.387783 0.379079
vt 0.369595 0.342448
vt 0.340782 0.370896
vt 0.333574 0.324303
vt 0.375594 0.302025
vt 0.320991 0.741512
vt 0.356764 0.741512
vt 0.363472 0.822405
vt 0.383594 0.741512
vt 0.401481 0.741512
vt 0.409942 0.335935
vt 0.387783 0.379079
vt 0.369595 0.342448
vt 0.340782 0.370896
vt 0.333574 0.324303
vt 0.375594 0.302025
vt 0.320991 0.741512
vt 0.356764 0.741512
vt 0.363472 0.822405
vt 0.383594 0.741512
vt 0.401481 0.741512
vt 0.409942 0.335935
vt 0.387783 0.379079
vt 0.369595 0.342448
vt 0.340782 0.370896
vt 0.333574 0.324303
vt 0.375594 0.302025
vt 0.320991 0.741512
vt 0.356764 0.741512
vt 0.363472 0.822405
vt 0.383594 0.741512
vt 0.401481 0.741512
vn 0.809017 0.000000 -0.587785
vn 0.587785 0.000000 -0.809017
vn 0.800774 0.142384 -0.581797
vn -0.309017 0.000000 -0.951057
vn -0.587786 0.000000 -0.809017
vn -0.305868 0.142384 -0.941367
vn -1.000000 0.000000 0.000000
vn -0.951057 0.000000 0.309017
vn -0.989812 0.142384 0.000000
vn -0.309017 0.000000 0.951057
vn -0.000000 0.000000 1.000000
vn -0.305869 0.142384 0.941367
vn 0.809017 0.000000 0.587785
vn 0.951057 0.000000 0.309017
vn 0.800774 0.142384 0.581797
vn 0.149679 0.042853 -0.987805
vn 0.149679 0.042853 -0.987805
vn 0.149679 0.042853 -0.987805
vn -0.920330 0.020404 0.390611
vn -0.920330 0.020404 0.390611
vn -0.920330 0.020404 0.390611
vn 0.762645 0.046054 0.645175
vn 0.762645 0.046054 0.645175
vn 0.762645 0.046054 0.645175
vn 0.935451 -0.328293 -0.130975
vn 0.810251 -0.428830 -0.399498
vn 0.965556 -0.139000 -0.219954
vn 0.044653 -0.460319 -0.886630
vn -0.256996 -0.377339 -0.889702
vn 0.094649 -0.268078 -0.958737
vn -0.907854 0.043801 -0.416992
vn -0.969083 0.195621 -0.150368
vn -0.836592 0.224786 -0.499585
vn -0.605738 0.487389 0.628915
vn -0.341931 0.498240 0.796769
vn -0.541222 0.658470 0.522969
vn 0.533488 0.257422 0.805683
vn 0.757758 0.112307 0.642798
vn 0.572567 0.433638 0.695791
vn 0.487837 -0.446126 -0.750325
vn 0.487837 -0.446126 -0.750325
vn 0.487837 -0.446126 -0.750325
vn -0.965219 0.249012 -0.079654
vn -0.965219 0.249012 -0.079654
vn -0.965219 0.249012 -0.079654
vn 0.491695 0.363047 0.791475
vn 0.491695 0.363047 0.791475
vn 0.491695 0.363047 0.791475
vn 0.606627 0.128430 -0.784544
vn 0.360067 0.005618 -0.932910
vn 0.547272 0.257720 -0.796288
vn -0.479999 -0.318941 -0.817238
vn -0.701806 -0.377084 -0.604380
vn -0.528283 -0.185092 -0.828649
vn -0.903283 -0.325546 0.279463
vn -0.793807 -0.238669 0.559382
vn -0.947254 -0.191630 0.256879
vn -0.078260 0.117743 0.989956
vn 0.211206 0.229578 0.950098
vn -0.130638 0.247142 0.960133
vn 0.854915 0.398315 0.332363
vn 0.924340 0.380556 0.027811
vn 0.793030 0.524856 0.309240
vn -0.083257 -0.154117 -0.984539
vn -0.083257 -0.154117 -0.984539
vn -0.083257 -0.154117 -0.984539
vn -0.754797 -0.195421 0.626173
vn -0.754797 -0.195421 0.626173
vn -0.754797 -0.195421 0.626173
vn 0.806715 0.441325 0.392992
vn 0.806715 0.441325 0.392992
vn 0.806715 0.441325 0.392992
vn 0.218205 -0.383191 -0.897525
vn -0.056527 -0.524904 -0.849283
vn 0.148859 -0.270523 -0.951135
vn -0.745238 -0.612279 -0.264073
vn -0.854489 -0.519281 0.013962
vn -0.804768 -0.497276 -0.324138
vn -0.678788 0.004782 0.734319
vn -0.471577 0.203970 0.857911
vn -0.738994 0.113498 0.664083
vn 0.325725 0.615234 0.717907
vn 0.563039 0.645342 0.516257
vn 0.255284 0.717730 0.647838
vn 0.880097 0.375453 -0.290628
vn 0.819554 0.194873 -0.538847
vn 0.804007 0.480392 -0.350421
vn -0.481241 -0.593980 -0.644666
vn -0.481241 -0.593980 -0.644666
vn -0.481241 -0.593980 -0.644666
vn -0.412171 0.268420 0.870670
vn -0.412171 0.268420 0.870670
vn -0.412171 0.268420 0.870670
vn 0.864792 0.439687 -0.242508
vn 0.864792 0.439687 -0.242508
vn 0.864792 0.439687 -0.242508
vn 0.208043 0.006712 -0.978097
vn -0.095304 0.082030 -0.992063
vn 0.239823 0.144692 -0.959973
vn -0.837978 0.234889 -0.492565
vn -0.948700 0.244796 -0.200110
vn -0.795540 0.370544 -0.479389
vn -0.725942 0.138458 0.673675
vn -0.491025 0.069263 0.868388
vn -0.684645 0.275096 0.674969
vn 0.389322 -0.149318 0.908919
vn 0.645230 -0.201989 0.736803
vn 0.419255 -0.009748 0.907816
vn 0.966556 -0.230741 -0.111933
vn 0.889798 -0.194099 -0.413018
vn 0.990608 -0.090341 -0.102633
vn -0.516290 0.228425 -0.825389
vn -0.516290 0.228425 -0.825389
vn -0.516290 0.228425 -0.825389
vn -0.410387 0.071550 0.909100
vn -0.410387 0.071550 0.909100
vn -0.410387 0.071550 0.909100
vn 0.978326 -0.203824 -0.036524
vn 0.978326 -0.203824 -0.036524
vn 0.978326 -0.203824 -0.036524
vn 0.866962 0.321340 -0.380943
vn 0.682324 0.374438 -0.627877
vn 0.830887 0.449116 -0.328514
vn -0.169757 0.311122 -0.935086
vn -0.460187 0.222723 -0.859431
vn -0.195269 0.439002 -0.877010
vn -0.971878 -0.129056 -0.196972
vn -0.966735 -0.236787 0.096719
vn -0.989218 0.003309 -0.146417
vn -0.430896 -0.390883 0.813351
vn -0.137289 -0.369066 0.919208
vn -0.453748 -0.255850 0.853612
vn 0.705570 -0.112523 0.699650
vn 0.881886 0.008692 0.471382
vn 0.671139 0.019673 0.741071
vn 0.272769 0.423842 -0.863687
vn 0.272769 0.423842 -0.863687
vn 0.272769 0.423842 -0.863687
vn -0.951387 -0.247307 0.183579
vn -0.951387 -0.247307 0.183579
vn -0.951387 -0.247307 0.183579
vn 0.643215 -0.094815 0.759792
vn 0.643215 -0.094815 0.759792
vn 0.643215 -0.094815 0.759792
vn 0.814905 0.542764 -0.203315
vn 0.667768 0.570599 -0.478021
vn 0.759979 0.628320 -0.166271
vn -0.078271 0.335148 -0.938909
vn -0.347079 0.176040 -0.921166
vn -0.127968 0.421919 -0.897557
vn -0.863280 -0.335631 -0.376962
vn -0.882274 -0.461800 -0.091292
vn -0.908380 -0.244933 -0.338900
vn -0.455264 -0.542579 0.705933
vn -0.198197 -0.461448 0.864745
vn -0.502754 -0.450669 0.737655
vn 0.581911 0.000299 0.813253
vn 0.759781 0.176609 0.625733
vn 0.528348 0.089030 0.844347
vn 0.315044 0.524398 -0.791046
vn 0.315044 0.524398 -0.791046
vn 0.315044 0.524398 -0.791046
vn -0.886440 -0.462841 0.001419
vn -0.886440 -0.462841 0.001419
vn -0.886440 -0.462841 0.001419
vn 0.516764 -0.016896 0.855961
vn 0.516764 -0.016896 0.855961
vn 0.516764 -0.016896 0.855961
s off
g polySurface109
usemtl lambert2SG
f 6/1/1 2/2/2 1/3/3
f 2/2/4 3/4/5 1/3/6
f 3/4/7 4/5/8 1/3/9
f 4/5/10 5/6/11 1/3/12
f 5/6/13 6/1/14 1/3/15
f 7/7/16 8/8/17 10/9/18
f 8/8/19 9/10/20 10/9/21
f 9/10/22 7/11/23 10/9/24
f 16/12/25 12/13/26 11/14/27
f 12/13/28 13/15/29 11/14/30
f 13/15/31 14/16/32 11/14/33
f 14/16/34 15/17/35 11/14/36
f 15/17/37 16/12/38 11/14/39
f 17/18/40 18/19/41 20/20/42
f 18/19/43 19/21/44 20/20/45
f 19/21/46 17/22/47 20/20/48
f 26/23/49 22/24/50 21/25/51
f 22/24/52 23/26/53 21/25/54
f 23/26/55 24/27/56 21/25/57
f 24/27/58 25/28/59 21/25/60
f 25/28/61 26/23/62 21/25/63
f 27/29/64 28/30/65 30/31/66
f 28/30/67 29/32/68 30/31/69
f 29/32/70 27/33/71 30/31/72
f 36/34/73 32/35/74 31/36/75
f 32/35/76 33/37/77 31/36/78
f 33/37/79 34/38/80 31/36/81
f 34/38/82 35/39/83 31/36/84
f 35/39/85 36/34/86 31/36/87
f 37/40/88 38/41/89 40/42/90
f 38/41/91 39/43/92 40/42/93
f 39/43/94 37/44/95 40/42/96
f 46/45/97 42/46/98 41/47/99
f 42/46/100 43/48/101 41/47/102
f 43/48/103 44/49/104 41/47/105
f 44/49/106 45/50/107 41/47/108
f 45/50/109 46/45/110 41/47/111
f 47/51/112 48/52/113 50/53/114
f 48/52/115 49/54/116 50/53/117
f 49/54/118 47/55/119 50/53/120
f 56/56/121 52/57/122 51/58/123
f 52/57/124 53/59/125 51/58/126
f 53/59/127 54/60/128 51/58/129
f 54/60/130 55/61/131 51/58/132
f 55/61/133 56/56/134 51/58/135
f 57/62/136 58/63/137 60/64/138
f 58/63/139 59/65/140 60/64/141
f 59/65/142 57/66/143 60/64/144
f 66/67/145 62/68/146 61/69/147
f 62/68/148 63/70/149 61/69/150
f 63/70/151 64/71/152 61/69/153
f 64/71/154 65/72/155 61/69/156
f 65/72/157 66/67/158 61/69/159
f 67/73/160 68/74/161 70/75/162
f 68/74/163 69/76/164 70/75/165
f 69/76/166 67/77/167 70/75/168
