# This file uses centimeters as units for non-parametric coordinates.

mtllib shrooms6.mtl
g default
v -1.294796 6.663467 -2.978464
v -3.651329 6.663467 -1.617917
v -4.758096 6.663467 0.867921
v -4.192350 6.663467 3.529548
v -2.170187 6.663467 5.350313
v 0.535996 6.663468 5.634746
v 2.892528 6.663467 4.274199
v 3.999294 6.663467 1.788361
v 3.433548 6.663467 -0.873266
v 1.411386 6.663467 -2.694029
v -1.923298 9.128980 -1.345970
v -3.399720 9.128980 1.970129
v -0.702162 9.128981 4.399022
v 2.441443 9.128980 2.584059
v 1.686740 9.128980 -0.966538
v -0.379401 10.251787 1.328139
v 0.452449 -0.289271 -0.479435
v -2.457635 -0.289271 -0.341661
v -3.225869 -0.289271 2.468567
v 0.346080 -0.289271 3.156627
v -0.089743 7.985142 0.542716
v -1.605934 7.985142 0.614499
v -1.371786 7.985142 2.495223
v 0.447053 7.985142 1.962516
v -1.528812 -0.289422 -1.685639
v -3.206042 -0.289688 0.317275
v -0.967974 -0.290487 1.623399
v -0.038500 -0.290119 -0.246440
v -2.513564 3.423347 -1.230309
v -3.865953 3.328970 -1.094447
v -3.685361 3.479805 -0.028926
v -2.609595 3.587509 0.118820
v -4.826022 2.556368 -1.718645
v -5.126460 2.781548 0.241193
v -3.581986 3.066156 1.472261
v -1.619378 3.184817 1.131639
v -0.904986 3.007236 -0.723094
v -1.817506 2.708720 -2.472416
v -3.157092 2.554686 -2.812537
v -3.169452 4.481027 -0.793297
v 2.047798 -0.288122 -1.323194
v -0.503412 -0.291244 0.854204
v 2.250284 -0.290909 3.206146
v 3.788346 -0.288447 0.995412
v 3.438652 3.985869 -1.637730
v 2.459968 4.632925 -0.379239
v 4.345499 4.060438 -0.429707
v 1.231960 3.432468 -2.900103
v -0.018474 4.441771 -0.649161
v 1.765532 4.759501 2.329680
v 4.423288 4.000842 2.428611
v 5.611337 3.271265 1.097770
v 5.243017 2.623993 -1.565761
v 3.029500 2.811441 -3.213250
v 3.412407 5.692133 -0.796677
vt 0.591347 0.882909
vt 0.572182 0.902152
vt 0.569595 0.880412
vt 0.545367 0.906456
vt 0.541018 0.884995
vt 0.521143 0.894176
vt 0.508763 0.870003
vt 0.527824 0.859233
vt 0.512956 0.843170
vt 0.532121 0.823926
vt 0.548251 0.838723
vt 0.558936 0.819622
vt 0.583160 0.831902
vt 0.574069 0.851815
vt 0.595540 0.856076
vt 0.552152 0.862968
vt 0.219118 0.798485
vt 0.237005 0.798485
vt 0.237005 0.823877
vt 0.219118 0.823877
vt 0.254892 0.798485
vt 0.263835 0.823877
vt 0.281722 0.798485
vt 0.290665 0.823877
vt 0.308552 0.798485
vt 0.308552 0.823877
vt 0.219118 0.757839
vt 0.245948 0.757839
vt 0.237005 0.824164
vt 0.219118 0.824164
vt 0.254892 0.824164
vt 0.272778 0.757839
vt 0.272778 0.824164
vt 0.290665 0.757839
vt 0.299608 0.824164
vt 0.308552 0.757839
vt 0.590255 0.879852
vt 0.560718 0.901739
vt 0.552283 0.863215
vt 0.524736 0.894208
vt 0.513046 0.859354
vt 0.531528 0.830256
vt 0.568089 0.827113
vt 0.592772 0.854356
vt 0.219118 0.757839
vt 0.245948 0.757839
vt 0.250420 0.824164
vt 0.219118 0.824164
vt 0.272778 0.757839
vt 0.290665 0.757839
vt 0.290665 0.824164
vt 0.308552 0.757839
vt 0.308552 0.824164
vt 0.536805 0.900735
vt 0.516644 0.884927
vt 0.551065 0.861809
vt 0.514028 0.848258
vt 0.552496 0.822409
vt 0.585458 0.838687
vt 0.592477 0.863326
vt 0.573040 0.894530
vn -0.343603 0.284084 -0.895116
vn -0.603392 0.284083 -0.745127
vn -0.304944 0.525288 -0.794406
vn -0.804117 0.284083 -0.522199
vn -0.926129 0.284084 -0.248156
vn -0.821930 0.525288 -0.220235
vn -0.713645 0.525288 -0.463447
vn -0.957486 0.284083 0.050180
vn -0.895116 0.284084 0.343603
vn -0.849758 0.525288 0.044534
vn -0.745127 0.284086 0.603392
vn -0.522199 0.284084 0.804117
vn -0.463447 0.525288 0.713645
vn -0.661293 0.525288 0.535504
vn -0.248156 0.284082 0.926130
vn 0.050179 0.284084 0.957485
vn -0.220235 0.525288 0.821930
vn 0.343603 0.284085 0.895116
vn 0.603392 0.284084 0.745127
vn 0.535504 0.525288 0.661293
vn 0.304944 0.525288 0.794406
vn 0.804118 0.284082 0.522199
vn 0.926129 0.284083 0.248156
vn 0.713645 0.525288 0.463447
vn 0.957486 0.284081 -0.050179
vn 0.895117 0.284082 -0.343604
vn 0.794406 0.525288 -0.304944
vn 0.849758 0.525288 -0.044534
vn 0.745127 0.284083 -0.603392
vn 0.522199 0.284083 -0.804117
vn 0.661292 0.525288 -0.535505
vn 0.248157 0.284083 -0.926129
vn -0.050179 0.284083 -0.957486
vn -0.044533 0.525288 -0.849758
vn 0.220236 0.525288 -0.821930
vn -0.444848 0.847735 -0.288888
vn -0.512348 0.847734 -0.137283
vn -0.222210 0.964261 -0.144305
vn -0.412215 0.847735 0.333804
vn -0.288888 0.847734 0.444848
vn -0.205908 0.964261 0.166742
vn 0.190086 0.847734 0.495191
vn 0.333805 0.847734 0.412215
vn 0.094952 0.964261 0.247357
vn 0.529694 0.847734 -0.027760
vn 0.495191 0.847734 -0.190086
vn 0.264592 0.964261 -0.013867
vn 0.137283 0.847734 -0.512348
vn -0.027760 0.847734 -0.529694
vn 0.068575 0.964261 -0.255927
vn -0.046952 0.119434 -0.991731
vn -0.046952 0.119434 -0.991731
vn -0.046952 0.119434 -0.991731
vn -0.046952 0.119434 -0.991731
vn -0.979661 0.166802 -0.111539
vn -0.979661 0.166802 -0.111539
vn -0.979661 0.166802 -0.111539
vn -0.979661 0.166802 -0.111539
vn -0.189006 0.039191 0.981194
vn -0.189006 0.039191 0.981194
vn -0.189006 0.039191 0.981194
vn 0.278546 0.133850 0.951050
vn 0.278546 0.133850 0.951050
vn 0.278546 0.133850 0.951050
vn 0.996067 0.025676 -0.084799
vn 0.996067 0.025676 -0.084799
vn 0.996067 0.025676 -0.084799
vn 0.996067 0.025676 -0.084799
vn -0.556607 -0.229039 -0.798580
vn -0.556607 -0.229039 -0.798580
vn -0.556607 -0.229039 -0.798580
vn -0.556607 -0.229039 -0.798580
vn -0.977582 -0.107690 0.180931
vn -0.977582 -0.107690 0.180931
vn -0.977582 -0.107690 0.180931
vn -0.402325 0.108421 0.909054
vn -0.402325 0.108421 0.909054
vn -0.402325 0.108421 0.909054
vn -0.402325 0.108421 0.909054
vn 0.820185 0.521718 0.234749
vn 0.820185 0.521718 0.234749
vn 0.820185 0.521718 0.234749
vn 0.820185 0.521718 0.234749
vn 0.670293 0.262892 -0.693971
vn 0.670293 0.262892 -0.693971
vn 0.670293 0.262892 -0.693971
vn -0.222797 0.096990 -0.970028
vn -0.505411 0.087889 -0.858391
vn -0.223494 0.330813 -0.916850
vn -0.982635 0.142863 -0.118401
vn -0.966091 0.182616 0.182534
vn -0.917473 0.372708 -0.139037
vn -0.856870 0.227374 0.462683
vn -0.665662 0.272754 0.694622
vn -0.802609 0.449894 0.391681
vn 0.184185 0.370476 0.910397
vn 0.466799 0.379579 0.798760
vn 0.148213 0.580592 0.800591
vn 0.701828 0.374407 0.606017
vn 0.866268 0.355462 0.351035
vn 0.620990 0.584181 0.522593
vn 0.818256 0.240097 -0.522312
vn 0.627049 0.194716 -0.754252
vn 0.727328 0.461510 -0.507939
vn 0.372571 0.153153 -0.915279
vn 0.079735 0.119479 -0.989630
vn 0.320271 0.382106 -0.866845
vn -0.665857 0.193962 -0.720426
vn -0.665857 0.193962 -0.720426
vn -0.665857 0.193962 -0.720426
vn -0.665857 0.193962 -0.720426
vn -0.561512 0.502579 0.657357
vn -0.561512 0.502579 0.657357
vn -0.561512 0.502579 0.657357
vn 0.555226 0.359373 0.750050
vn 0.555226 0.359373 0.750050
vn 0.555226 0.359373 0.750050
vn 0.555226 0.359373 0.750050
vn 0.768568 -0.288801 -0.570874
vn 0.768568 -0.288801 -0.570874
vn 0.768568 -0.288801 -0.570874
vn 0.768568 -0.288801 -0.570874
vn -0.014291 -0.006990 -0.999873
vn -0.296640 0.090560 -0.950686
vn 0.057894 0.232855 -0.970787
vn -0.543190 0.202093 -0.814925
vn -0.729803 0.316691 -0.605883
vn -0.419697 0.421652 -0.803781
vn -0.786678 0.571718 0.232973
vn -0.631774 0.599306 0.491624
vn -0.639565 0.755421 0.142463
vn 0.152486 0.473827 0.867315
vn 0.434836 0.376279 0.818127
vn 0.208490 0.667026 0.715268
vn 0.681384 0.264748 0.682367
vn 0.867997 0.150147 0.473326
vn 0.686081 0.478228 0.548262
vn 0.976409 0.043699 0.211463
vn 0.996006 -0.044176 -0.077587
vn 0.952486 0.278626 0.123039
vn 0.546457 -0.124240 -0.828220
vn 0.276221 -0.081005 -0.957674
vn 0.564244 0.126977 -0.815785
s off
g polySurface178
usemtl lambert2SG
f 1/1/1 2/2/2 11/3/3
f 2/2/4 3/4/5 12/5/6 11/3/7
f 3/4/8 4/6/9 12/5/10
f 4/6/11 5/7/12 13/8/13 12/5/14
f 5/7/15 6/9/16 13/8/17
f 6/9/18 7/10/19 14/11/20 13/8/21
f 7/10/22 8/12/23 14/11/24
f 8/12/25 9/13/26 15/14/27 14/11/28
f 9/13/29 10/15/30 15/14/31
f 10/15/32 1/1/33 11/3/34 15/14/35
f 11/3/36 12/5/37 16/16/38
f 12/5/39 13/8/40 16/16/41
f 13/8/42 14/11/43 16/16/44
f 14/11/45 15/14/46 16/16/47
f 15/14/48 11/3/49 16/16/50
f 17/17/51 18/18/52 22/19/53 21/20/54
f 18/18/55 19/21/56 23/22/57 22/19/58
f 19/21/59 20/23/60 23/22/61
f 20/23/62 24/24/63 23/22/64
f 20/23/65 17/25/66 21/26/67 24/24/68
f 25/27/69 26/28/70 30/29/71 29/30/72
f 26/28/73 31/31/74 30/29/75
f 26/28/76 27/32/77 32/33/78 31/31/79
f 27/32/80 28/34/81 29/35/82 32/33/83
f 28/34/84 25/36/85 29/35/86
f 39/37/87 33/38/88 40/39/89
f 33/38/90 34/40/91 40/39/92
f 34/40/93 35/41/94 40/39/95
f 35/41/96 36/42/97 40/39/98
f 36/42/99 37/43/100 40/39/101
f 37/43/102 38/44/103 40/39/104
f 38/44/105 39/37/106 40/39/107
f 41/45/108 42/46/109 46/47/110 45/48/111
f 42/46/112 43/49/113 46/47/114
f 43/49/115 44/50/116 47/51/117 46/47/118
f 44/50/119 41/52/120 45/53/121 47/51/122
f 54/54/123 48/55/124 55/56/125
f 48/55/126 49/57/127 55/56/128
f 49/57/129 50/58/130 55/56/131
f 50/58/132 51/59/133 55/56/134
f 51/59/135 52/60/136 55/56/137
f 52/60/138 53/61/139 55/56/140
f 53/61/141 54/54/142 55/56/143
