# This file uses centimeters as units for non-parametric coordinates.

mtllib shrooms2.mtl
g default
v -1.294796 6.663467 -2.978464
v -3.651329 6.663467 -1.617917
v -4.758096 6.663467 0.867921
v -4.192350 6.663467 3.529548
v -2.170187 6.663467 5.350313
v 0.535996 6.663468 5.634746
v 2.892528 6.663467 4.274199
v 3.999294 6.663467 1.788361
v 3.433548 6.663467 -0.873266
v 1.411386 6.663467 -2.694029
v -3.200243 9.128980 0.072219
v -2.445539 9.128980 3.622820
v 1.164499 9.128981 4.002250
v 2.640922 9.128980 0.686152
v -0.056637 9.128980 -1.742740
v -0.379401 10.251787 1.328139
v 0.177188 -0.289271 -0.876558
v -2.586756 -0.289271 0.044410
v -2.564968 -0.289271 2.957671
v 0.212440 -0.289271 3.837197
v 1.907185 -0.289271 1.467513
v -1.507876 7.985142 0.734089
v -1.496525 7.985142 2.251933
v -0.049459 7.985142 2.710178
v 0.382848 7.985142 0.864898
vt 0.697914 0.963803
vt 0.673404 0.988415
vt 0.652772 0.969478
vt 0.639108 0.993919
vt 0.608127 0.978214
vt 0.619757 0.952740
vt 0.592293 0.947298
vt 0.597656 0.912980
vt 0.625472 0.916164
vt 0.622167 0.888368
vt 0.656463 0.882863
vt 0.662028 0.910299
vt 0.687444 0.898569
vt 0.703277 0.929485
vt 0.678897 0.943253
vt 0.647785 0.938301
vt 0.313314 0.826724
vt 0.331200 0.826724
vt 0.331200 0.907617
vt 0.313314 0.907617
vt 0.349087 0.826724
vt 0.349087 0.907617
vt 0.366974 0.826724
vt 0.366974 0.907617
vt 0.384860 0.826724
vt 0.393804 0.907617
vt 0.402747 0.826724
vn -0.343603 0.284084 -0.895116
vn -0.603392 0.284083 -0.745127
vn -0.535504 0.525288 -0.661293
vn -0.304944 0.525288 -0.794406
vn -0.804117 0.284083 -0.522199
vn -0.926129 0.284084 -0.248156
vn -0.713645 0.525288 -0.463447
vn -0.957486 0.284083 0.050180
vn -0.895116 0.284084 0.343603
vn -0.794406 0.525288 0.304944
vn -0.849758 0.525288 0.044534
vn -0.745127 0.284086 0.603392
vn -0.522199 0.284084 0.804117
vn -0.661293 0.525288 0.535504
vn -0.248156 0.284082 0.926130
vn 0.050179 0.284084 0.957485
vn 0.044534 0.525288 0.849758
vn -0.220235 0.525288 0.821930
vn 0.343603 0.284085 0.895116
vn 0.603392 0.284084 0.745127
vn 0.304944 0.525288 0.794406
vn 0.804118 0.284082 0.522199
vn 0.926129 0.284083 0.248156
vn 0.821930 0.525288 0.220235
vn 0.713645 0.525288 0.463447
vn 0.957486 0.284081 -0.050179
vn 0.895117 0.284082 -0.343604
vn 0.849758 0.525288 -0.044534
vn 0.745127 0.284083 -0.603392
vn 0.522199 0.284083 -0.804117
vn 0.463447 0.525288 -0.713645
vn 0.661292 0.525288 -0.535505
vn 0.248157 0.284083 -0.926129
vn -0.050179 0.284083 -0.957486
vn 0.220236 0.525288 -0.821930
vn -0.190086 0.847734 -0.495190
vn -0.333804 0.847735 -0.412215
vn -0.094952 0.964261 -0.247357
vn -0.529693 0.847735 0.027760
vn -0.495190 0.847734 0.190086
vn -0.264592 0.964261 0.013867
vn -0.137283 0.847734 0.512348
vn 0.027760 0.847734 0.529694
vn -0.068575 0.964261 0.255927
vn 0.444848 0.847734 0.288888
vn 0.512348 0.847734 0.137283
vn 0.222210 0.964261 0.144305
vn 0.412215 0.847734 -0.333805
vn 0.288888 0.847734 -0.444848
vn 0.205909 0.964261 -0.166741
vn -0.165316 0.155896 -0.973841
vn -0.165316 0.155896 -0.973841
vn -0.165316 0.155896 -0.973841
vn -0.165316 0.155896 -0.973841
vn -0.991658 0.128682 0.007416
vn -0.991658 0.128682 0.007416
vn -0.991658 0.128682 0.007416
vn -0.991658 0.128682 0.007416
vn -0.299735 0.119434 0.946517
vn -0.299735 0.119434 0.946517
vn -0.299735 0.119434 0.946517
vn -0.299735 0.119434 0.946517
vn 0.883717 0.141997 0.445962
vn 0.883717 0.141997 0.445962
vn 0.883717 0.141997 0.445962
vn 0.883717 0.141997 0.445962
vn 0.800202 0.104405 -0.590574
vn 0.800202 0.104405 -0.590574
vn 0.800202 0.104405 -0.590574
s off
g polySurface17
usemtl lambert2SG
f 1/1/1 2/2/2 11/3/3 15/15/4
f 2/2/5 3/4/6 11/3/7
f 3/4/8 4/5/9 12/6/10 11/3/11
f 4/5/12 5/7/13 12/6/14
f 5/7/15 6/8/16 13/9/17 12/6/18
f 6/8/19 7/10/20 13/9/21
f 7/10/22 8/11/23 14/12/24 13/9/25
f 8/11/26 9/13/27 14/12/28
f 9/13/29 10/14/30 15/15/31 14/12/32
f 10/14/33 1/1/34 15/15/35
f 15/15/36 11/3/37 16/16/38
f 11/3/39 12/6/40 16/16/41
f 12/6/42 13/9/43 16/16/44
f 13/9/45 14/12/46 16/16/47
f 14/12/48 15/15/49 16/16/50
f 17/17/51 18/18/52 22/19/53 25/20/54
f 18/18/55 19/21/56 23/22/57 22/19/58
f 19/21/59 20/23/60 24/24/61 23/22/62
f 20/23/63 21/25/64 25/26/65 24/24/66
f 21/25/67 17/27/68 25/26/69
