# This file uses centimeters as units for non-parametric coordinates.

g default
v -1.403423 -0.228225 -0.661501
v -4.258866 -0.228225 0.052360
v 0.228261 -0.228225 0.052360
v -4.342643 2.934808 3.448848
v -2.108099 3.319980 1.667112
v 0.942121 -0.228225 1.684043
v -4.972728 -0.228225 1.684043
v -3.239065 -0.228225 -0.559522
v -1.403423 -0.228225 5.253349
v -2.131218 3.030842 4.846858
v -3.239065 -0.228225 5.151369
v -4.192359 2.908858 1.946457
v -0.796151 2.305600 4.537604
v 0.534200 -0.228225 4.029588
v -4.564807 -0.228225 4.029588
v -4.385960 1.892271 4.405176
v -1.604398 2.673419 -1.907864
v -1.014987 -0.132132 0.863452
v 1.779323 3.374092 -1.452411
v 3.095609 -0.132132 -4.984493
v 3.455758 -0.132132 0.511063
v -1.883661 -0.132132 -4.115820
v 3.864135 2.463761 -2.548184
v 1.334155 3.091120 -4.137521
v 0.984480 -0.132132 1.540793
v 1.276813 2.411128 0.772263
v -2.047556 -0.132132 -0.153600
v 4.409978 -0.132132 -3.332496
v 1.789001 -0.132132 -5.611683
v 4.591471 -0.132132 -1.311831
v -2.561001 -0.132132 -2.116351
v 0.403286 -0.132132 -5.711986
v 0.755707 0.035738 4.359146
v 1.179085 1.877897 4.350050
v 3.740222 1.763909 1.334750
v 0.220292 0.035738 3.061261
v 2.579609 2.360989 3.218805
v 4.819182 0.035738 2.097602
v 2.352625 0.035738 5.146584
v 1.870044 0.035738 0.576562
v 4.176007 1.899829 3.470955
v 4.695376 0.035738 3.943132
v 3.762583 0.035738 4.918023
v 1.347535 2.032187 2.166647
v 3.715571 0.035738 0.700370
vt 0.871877 0.535524
vt 0.837366 0.545427
vt 0.834660 0.511843
vt 0.818288 0.549270
vt 0.795190 0.549587
vt 0.800328 0.517440
vt 0.773677 0.543307
vt 0.801105 0.561313
vt 0.801183 0.576733
vt 0.824068 0.576338
vt 0.815010 0.623570
vt 0.847382 0.620205
vt 0.873007 0.603117
vt 0.795086 0.615411
vt 0.883143 0.574368
vt 0.771567 0.589748
vt 0.922841 0.640849
vt 0.882482 0.625287
vt 0.917688 0.607962
vt 0.890762 0.678379
vt 0.866596 0.643487
vt 0.858702 0.682056
vt 0.928428 0.671345
vt 0.958684 0.678559
vt 0.928297 0.700177
vt 0.968681 0.722694
vt 0.989278 0.690419
vt 0.945450 0.735957
vt 0.919569 0.739571
vt 0.987147 0.652149
vt 0.964784 0.622249
vt 0.876882 0.717708
vt 0.922525 0.565553
vt 0.894335 0.553188
vt 0.900503 0.529391
vt 0.919138 0.537452
vt 0.936507 0.550587
vt 0.954375 0.571909
vt 0.956292 0.544466
vt 0.983626 0.561907
vt 0.975831 0.528406
vt 0.964276 0.591117
vt 0.956550 0.512233
vt 0.931799 0.511190
vt 0.929071 0.596963
vn 0.780911 0.300178 0.547788
vn 0.712106 0.537084 0.452157
vn 0.273001 0.140681 0.951672
vn -0.013481 0.625143 0.780394
vn -0.766874 0.209402 0.606676
vn -0.339339 0.074153 0.937737
vn -0.867710 -0.014818 0.496850
vn -0.660020 0.730700 0.174500
vn -0.640557 0.592153 -0.488918
vn 0.262535 0.874915 -0.406938
vn -0.243746 0.533868 -0.809675
vn 0.145089 0.562847 -0.813727
vn 0.550489 0.617940 -0.561348
vn -0.703890 0.378014 -0.601368
vn 0.807912 0.581655 -0.094634
vn -0.982545 0.177840 -0.054573
vn -0.018195 0.650709 0.759109
vn -0.459248 0.441480 0.770835
vn 0.036789 0.285191 0.957764
vn -0.684355 0.724411 -0.082987
vn -0.718187 0.465961 0.516806
vn -0.945282 0.324686 -0.031957
vn 0.122359 0.980668 0.152702
vn 0.780161 0.625457 -0.012328
vn 0.113679 0.745258 -0.657015
vn 0.568677 0.420315 -0.707065
vn 0.889254 0.293088 -0.351180
vn 0.231606 0.431449 -0.871901
vn -0.341004 0.520108 -0.783073
vn 0.912930 0.353186 0.204493
vn 0.627123 0.412308 0.660847
vn -0.716321 0.474170 -0.511906
vn -0.631771 0.724261 -0.276245
vn -0.887064 0.443632 -0.127706
vn -0.830677 0.343458 0.438192
vn -0.341420 0.662087 0.667139
vn 0.087048 0.962673 0.256287
vn 0.363399 0.709831 -0.603391
vn 0.701162 0.651009 0.290790
vn 0.906772 0.330765 -0.261457
vn 0.863580 0.335867 0.376062
vn 0.451584 0.301777 -0.839645
vn 0.309727 0.543489 0.780185
vn -0.158768 0.304899 0.939058
vn -0.354287 0.418535 -0.836247
s 1
g polySurface24
f 14/1/1 13/2/2 9/3/3
f 10/4/4 9/3/3 13/2/2
f 16/5/5 11/6/6 10/4/4
f 9/3/3 10/4/4 11/6/6
f 16/5/5 15/7/7 11/6/6
f 16/5/5 10/4/4 4/8/8
f 12/9/9 4/8/8 5/10/10
f 5/10/10 4/8/8 10/4/4
f 8/11/11 5/10/10 1/12/12
f 5/10/10 3/13/13 1/12/12
f 2/14/14 12/9/9 8/11/11
f 12/9/9 5/10/10 8/11/11
f 10/4/4 13/2/2 5/10/10
f 3/13/13 5/10/10 6/15/15
f 6/15/15 5/10/10 13/2/2
f 14/1/1 6/15/15 13/2/2
f 16/5/5 7/16/16 15/7/7
f 12/9/9 7/16/16 4/8/8
f 16/5/5 4/8/8 7/16/16
f 12/9/9 2/14/14 7/16/16
s 5
f 26/17/17 18/18/18 25/19/19
f 17/20/20 27/21/21 26/17/17
f 27/21/21 18/18/18 26/17/17
f 17/20/20 31/22/22 27/21/21
f 17/20/20 26/17/17 19/23/23
f 23/24/24 24/25/25 19/23/23
f 17/20/20 19/23/23 24/25/25
f 23/24/24 20/26/26 24/25/25
f 28/27/27 20/26/26 23/24/24
f 24/25/25 20/26/26 29/28/28
f 29/28/28 32/29/29 24/25/25
f 23/24/24 30/30/30 28/27/27
f 23/24/24 21/31/31 30/30/30
f 26/17/17 21/31/31 23/24/24
f 23/24/24 19/23/23 26/17/17
f 26/17/17 25/19/19 21/31/31
f 17/20/20 22/32/32 31/22/22
f 32/29/29 22/32/32 17/20/20
f 17/20/20 24/25/25 32/29/29
s 8
f 44/33/33 36/34/34 33/35/35
f 33/35/35 34/36/36 44/33/33
f 44/33/33 34/36/36 37/37/37
f 35/38/38 37/37/37 41/39/39
f 35/38/38 44/33/33 37/37/37
f 41/39/39 38/40/40 35/38/38
f 42/41/41 38/40/40 41/39/39
f 35/38/38 38/40/40 45/42/42
f 41/39/39 43/43/43 42/41/41
f 43/43/43 41/39/39 37/37/37
f 37/37/37 34/36/36 43/43/43
f 34/36/36 39/44/44 43/43/43
f 34/36/36 33/35/35 39/44/44
f 40/45/45 36/34/34 44/33/33
f 35/38/38 40/45/45 44/33/33
f 45/42/42 40/45/45 35/38/38
