# This file uses centimeters as units for non-parametric coordinates.

g default
v 0.058699 -0.226866 2.923285
v 6.675312 -0.226866 2.923285
v -1.621571 7.071361 0.153478
v 3.653856 7.559261 -5.078679
v -1.853494 3.512239 1.013755
v 5.023201 5.513709 1.735317
v -2.303912 5.332257 -3.378812
v 0.058699 -0.226866 -3.693328
v 7.878332 -0.226866 -0.385021
v 0.508101 9.046953 -2.261250
v 3.367005 -0.226866 4.126306
v 3.148537 3.517671 -5.654383
v 6.348372 3.680424 -0.401442
v -1.144321 -0.226866 -0.385021
v 0.476318 8.542456 -0.374935
v 2.834292 8.784363 -1.180246
v -1.860446 7.404359 -3.203633
v 5.473644 4.539679 -5.225183
v 6.675312 -0.226866 -3.693328
v -0.475454 8.468870 -4.170331
v 1.725825 6.914564 1.353127
v 3.367005 -0.226866 -4.896348
v 4.857081 6.860807 -3.080002
v -1.474403 8.140000 -1.281441
v 1.876685 8.539232 -4.329048
v 5.171536 -0.226866 3.825551
v -0.197245 4.445837 2.074893
v 1.562475 -0.226866 3.825551
v 3.198458 5.735765 -5.819071
v 5.171536 -0.226866 -4.595593
v 1.562475 -0.226866 -4.595593
v -0.051857 4.724725 -5.859329
v 7.577577 -0.226866 -2.189552
v 4.541137 7.345455 -0.575654
v 7.577577 -0.226866 1.419510
v -0.843566 -0.226866 1.419510
v -2.361887 5.206820 -0.660812
v -1.702796 3.781803 -4.576652
v -0.843566 -0.226866 -2.189552
v -1.028778 6.697217 -5.228892
v 1.222133 6.848185 -5.682129
v -2.228357 7.115174 -1.984710
v -5.967898 -0.187485 3.904312
v -1.632730 -0.187485 9.567828
v -1.597564 2.357685 10.097385
v -4.841091 2.117280 8.169683
v -2.119960 4.688401 6.655383
v 1.509001 3.790025 2.706968
v 0.827280 2.937474 8.715815
v -5.180834 2.771833 2.457492
v -3.204162 3.384798 9.444284
v -4.571096 4.389809 4.038446
v -1.901312 5.316402 2.138409
v -0.776358 4.247910 8.880411
v 0.939962 5.318898 5.804143
v -0.304381 -0.187485 -0.430856
v 2.809422 3.455070 6.720731
v 4.030787 -0.187485 5.232661
v -4.830044 -0.187485 7.524282
v -5.267992 3.621718 6.365613
v 2.892934 -0.187485 1.612690
v 1.987241 -0.187485 8.429975
v -3.924352 -0.187485 0.706998
v -3.390293 -0.187485 8.871824
v -6.617285 2.173205 5.309469
v -5.754930 -0.187485 5.782634
v 2.584253 3.724475 4.372694
v 3.817820 -0.187485 3.354339
v 1.453182 -0.187485 0.265148
v 0.175493 3.739869 1.238624
v 3.334784 -0.187485 6.990224
v 0.245593 -0.187485 9.354860
v -5.271894 -0.187485 2.146749
v -2.037959 3.486097 0.413779
v -2.182703 -0.187485 -0.217888
v -0.869669 -0.134725 1.662195
v -6.183867 3.093431 -0.038993
v -5.857238 2.601401 -2.919410
v -2.937650 -0.134725 -3.520534
v -2.682137 4.736210 -2.169684
v -2.937650 -0.134725 2.459538
v -4.360350 4.421854 -0.944040
v -4.065640 -0.134725 -3.321198
v -0.305674 -0.134725 -1.726512
v -3.279626 3.521989 -3.749916
v -1.339664 -0.134725 -3.022194
v -3.026777 4.371701 0.129616
v -5.005631 -0.134725 -2.723191
v -0.117675 -0.134725 -0.530498
v -1.809660 -0.134725 2.260202
v -1.571645 3.288536 -2.909641
v -5.569626 -0.134725 0.665516
v -5.663626 -0.134725 -1.128505
vt 0.582005 0.609897
vt 0.636857 0.680831
vt 0.550525 0.640507
vt 0.538118 0.680452
vt 0.681835 0.717473
vt 0.654562 0.737892
vt 0.675939 0.762933
vt 0.678928 0.812973
vt 0.629934 0.783638
vt 0.534766 0.716449
vt 0.639386 0.890548
vt 0.535588 0.749284
vt 0.732302 0.691960
vt 0.710697 0.696135
vt 0.728709 0.665435
vt 0.757586 0.684125
vt 0.723476 0.712464
vt 0.798518 0.660645
vt 0.772023 0.627226
vt 0.740565 0.600006
vt 0.812464 0.703878
vt 0.744901 0.720889
vt 0.809963 0.748307
vt 0.749824 0.747749
vt 0.704807 0.581697
vt 0.659504 0.576234
vt 0.663420 0.638218
vt 0.696299 0.686169
vt 0.671757 0.695426
vt 0.616412 0.584092
vt 0.666060 0.891452
vt 0.767481 0.826721
vt 0.748337 0.855326
vt 0.694959 0.784525
vt 0.724568 0.756322
vt 0.792802 0.792431
vt 0.677521 0.736476
vt 0.692921 0.727513
vt 0.705998 0.726520
vt 0.708256 0.741534
vt 0.688514 0.744183
vt 0.705820 0.713376
vt 0.723549 0.729596
vt 0.699818 0.754323
vt 0.584141 0.792679
vt 0.559921 0.817076
vt 0.551817 0.769655
vt 0.515767 0.792414
vt 0.509862 0.756625
vt 0.535661 0.815022
vt 0.491866 0.815130
vt 0.468846 0.799976
vt 0.468742 0.762890
vt 0.433788 0.783768
vt 0.515455 0.846576
vt 0.546481 0.841834
vt 0.529063 0.880375
vt 0.471942 0.842280
vt 0.468880 0.886668
vt 0.534079 0.911527
vt 0.560178 0.890273
vt 0.505203 0.918894
vt 0.525584 0.981495
vt 0.563258 0.968274
vt 0.594149 0.941712
vt 0.435287 0.906133
vt 0.474945 0.919988
vt 0.461873 0.981249
vt 0.491379 0.983206
vt 0.611743 0.905668
vt 0.568168 0.853974
vt 0.615845 0.865825
vt 0.606565 0.825739
vt 0.443017 0.837807
vt 0.409211 0.809980
vt 0.390647 0.841326
vt 0.377479 0.872078
vt 0.432327 0.979501
vt 0.363126 0.797166
vt 0.352675 0.815765
vt 0.282760 0.760288
vt 0.340540 0.831663
vt 0.330978 0.726654
vt 0.281360 0.730556
vt 0.300463 0.736296
vt 0.318943 0.700325
vt 0.287704 0.707995
vt 0.269223 0.710686
vt 0.295681 0.658196
vt 0.318313 0.659678
vt 0.262112 0.664060
vt 0.339363 0.667545
vt 0.232379 0.678748
vt 0.307059 0.853270
vt 0.218056 0.692855
vt 0.376263 0.731404
vt 0.365609 0.693145
vn 0.666752 0.330159 0.668160
vn 0.555182 0.511962 0.655491
vn 0.327043 0.330776 0.885229
vn -0.010373 0.340114 0.940327
vn 0.367435 0.906105 0.209677
vn -0.032699 0.571214 0.820149
vn -0.657218 0.457673 0.598833
vn -0.870375 -0.022984 0.491853
vn -0.383528 0.269229 0.883415
vn -0.340690 0.214639 0.915348
vn -0.666662 0.023373 0.744994
vn 0.157347 0.120321 -0.980186
vn 0.450587 0.648346 -0.613693
vn 0.644030 0.131278 -0.753652
vn 0.056198 -0.131056 -0.989781
vn -0.054965 0.348661 -0.935636
vn 0.000301 -0.198396 -0.980122
vn 0.307406 -0.159772 -0.938070
vn 0.707091 -0.048457 -0.705460
vn -0.230706 -0.280897 -0.931596
vn -0.295648 -0.139559 -0.945048
vn -0.574466 -0.400637 -0.713778
vn -0.817980 -0.240943 -0.522356
vn 0.932549 0.281492 -0.226085
vn 0.931160 0.364610 -0.000036
vn 0.917755 0.393753 0.051802
vn 0.832829 0.541403 -0.115231
vn 0.760678 0.627775 0.165131
vn 0.884752 0.364181 0.290837
vn -0.916844 -0.210848 0.339030
vn -0.968109 -0.250009 -0.016118
vn -0.988371 0.007658 0.151866
vn -0.970958 0.015877 -0.238722
vn -0.871950 -0.374611 -0.315229
vn -0.171822 0.846190 0.504420
vn -0.225614 0.974154 -0.011045
vn -0.364750 0.779818 -0.508764
vn -0.780330 0.574240 -0.247657
vn -0.609743 0.777727 0.152822
vn 0.102178 0.881755 -0.460509
vn -0.626621 0.276553 -0.728605
vn -0.940654 0.337178 0.038493
vn -0.129489 -0.200271 0.971146
vn -0.060558 0.054147 0.996695
vn -0.519682 -0.150573 0.840986
vn -0.712508 0.028474 0.701086
vn -0.798643 -0.193914 0.569708
vn -0.426646 0.604802 0.672449
vn -0.682397 0.695626 0.224586
vn -0.978445 0.084965 0.188220
vn -0.916891 -0.277420 0.286967
vn -0.965486 -0.082281 -0.247116
vn -0.242556 0.943764 0.224670
vn 0.132395 0.764486 0.630898
vn 0.380099 0.913472 0.145239
vn -0.558872 0.826136 -0.071846
vn -0.076158 0.920920 -0.382239
vn 0.819405 0.538025 -0.197749
vn 0.804902 0.413954 0.425176
vn 0.637542 0.596080 -0.488088
vn 0.725921 0.405426 -0.555579
vn 0.859733 0.373029 -0.348869
vn 0.957292 0.280461 0.070246
vn -0.216659 0.400093 -0.890497
vn 0.408047 0.529500 -0.743725
vn 0.181119 0.289537 -0.939875
vn 0.560392 0.376184 -0.737866
vn 0.833914 0.159367 0.528384
vn 0.520670 0.360444 0.773940
vn 0.627179 0.145284 0.765205
vn 0.360541 -0.007157 0.932716
vn -0.778158 0.388470 -0.493519
vn -0.842025 0.081897 -0.533186
vn -0.591526 0.164906 -0.789242
vn -0.291629 0.173245 -0.940712
vn -0.224609 0.345302 0.911217
vn 0.317966 0.474070 0.821070
vn 0.461660 0.718406 0.520349
vn 0.676824 0.505859 0.534805
vn -0.820624 0.385395 0.421955
vn 0.223827 0.946352 -0.233065
vn -0.426188 0.899818 -0.093225
vn -0.783072 0.176623 -0.596325
vn -0.102847 0.431377 -0.896290
vn 0.754988 0.353568 -0.552252
vn 0.195067 -0.014373 -0.980685
vn -0.334363 -0.118351 -0.934984
vn 0.563084 0.065244 -0.823820
vn -0.734953 -0.273258 -0.620624
vn 0.907393 0.381099 -0.177204
vn 0.842757 0.532573 0.078267
vn -0.868513 -0.057822 0.492282
vn -0.969051 -0.205578 -0.136669
s 1
g polySurface23
f 2/1/1 6/2/2 26/3/3
f 26/3/3 6/2/2 11/4/4
f 6/2/2 16/5/5 21/6/6
f 11/4/4 6/2/2 21/6/6
f 3/7/7 5/8/8 27/9/9
f 11/4/4 21/6/6 27/9/9
f 27/9/9 21/6/6 3/7/7
f 28/10/10 11/4/4 27/9/9
f 5/8/8 1/11/11 27/9/9
f 27/9/9 1/12/11 28/10/10
f 29/13/12 4/14/13 18/15/14
f 18/15/14 12/16/15 29/13/12
f 41/17/16 29/13/12 12/16/15
f 22/18/17 12/16/15 30/19/18
f 12/16/15 18/15/14 30/19/18
f 30/19/18 18/15/14 19/20/19
f 31/21/20 12/16/15 22/18/17
f 32/22/21 41/17/16 12/16/15
f 12/16/15 31/21/20 32/22/21
f 31/21/20 8/23/22 32/22/21
f 32/22/21 8/23/22 38/24/23
f 18/15/14 33/25/24 19/20/19
f 9/26/25 33/25/24 13/27/26
f 18/15/14 4/14/13 23/28/27
f 13/27/26 33/25/24 23/28/27
f 33/25/24 18/15/14 23/28/27
f 34/29/28 16/5/5 6/2/2
f 6/2/2 13/27/26 34/29/28
f 34/29/28 13/27/26 23/28/27
f 35/30/29 9/26/25 13/27/26
f 13/27/26 6/2/2 35/30/29
f 35/30/29 6/2/2 2/1/1
f 1/11/11 5/8/8 36/31/30
f 5/8/8 14/32/31 36/33/30
f 5/8/8 3/7/7 37/34/32
f 7/35/33 14/32/31 37/34/32
f 37/34/32 14/32/31 5/8/8
f 14/32/31 7/35/33 38/24/23
f 39/36/34 14/32/31 38/24/23
f 38/24/23 8/23/22 39/36/34
f 21/6/6 16/5/5 15/37/35
f 16/5/5 10/38/36 15/37/35
f 20/39/37 17/40/38 10/38/36
f 17/40/38 24/41/39 10/38/36
f 24/41/39 15/37/35 10/38/36
f 21/6/6 15/37/35 3/7/7
f 3/7/7 15/37/35 24/41/39
f 25/42/40 16/5/5 4/14/13
f 16/5/5 23/28/27 4/14/13
f 10/38/36 16/5/5 25/42/40
f 10/38/36 25/42/40 20/39/37
f 34/29/28 23/28/27 16/5/5
f 38/24/23 40/43/41 32/22/21
f 41/17/16 32/22/21 40/43/41
f 25/42/40 41/17/16 20/39/37
f 20/39/37 41/17/16 40/43/41
f 4/14/13 29/13/12 41/17/16
f 41/17/16 25/42/40 4/14/13
f 37/34/32 3/7/7 42/44/42
f 3/7/7 24/41/39 42/44/42
f 17/40/38 7/35/33 42/44/42
f 42/44/42 7/35/33 37/34/32
f 40/43/41 17/40/38 20/39/37
f 24/41/39 17/40/38 42/44/42
f 38/24/23 7/35/33 40/43/41
f 40/43/41 7/35/33 17/40/38
s 10
f 44/45/43 45/46/44 64/47/45
f 64/47/45 46/48/46 59/49/47
f 45/46/44 51/50/48 46/48/46
f 60/51/49 46/48/46 51/50/48
f 64/47/45 45/46/44 46/48/46
f 46/48/46 60/51/49 65/52/50
f 46/48/46 65/52/50 59/49/47
f 59/49/47 65/52/50 66/53/51
f 66/53/51 65/52/50 43/54/52
f 47/55/53 51/50/48 54/56/54
f 60/51/49 51/50/48 47/55/53
f 54/56/54 55/57/55 47/55/53
f 52/58/56 47/55/53 53/59/57
f 53/59/57 47/55/53 55/57/55
f 60/51/49 47/55/53 52/58/56
f 67/60/58 55/57/55 57/61/59
f 48/62/60 55/57/55 67/60/58
f 61/63/61 48/62/60 68/64/62
f 68/64/62 48/62/60 67/60/58
f 57/61/59 58/65/63 67/60/58
f 67/60/58 58/65/63 68/64/62
f 74/66/64 70/67/65 56/68/66
f 56/68/66 70/67/65 69/69/67
f 70/67/65 48/62/60 69/69/67
f 69/69/67 48/62/60 61/63/61
f 74/66/64 53/59/57 70/67/65
f 55/57/55 48/62/60 53/59/57
f 53/59/57 48/62/60 70/67/65
f 58/65/63 57/61/59 71/70/68
f 49/71/69 62/72/70 57/61/59
f 57/61/59 62/72/70 71/70/68
f 54/56/54 49/71/69 55/57/55
f 55/57/55 49/71/69 57/61/59
f 54/56/54 51/50/48 45/46/44
f 49/71/69 54/56/54 45/46/44
f 62/72/70 49/71/69 72/73/71
f 72/73/71 49/71/69 45/46/44
f 45/46/44 44/45/43 72/73/71
f 65/52/50 50/74/72 43/54/52
f 43/54/52 50/74/72 73/75/73
f 73/75/73 50/74/72 63/76/74
f 65/52/50 60/51/49 50/74/72
f 50/74/72 60/51/49 52/58/56
f 52/58/56 53/59/57 50/74/72
f 50/74/72 53/59/57 74/66/64
f 50/74/72 74/66/64 63/76/74
f 63/76/74 74/66/64 75/77/75
f 75/78/75 74/66/64 56/68/66
s 16
f 81/79/76 90/80/77 87/81/78
f 90/80/77 76/82/79 87/81/78
f 87/81/78 77/83/80 81/79/76
f 87/81/78 80/84/81 82/85/82
f 78/86/83 82/85/82 85/87/84
f 85/87/84 82/85/82 80/84/81
f 82/85/82 78/86/83 77/83/80
f 82/85/82 77/83/80 87/81/78
f 91/88/85 79/89/86 85/87/84
f 79/89/86 83/90/87 85/87/84
f 79/89/86 91/88/85 86/91/88
f 78/86/83 83/90/87 88/92/89
f 83/90/87 78/86/83 85/87/84
f 91/88/85 84/93/90 86/91/88
f 91/88/85 85/87/84 80/84/81
f 76/82/79 89/94/91 87/81/78
f 89/95/91 84/93/90 87/81/78
f 87/81/78 84/93/90 91/88/85
f 80/84/81 87/81/78 91/88/85
f 92/96/92 77/83/80 93/97/93
f 92/96/92 81/79/76 77/83/80
f 77/83/80 78/86/83 93/97/93
f 93/97/93 78/86/83 88/92/89
