# This file uses centimeters as units for non-parametric coordinates.

mtllib tree2.mtl
g default
v 5.457639 -5.655683 -9.463923
v -5.470361 -5.655683 -9.463927
v -10.934362 -5.655683 -0.000001
v -5.470364 -5.655683 9.463925
v 5.457634 -5.655683 9.463926
v 10.921634 -5.655683 0.000001
v 3.421429 97.395772 -5.937106
v -3.434154 97.395772 -5.937108
v -6.861946 97.395772 -0.000000
v -3.434155 97.395772 5.937108
v 3.421426 97.395772 5.937108
v 6.849217 97.395772 0.000001
v 7.203584 83.848890 0.000001
v 3.598610 83.848890 6.244000
v -3.611339 83.848890 6.243999
v -7.216313 83.848890 -0.000000
v -3.611337 83.848890 -6.244000
v 3.598613 83.848890 -6.243998
vt 0.822726 0.053316
vt 0.880252 0.053316
vt 0.937777 0.053316
vt 0.995303 0.053316
vt 0.879897 0.053316
vt 0.937423 0.053316
vt 0.994948 0.053316
vt 0.822726 0.374639
vt 0.880252 0.374639
vt 0.937777 0.374639
vt 0.822372 0.374639
vt 0.879897 0.374639
vt 0.937423 0.374639
vt 0.994948 0.374639
vt 0.822372 0.053316
vt 0.995303 0.374639
vt 0.937423 0.346679
vt 0.879897 0.346679
vt 0.995303 0.346679
vt 0.822372 0.346679
vt 0.937777 0.346679
vt 0.880252 0.346679
vt 0.994948 0.346679
vt 0.822726 0.346679
vn 0.000000 0.035952 -0.999353
vn 0.000000 0.035952 -0.999353
vn 0.000000 0.029301 -0.999571
vn 0.000000 0.029301 -0.999571
vn -0.865465 0.035952 -0.499677
vn -0.865465 0.035952 -0.499677
vn -0.865653 0.029301 -0.499785
vn -0.865653 0.029301 -0.499785
vn -0.865466 0.035952 0.499677
vn -0.865466 0.035952 0.499677
vn -0.865654 0.029301 0.499785
vn -0.865654 0.029301 0.499785
vn -0.000000 0.035952 0.999353
vn -0.000000 0.035952 0.999353
vn -0.000000 0.029301 0.999571
vn -0.000000 0.029301 0.999571
vn 0.865466 0.035952 0.499677
vn 0.865466 0.035952 0.499677
vn 0.865654 0.029301 0.499785
vn 0.865654 0.029301 0.499785
vn 0.865466 0.035952 -0.499676
vn 0.865466 0.035952 -0.499676
vn 0.865654 0.029301 -0.499785
vn 0.865654 0.029301 -0.499785
vn 0.865803 0.022648 0.499872
vn 0.865803 0.022648 0.499872
vn -0.000000 0.022648 0.999743
vn -0.000000 0.022648 0.999743
vn -0.865803 0.022648 0.499872
vn -0.865803 0.022648 0.499872
vn -0.865803 0.022648 -0.499872
vn -0.865803 0.022648 -0.499872
vn 0.000000 0.022648 -0.999743
vn 0.000000 0.022648 -0.999743
vn 0.865803 0.022648 -0.499871
vn 0.865803 0.022648 -0.499871
s 1
g pCylinder1
usemtl lambert2SG
f 1/1/1 2/2/2 17/22/3 18/24/4
s 2
f 2/2/5 3/3/6 16/21/7 17/22/8
s 3
f 3/3/9 4/4/10 15/19/11 16/21/12
s 4
f 4/15/13 5/5/14 14/18/15 15/20/16
s 5
f 5/5/17 6/6/18 13/17/19 14/18/20
s 6
f 6/6/21 1/7/22 18/23/23 13/17/24
s 5
f 14/18/20 13/17/19 12/13/25 11/12/26
s 4
f 15/20/16 14/18/15 11/12/27 10/11/28
s 3
f 16/21/12 15/19/11 10/16/29 9/10/30
s 2
f 17/22/8 16/21/7 9/10/31 8/9/32
s 1
f 18/24/4 17/22/3 8/9/33 7/8/34
s 6
f 13/17/24 18/23/23 7/14/35 12/13/36
